<svg xmlns="http://www.w3.org/2000/svg" width="1200" height="404.889" viewBox="0 0 1200 404.889"><defs><style>.a{fill:#415eaa;}.b,.c,.g{fill:#f7a041;}.c,.d,.g,.h{stroke:#415eaa;}.c,.d,.f,.g,.h{stroke-miterlimit:10;}.c,.d,.f,.h{stroke-width:2px;}.d{fill:#f90303;}.e{fill:#fff;}.f{fill:none;stroke:#fcfcfc;}.g{stroke-width:4px;}.h{fill:#f4ba38;}.i{fill:#7ad3d3;}</style></defs><g transform="translate(-9.198 -59.344)"><rect class="a" width="62.022" height="1200" transform="translate(9.198 464.233) rotate(-90)"/><rect class="b" width="1200" height="27.004" transform="translate(9.198 408.935)"/><path class="a" d="M265.211,423.726c-.121-.373-12.1-37.3-17.428-54.6-3.417-11.169-9.142-16.823-17.015-16.823h-26.49c-7.913,0-13.668,5.655-17.136,16.823-5.312,17.3-17.4,54.23-17.519,54.6-1.4,4.284.575,9.072,4.4,10.594s8.064-.635,9.5-4.919c.1-.313,8.376-25.633,14.283-44.281a9.455,9.455,0,0,0,3.024,4.788V402l-12.68,35.874A3.528,3.528,0,0,0,190.3,442.5c1.905.514,4.415,1.21,7.147,2.016v65.64c0,5.423,3.871,10.08,8.83,10.181s9.072-4.355,9.072-9.828V448.764a22.408,22.408,0,0,0,4.274,0v61.366c0,5.423,3.871,10.08,8.83,10.181s9.072-4.354,9.072-9.828V444.47c2.711-.766,5.221-1.462,7.106-1.966a3.548,3.548,0,0,0,2.137-4.637L234.1,402.014v-12.1a9.354,9.354,0,0,0,3.024-4.788c5.877,18.648,14.112,43.969,14.223,44.281,1.391,4.284,5.625,6.492,9.435,4.919S266.612,428.01,265.211,423.726Z" transform="translate(-37.148 -131.375)"/><ellipse class="a" cx="16.471" cy="18.053" rx="16.471" ry="18.053" transform="translate(163.632 178.378)"/><rect class="c" width="284.505" height="108.51" transform="translate(100.109 292.956)"/><path class="a" d="M222.265,440.19H166.826c-1.794,0-3.246,1.966-3.246,4.385v83.875c0,2.419,1.452,4.375,3.246,4.375h55.439c1.794,0,3.246-1.955,3.246-4.375V444.575C225.491,442.156,224.059,440.19,222.265,440.19Zm-55.238,2.258h55.046c.524,0,.958.585.958,1.29v40.511H166.019V443.738A1.175,1.175,0,0,1,167.027,442.448Zm55.046,86.989H167.027c-.524,0-.948-.575-.948-1.29V487.636h56.951v40.511c-.03.716-.464,1.29-.988,1.29Z" transform="translate(-37.193 -130.673)"/><path class="a" d="M188.332,467.17h12.892c2.218,0,4.032-2.429,4.032-5.423v-3.024c0-.937-.564-1.693-1.26-1.693s-1.25.756-1.25,1.693v2.762c0,1.28-.776,2.328-1.734,2.328H188.544c-.948,0-1.724-1.008-1.724-2.328v-2.762c0-.937-.564-1.693-1.26-1.693s-1.25.756-1.25,1.693v3.024C184.31,464.741,186.1,467.17,188.332,467.17Z" transform="translate(-37.027 -130.539)"/><path class="a" d="M203.986,501.83c-.7,0-1.25.756-1.25,1.693v2.762c0,1.28-.776,2.329-1.734,2.329H188.544c-.948,0-1.724-1.008-1.724-2.329v-2.762c0-.937-.564-1.693-1.26-1.693s-1.25.756-1.25,1.693v3.024c0,3.024,1.794,5.423,4.032,5.423h12.892c2.218,0,4.032-2.429,4.032-5.423v-3.024C205.246,502.586,204.681,501.83,203.986,501.83Z" transform="translate(-37.027 -130.181)"/><rect class="a" width="110.092" height="78.542" transform="translate(228.285 317.561)"/><path class="a" d="M288.36,411.49a30.744,30.744,0,0,1,3.2-12.792l-1.915-.584-.827,2.359a1.935,1.935,0,0,1-1.945,1.29,1.784,1.784,0,0,1-1.673-2.318l1.693-4.828a1.945,1.945,0,0,1,1.945-1.3,1.784,1.784,0,0,1,1.673,2.318l-.565,1.613,2.016.635a32.25,32.25,0,0,1,5.473-7.459l-2.177-1.814-1.744,1.905a2.016,2.016,0,0,1-2.187.554,1.713,1.713,0,0,1-.736-2.8l3.548-3.861a2.016,2.016,0,0,1,2.187-.554,1.724,1.724,0,0,1,.736,2.8l-1.169,1.27,2.218,1.845a34.355,34.355,0,0,1,8.185-5.857l-1.119-1.764-2.238,1.179a2.016,2.016,0,0,1-2.258-.181,1.714,1.714,0,0,1,.333-2.863l4.748-2.5a2.016,2.016,0,0,1,2.258.181,1.7,1.7,0,0,1-.333,2.863l-1.663.877,1.119,1.794a36.215,36.215,0,0,1,12.439-3.427v-.393h14.354V368.116a4.717,4.717,0,0,1,4.869-4.546h18.144a4.436,4.436,0,0,1,4.254,2.752c.958,2.762-1.351,5.3-4.324,5.3h-1.825v36.661a4.384,4.384,0,0,1-1.905,3.588h.181a5.373,5.373,0,0,1,5.544,5.181v3.024a5.373,5.373,0,0,1-5.544,5.181H288.814a5.373,5.373,0,0,1-5.544-5.181V416.62A5.332,5.332,0,0,1,288.36,411.49Zm61.891-6.048a1.008,1.008,0,0,0,1.915,0V375.666a1.008,1.008,0,0,0-1.915,0Zm-51.125-7.167a1.015,1.015,0,0,0,1.32-.363c5.766-9.919,17.9-11.783,18.023-11.8a.927.927,0,0,0,.806-1.008,1.008,1.008,0,0,0-1.109-.756c-.534.07-13.195,2.016-19.434,12.731a.877.877,0,0,0,.393,1.2Z" transform="translate(-36.237 -131.285)"/><ellipse class="a" cx="14.989" cy="17.347" rx="14.989" ry="17.347" transform="translate(1013.114 196.38)"/><path class="a" d="M1065.006,426.31a5.416,5.416,0,0,0-.544,4.3c.736,2.5,3.024,3.83,5.232,3.024l6.45-2.55Z" transform="translate(-29.998 -130.784)"/><path class="a" d="M1088.5,410.938l-23.426-9.979-10.977-20.613,11.844,12.973,1.613-8.769c1.27-6.854-2.5-13.608-8.427-15.069l-19.152-4.738c-5.917-1.472-11.753,2.9-13.013,9.757l-10.705,63.967s1.785,13.567,4.778,36.177l-11.2,47.285c-1.28,5.393,1.462,10.957,6.118,12.439s9.465-1.7,10.735-7.056l11.692-49.392a11.792,11.792,0,0,0,.212-4.2L1034.558,443l3.84.948,10.241,32.326,2.752,49c.322,5.574,4.475,9.8,9.294,9.435s8.467-5.181,8.155-10.755l-2.843-50.4a11.6,11.6,0,0,0-.514-2.832l-8.739-27.579,3.427-18.547-7.055-3.024a8.061,8.061,0,0,1-4.425-5.443l-7-26.933L1054,412.279a7.6,7.6,0,0,0,3.679,3.488l25.784,10.987c3.77,1.6,7.953-.635,9.344-5.04S1092.266,412.541,1088.5,410.938Z" transform="translate(-30.435 -131.278)"/><ellipse class="a" cx="6.582" cy="7.419" rx="6.582" ry="7.419" transform="translate(1067.616 388.886)"/><ellipse class="a" cx="6.582" cy="7.419" rx="6.582" ry="7.419" transform="translate(1129.194 388.886)"/><path class="a" d="M1187.342,436.927a1.685,1.685,0,0,0-1.421-1.3l-89.177-9.717a2.7,2.7,0,0,1-2.017-1.451,32.434,32.434,0,0,0-3.346-5.735c-2.107-2.9-6.048-2.812-13.356-2.873a4.184,4.184,0,0,0-4.466,4.354,4.122,4.122,0,0,0,4.274,4.344,32.25,32.25,0,0,1,7.116.595c1.291.423,2.328,2.8,2.712,4.869a.111.111,0,0,0,0,.091c0,.373.544,3.155.544,3.185l11,65.3a25.942,25.942,0,0,0,3.971,11.017,10.565,10.565,0,0,0,9.011,5.04h64.784a4.344,4.344,0,0,0,.1-8.638h-64.945a2.934,2.934,0,0,1-2.268-.867c-1.008-.927-2.268-3.024-3.145-8.064l-1.179-7.318a.17.17,0,0,1,.111-.181l76.032-14.505a1.734,1.734,0,0,0,1.341-1.6l4.375-35.733a1.82,1.82,0,0,0,0-.807Z" transform="translate(-29.924 -130.868)"/><ellipse class="d" cx="8.225" cy="8.165" rx="8.225" ry="8.165" transform="translate(1065.59 388.755)"/><ellipse class="d" cx="8.225" cy="8.165" rx="8.225" ry="8.165" transform="translate(1127.299 388.755)"/><rect class="e" width="66.053" height="30.3" rx="4.41" transform="translate(460.576 249.118)"/><path class="a" d="M494.9,382.872a12.969,12.969,0,0,1-1.21-.534v.554l-3.175,3.417-6.451-11.138a6.541,6.541,0,0,0-.6-.685,7.539,7.539,0,0,0-1.058-1.21,6.419,6.419,0,0,0-1.26-.847,6.727,6.727,0,0,0-.756-.524c-.665-.262-15.573-6.219-29.232-6.965l-1.764,3.911h0l4.959,43.434-5.9,11.582-5.9-11.582,4.969-43.434h-.05l-1.754-3.951c-13.668.756-28.6,6.774-29.232,7.056-.232.1-.383.3-.595.413a6.843,6.843,0,0,0-2.318,1.945,6.99,6.99,0,0,0-.857,1.331,7.568,7.568,0,0,0-.625,1.451,6.442,6.442,0,0,0-.333.827L400,437.576c-.877,4.465,1.623,8.88,5.594,9.868a5.941,5.941,0,0,0,1.6.212c3.377,0,6.431-2.631,7.2-6.492l10.806-55c.756-.272,1.623-.554,2.56-.847V441.86l-5.866,81.98c-.393,5.463,3.236,10.261,8.064,10.695h.726c4.556,0,8.427-3.941,8.8-9.142l5.3-74.087a7.862,7.862,0,0,0,7.137,0l5.3,74.087c.373,5.2,4.244,9.142,8.8,9.142h.726c4.869-.433,8.5-5.242,8.064-10.695l-5.846-81.99V385.4c1.633.514,3.024,1.008,4.1,1.371L483.1,403.98a7.388,7.388,0,0,0,5.413,3.72,7.948,7.948,0,0,0,.847.05,6.965,6.965,0,0,0,4.737-2.016,10.636,10.636,0,0,0,2.016,4.576c-.433-8.326.2-16.682-.927-25.038A13.465,13.465,0,0,0,494.9,382.872Z" transform="translate(-35.306 -131.274)"/><path class="a" d="M493.3,403.42v1.008C493.31,404.115,493.3,403.773,493.3,403.42Z" transform="translate(-34.559 -130.967)"/><ellipse class="a" cx="17.62" cy="19.636" rx="17.62" ry="19.636" transform="translate(395.621 187.399)"/><path class="a" d="M559.528,377.876H548.954l14.4-13.386a3.477,3.477,0,0,0,1.008-3.447,3.689,3.689,0,0,0-1.109-1.764l-1.4-1.27a4.113,4.113,0,0,0-5.524,0L534.9,377.926H497.526a4.445,4.445,0,0,0-4.586,4.274v26.581a4.435,4.435,0,0,0,4.586,4.264h62a4.425,4.425,0,0,0,4.586-4.264V382.2a4.435,4.435,0,0,0-4.586-4.324Zm-.786-17.912a1.109,1.109,0,0,1,1.492,0l1.5,1.391a.927.927,0,0,1,.3.7.907.907,0,0,1-.3.685l-3.649,3.4-2.59-2.379-.433-.4ZM542.12,380.97l-14.535,13.507-4.485,1.381,1.5-4.163,12-11.148,15.513-14.414Zm19.031,27.659a1.683,1.683,0,0,1-1.734,1.613h-61.77a1.683,1.683,0,0,1-1.744-1.623V382.25a1.683,1.683,0,0,1,1.744-1.613H532.04l-10.08,9.354a1.252,1.252,0,0,0-.343.514l-2.5,6.935a1.27,1.27,0,0,0,.343,1.351,1.481,1.481,0,0,0,1.008.383,1.42,1.42,0,0,0,.454-.071L528.4,396.8a1.389,1.389,0,0,0,.554-.323l17.136-15.836h13.326a1.683,1.683,0,0,1,1.734,1.613V408.63Z" transform="translate(-34.562 -131.338)"/><path class="a" d="M555.868,404.35h-.857a1.461,1.461,0,0,0-1.31.706,1.4,1.4,0,0,0,1.31,2.016h.877a1.452,1.452,0,0,0,1.31-.706,1.391,1.391,0,0,0-1.33-2.016Z" transform="translate(-34.078 -130.959)"/><path class="a" d="M550.278,404.35H516.572a1.471,1.471,0,0,0-1.31.706,1.4,1.4,0,0,0,1.31,2.016h33.707a1.451,1.451,0,0,0,1.31-.705,1.391,1.391,0,0,0-1.31-2.016Z" transform="translate(-34.385 -130.959)"/><path class="a" d="M556.437,396.84H534.352a1.461,1.461,0,0,0-1.311.706,1.4,1.4,0,0,0,1.311,2.016h22.085a1.451,1.451,0,0,0,1.31-.706,1.391,1.391,0,0,0-1.31-2.016Z" transform="translate(-34.243 -131.019)"/><path class="a" d="M508.433,392.694v-4.738c1.754.111,2.409.857,3.024.857s1.1-.887,1.1-1.331c0-1.139-2.409-1.633-4.113-1.673v-.635c0-.282-.383-.534-.756-.534s-.726.252-.726.534v.675c-2.389.232-4.778,1.4-4.778,4.344s2.51,3.83,4.778,4.576v5.484c-2.56-.192-3.246-1.825-4.032-1.825a1.4,1.4,0,0,0-1.159,1.331c0,1.149,2.117,2.712,5.231,2.762v.716c0,.282.3.544.726.544s.756-.262.756-.544v-.786c2.712-.353,4.566-1.945,4.566-4.808C513,394.468,510.61,393.44,508.433,392.694Zm-1.482-.514c-1.381-.484-2.5-1.008-2.5-2.369s1.008-1.865,2.5-2.016Zm1.482,8.245v-5.1c1.27.5,2.288,1.179,2.288,2.7A2.369,2.369,0,0,1,508.433,400.425Z" transform="translate(-34.491 -131.117)"/><path class="a" d="M549.819,367.354A335.7,335.7,0,0,1,522.6,394.368l2.581,1.068c.474-4.727,7.57-8.921,10.5-12.328,3.79-4.395,7.389-9.687,13.326-11.158l-1.7-2.218a35.459,35.459,0,0,1-12.1,14.3c-1.593,1.1-.081,3.72,1.522,2.611a38.3,38.3,0,0,0,13.225-15.392,1.532,1.532,0,0,0-1.754-2.238c-7.167,1.774-11.088,8.064-15.785,13.225-3.78,4.183-9.657,7.056-10.271,13.174-.141,1.4,1.693,1.855,2.58,1.068a335.724,335.724,0,0,0,27.216-27.014c1.3-1.451-.837-3.588-2.137-2.137Z" transform="translate(-34.328 -131.259)"/><line class="f" y1="35.431" x2="5.161" transform="translate(1090.074 307.592)"/><line class="f" y1="36.479" x2="10.402" transform="translate(1067.263 306.977)"/><line class="f" y1="35.431" x2="5.161" transform="translate(1105.708 307.42)"/><line class="f" y1="35.431" x2="5.161" transform="translate(1123.278 308.035)"/><line class="f" y1="35.431" x2="5.161" transform="translate(1143.296 308.025)"/><line class="f" x1="34.503" y1="27.992" transform="translate(1117.431 307.007)"/><line class="f" x1="44.029" y1="32.407" transform="translate(1098.37 307.42)"/><line class="f" x1="47.386" y1="35.401" transform="translate(1075.892 308.065)"/><line class="f" x1="34.503" y1="27.992" transform="translate(1071.285 317.621)"/><line class="f" x1="20.553" y1="11.431" transform="translate(1069.521 331.592)"/><rect class="g" width="300.753" height="255.344" transform="translate(592.844 144.358)"/><rect class="e" width="226.797" height="156.793" transform="translate(634.837 243.806)"/><line class="h" x2="187.435" transform="translate(650.007 220.622)"/><rect class="i" width="300.905" height="12.096" transform="translate(592.844 141.999)"/><rect class="i" width="300.905" height="12.096" transform="translate(592.844 157.119)"/><rect class="i" width="300.905" height="12.096" transform="translate(594.053 172.239)"/><path class="a" d="M751.385,142l224.771,84.671H538.69Z" transform="translate(-8.684 -82.656)"/><rect class="i" width="114.296" height="27.73" transform="translate(691.244 95.632)"/><ellipse class="a" cx="11.904" cy="12.308" rx="11.904" ry="12.308" transform="translate(602.601 387.192)"/><ellipse class="a" cx="11.904" cy="12.308" rx="11.904" ry="12.308" transform="translate(546.567 387.192)"/><path class="a" d="M744.723,531.366H697.741a5.221,5.221,0,0,1-5.121-5.3V413.724a5.383,5.383,0,0,1,4.616-5.5,5.151,5.151,0,0,1,5.534,5.231V520.893h41.69a5.312,5.312,0,0,1,5.322,4.778,5.181,5.181,0,0,1-5.06,5.7Z" transform="translate(-32.967 -130.929)"/><path class="a" d="M678.563,485.4c-10.695-18.144-38.808-66.89-39.09-67.384a7.953,7.953,0,0,0-6.844-4.032h-45.42a8.145,8.145,0,0,0-8,8.276v45.168H566.324a5.624,5.624,0,0,0-5.534,5.705v57.556a1.572,1.572,0,0,0,1.552,1.6H573.1a.383.383,0,0,0,.383-.413c-.534-11.33,8.165-20.724,18.94-20.724,10.453,0,18.96,8.85,18.96,19.736a1.431,1.431,0,0,0,.4,1.008,1.29,1.29,0,0,0,.957.413h16.2a.383.383,0,0,0,.383-.413c-.535-11.33,8.165-20.724,18.94-20.724s19.474,9.395,18.94,20.724a.383.383,0,0,0,.373.413h10.261a2.016,2.016,0,0,0,2.016-2.087V489.136A7.359,7.359,0,0,0,678.563,485.4Zm-44.876.131v-8.064a2.349,2.349,0,0,0-2.308-2.389H618V452.616a2.349,2.349,0,0,0-2.308-2.389h-7.318a2.359,2.359,0,0,0-2.318,2.389v32.951H594.971V430.229h33.485l31.852,55.339Z" transform="translate(-34.02 -130.882)"/><path class="a" d="M748.152,511.793H712.479a2.52,2.52,0,0,1-2.469-2.55V472.37a2.52,2.52,0,0,1,2.469-2.56h35.673a2.51,2.51,0,0,1,2.459,2.56v36.872a2.51,2.51,0,0,1-2.46,2.55Z" transform="translate(-32.828 -130.436)"/><path class="a" d="M748.152,459.733H712.48a2.51,2.51,0,0,1-2.47-2.55V420.31a2.51,2.51,0,0,1,2.47-2.55h35.673a2.5,2.5,0,0,1,2.46,2.55v36.872a2.5,2.5,0,0,1-2.46,2.55Z" transform="translate(-32.828 -130.852)"/><ellipse class="d" cx="11.562" cy="11.783" rx="11.562" ry="11.783" transform="translate(547.595 388.352)"/><ellipse class="d" cx="11.562" cy="11.783" rx="11.562" ry="11.783" transform="translate(604.748 387.223)"/><rect class="a" width="44.13" height="44.462" rx="5.12" transform="translate(756.219 357.094)"/><rect class="a" width="44.13" height="44.462" rx="5.12" transform="translate(810.65 357.094)"/><rect class="a" width="44.13" height="44.462" rx="5.12" transform="translate(756.219 311.734)"/><rect class="a" width="44.13" height="44.462" rx="5.12" transform="translate(810.65 311.734)"/><rect class="i" width="37.88" height="10.312" rx="5.12" transform="translate(759.242 320.927)"/><rect class="i" width="37.88" height="10.312" rx="5.12" transform="translate(813.674 320.927)"/><rect class="i" width="37.88" height="10.312" rx="5.12" transform="translate(759.242 367.295)"/><rect class="i" width="37.88" height="10.312" rx="5.12" transform="translate(813.674 367.295)"/><rect class="i" width="37.88" height="10.312" rx="5.12" transform="translate(678.603 293.712)"/><rect class="i" width="37.88" height="10.312" rx="5.12" transform="translate(677.595 347.135)"/><rect class="i" width="57.032" height="10.312" rx="5.12" transform="translate(257.264 337.055)"/></g></svg>