<svg xmlns="http://www.w3.org/2000/svg" width="1072.782" height="407.443" viewBox="0 0 1072.782 407.443"><defs><style>.a{fill:#415eaa;}.b,.f,.h{fill:#4dbfc3;}.c{fill:#2c4b9f;}.d{fill:#af9243;}.e{fill:#f91206;stroke:#415eaa;}.e,.f,.h{stroke-miterlimit:10;}.f{stroke:#4ddde0;}.g{fill:#f90e08;}.h{stroke:#af9243;stroke-width:6px;}</style></defs><g transform="translate(-3.089)"><rect class="a" width="48.569" height="1072.782" transform="translate(3.089 407.443) rotate(-90)"/><rect class="b" width="1072.782" height="14.604" transform="translate(3.089 355.334)"/><path class="c" d="M159.727,440.827v-.455h12.36a5.077,5.077,0,0,0,5.029-5.039V422.287a5.068,5.068,0,0,0-5.029-5.029h-12.36v-13.54a5.077,5.077,0,0,0-5.029-5.039H124.03a3.655,3.655,0,0,0-2.747.919,6.554,6.554,0,0,0-2.747-.919H87.879a5.087,5.087,0,0,0-5.039,5.039v13.037a5.087,5.087,0,0,0,5.039,5.039h12.35V435.75H87.879a5.087,5.087,0,0,0-5.039,5.039v13.047a5.087,5.087,0,0,0,5.039,5.029h12.35V472.4a5.087,5.087,0,0,0,5.039,5.039h30.658a3.636,3.636,0,0,0,2.747-.919,6.605,6.605,0,0,0,2.747.919h30.668a5.077,5.077,0,0,0,5.029-5.039V459.357a5.068,5.068,0,0,0-5.029-5.029h-12.36v-13.54Zm-35.7-37.718H154.7a.493.493,0,0,1,.455.455V416.61a.493.493,0,0,1-.455.455H124.262a.5.5,0,0,1-.464-.455V403.525a.272.272,0,0,1,.232-.455Zm0,18.995H135.7a.493.493,0,0,1,.455.455V435.6a.493.493,0,0,1-.454.455H105.239a.493.493,0,0,1-.455-.455V422.519a.483.483,0,0,1,.455-.454H124Zm-36.151-4.836a.5.5,0,0,1-.464-.464V403.757a.5.5,0,0,1,.464-.464h30.658a.5.5,0,0,1,.464.464v13.037a.5.5,0,0,1-.464.464H87.879Zm0,37.525a.493.493,0,0,1-.464-.455V441.282a.5.5,0,0,1,.464-.455h30.658a.5.5,0,0,1,.464.455v13.047a.493.493,0,0,1-.464.455H87.879Zm48.047,18.762H105.239a.484.484,0,0,1-.455-.455V460.044a.493.493,0,0,1,.455-.455H135.7a.493.493,0,0,1,.455.455v13.047c.232.232.029.455-.232.455Zm0-18.985H124.262a.5.5,0,0,1-.464-.464V441.059a.5.5,0,0,1,.464-.464H154.7a.5.5,0,0,1,.455.464v13.056a.5.5,0,0,1-.455.464H135.926Zm36.161,4.836a.493.493,0,0,1,.455.464v13.037a.493.493,0,0,1-.455.464H141.419a.5.5,0,0,1-.455-.464V459.822a.5.5,0,0,1,.455-.464h30.668Zm-17.408-23.337H141.419a.493.493,0,0,1-.455-.455v-13.1a.493.493,0,0,1,.455-.454h30.668a.483.483,0,0,1,.455.454v13.047a.493.493,0,0,1-.455.454Z" transform="translate(-76.627 -116.045)"/><path class="c" d="M235.157,440.827v-.455h12.35a5.087,5.087,0,0,0,5.039-5.039V422.287a5.077,5.077,0,0,0-5.039-5.029h-12.35v-13.54a5.087,5.087,0,0,0-5.039-5.039H199.46a3.637,3.637,0,0,0-2.747.919,6.605,6.605,0,0,0-2.747-.919H163.3a5.078,5.078,0,0,0-5.029,5.039v13.037a5.078,5.078,0,0,0,5.029,5.039h12.36V435.75H163.3a5.078,5.078,0,0,0-5.029,5.039v13.047a5.078,5.078,0,0,0,5.029,5.029h12.36V472.4a5.077,5.077,0,0,0,5.029,5.039h30.668a3.655,3.655,0,0,0,2.747-.919,6.556,6.556,0,0,0,2.747.919h30.658a5.087,5.087,0,0,0,5.039-5.039V459.357a5.078,5.078,0,0,0-5.039-5.029h-12.35v-13.54Zm-35.7-37.718h30.658a.493.493,0,0,1,.464.455V416.61a.5.5,0,0,1-.464.455H199.683a.493.493,0,0,1-.455-.455V403.525c-.232-.232,0-.455.232-.455Zm0,18.995h11.664a.493.493,0,0,1,.464.455V435.6a.5.5,0,0,1-.464.455H180.688a.493.493,0,0,1-.455-.455V422.519a.493.493,0,0,1,.455-.455H199.46ZM163.3,417.268a.5.5,0,0,1-.455-.464V403.757a.5.5,0,0,1,.454-.464h30.668a.5.5,0,0,1,.455.464v13.037a.5.5,0,0,1-.455.464H163.3Zm0,37.525a.493.493,0,0,1-.455-.454V441.282a.493.493,0,0,1,.455-.455h30.668a.493.493,0,0,1,.455.455v13.046a.493.493,0,0,1-.455.455H163.3Zm48.057,18.762H180.688a.493.493,0,0,1-.455-.455V460.044a.493.493,0,0,1,.455-.455h30.436a.5.5,0,0,1,.464.455v13.047c.222.232,0,.455-.232.455Zm0-18.985H199.683a.5.5,0,0,1-.455-.464V441.059a.5.5,0,0,1,.455-.464h30.436a.5.5,0,0,1,.464.464v13.056a.5.5,0,0,1-.464.464H211.356Zm36.151,4.836a.5.5,0,0,1,.464.464v13.037a.5.5,0,0,1-.464.464H216.849a.493.493,0,0,1-.455-.464V459.822a.493.493,0,0,1,.455-.464h30.658ZM230.1,436.069h-13.25a.494.494,0,0,1-.455-.455V422.519a.484.484,0,0,1,.455-.455h30.658a.493.493,0,0,1,.464.455v13.047a.5.5,0,0,1-.464.455Z" transform="translate(-79.106 -116.045)"/><path class="c" d="M309.757,440.827v-.455h12.36a5.087,5.087,0,0,0,5.039-5.039V422.287a5.077,5.077,0,0,0-5.039-5.029h-12.36v-13.54a5.077,5.077,0,0,0-5.029-5.039H274.06a3.655,3.655,0,0,0-2.747.919,6.517,6.517,0,0,0-2.747-.919H237.909a5.087,5.087,0,0,0-5.039,5.039v13.037a5.087,5.087,0,0,0,5.039,5.039h12.36V435.75h-12.36a5.087,5.087,0,0,0-5.039,5.039v13.047a5.087,5.087,0,0,0,5.039,5.029h12.36V472.4a5.077,5.077,0,0,0,5.029,5.039h30.668a3.656,3.656,0,0,0,2.747-.919,6.518,6.518,0,0,0,2.747.919h30.658a5.087,5.087,0,0,0,5.039-5.039V459.357a5.077,5.077,0,0,0-5.039-5.029h-12.36v-13.54Zm-35.7-37.718h30.668a.483.483,0,0,1,.454.455V416.61a.493.493,0,0,1-.455.455H274.292a.493.493,0,0,1-.455-.455V403.525c-.222-.232,0-.455.222-.455Zm0,18.995h11.673a.483.483,0,0,1,.455.455V435.6a.493.493,0,0,1-.455.455H255.3a.493.493,0,0,1-.455-.455V422.519a.483.483,0,0,1,.455-.454H274.06Zm-36.151-4.836a.493.493,0,0,1-.455-.464V403.757a.493.493,0,0,1,.455-.464h30.658a.5.5,0,0,1,.464.464v13.037a.5.5,0,0,1-.464.464H237.909Zm0,37.525a.484.484,0,0,1-.455-.455V441.282a.493.493,0,0,1,.455-.455h30.658a.5.5,0,0,1,.464.455v13.047a.493.493,0,0,1-.464.455H237.909Zm48.057,18.762H255.3a.484.484,0,0,1-.455-.455V460.044a.493.493,0,0,1,.455-.455h30.436a.493.493,0,0,1,.455.455v13.047c.232.232,0,.455-.222.455Zm0-18.985H274.292a.493.493,0,0,1-.455-.464V441.059a.493.493,0,0,1,.455-.464h30.436a.494.494,0,0,1,.455.464v13.056a.494.494,0,0,1-.455.464H285.966Zm36.151,4.836a.5.5,0,0,1,.464.464v13.037a.5.5,0,0,1-.464.464H291.459a.5.5,0,0,1-.464-.464V459.822a.5.5,0,0,1,.464-.464h30.658Zm-17.408-23.337h-13.25a.5.5,0,0,1-.464-.455v-13.1a.493.493,0,0,1,.464-.454h30.658a.493.493,0,0,1,.464.454v13.047a.5.5,0,0,1-.464.455Z" transform="translate(-81.558 -116.045)"/><path class="c" d="M172.157,364.637v-.454h12.36a5.087,5.087,0,0,0,5.039-5.039V346.1a5.078,5.078,0,0,0-5.039-5.029h-12.36v-13.54a5.077,5.077,0,0,0-5.029-5.039H136.46a3.655,3.655,0,0,0-2.747.967,6.518,6.518,0,0,0-2.747-.967H100.309a5.087,5.087,0,0,0-5.039,5.039v13.047a5.087,5.087,0,0,0,5.039,5.029h12.35V359.56h-12.35A5.087,5.087,0,0,0,95.27,364.6v13.047a5.077,5.077,0,0,0,5.039,5.029h12.35v13.54a5.087,5.087,0,0,0,5.039,5.039h30.668a3.656,3.656,0,0,0,2.737-.9,6.518,6.518,0,0,0,2.737.919h30.668a5.087,5.087,0,0,0,5.039-5.039V383.177a5.087,5.087,0,0,0-5.039-5.039h-12.35V364.6Zm-35.7-37.718h30.668a.493.493,0,0,1,.455.454v13.018a.493.493,0,0,1-.455.455H136.692a.484.484,0,0,1-.455-.455V327.335c-.232-.223,0-.484.222-.484Zm0,18.994h11.673a.484.484,0,0,1,.455.455v13.047a.493.493,0,0,1-.455.454H117.7a.494.494,0,0,1-.455-.455V346.33a.484.484,0,0,1,.455-.455H136.46Zm-36.151-4.836a.5.5,0,0,1-.464-.455V327.567a.493.493,0,0,1,.464-.455h30.658a.493.493,0,0,1,.464.455v13.047a.5.5,0,0,1-.464.454H100.309Zm0,37.525a.493.493,0,0,1-.464-.493V365.092a.5.5,0,0,1,.464-.455h30.658a.5.5,0,0,1,.464.455v13.018a.493.493,0,0,1-.464.455H100.309Zm48.057,18.772H117.7a.493.493,0,0,1-.455-.464V383.854a.493.493,0,0,1,.455-.454h30.436a.493.493,0,0,1,.455.454V396.9c.232.232,0,.464-.222.464Zm0-18.994H136.692a.493.493,0,0,1-.455-.464V364.869a.493.493,0,0,1,.455-.464h30.436a.5.5,0,0,1,.455.464v13.037a.5.5,0,0,1-.455.464H148.366Zm36.151,4.836a.483.483,0,0,1,.455.455v13.008a.493.493,0,0,1-.455.455H153.849a.493.493,0,0,1-.455-.455V383.632a.493.493,0,0,1,.455-.455h30.668Zm-17.408-23.347H153.849a.493.493,0,0,1-.455-.455V346.33a.493.493,0,0,1,.455-.455h30.668a.484.484,0,0,1,.455.455v13.047a.494.494,0,0,1-.455.455Z" transform="translate(-77.035 -113.541)"/><path class="c" d="M324.157,435.68v.455l-12.36.048a5.068,5.068,0,0,0-5.019,5.048v13.037a5.078,5.078,0,0,0,5.048,5.02h12.36v13.5a5.087,5.087,0,0,0,5.058,5.02l30.658-.1a3.637,3.637,0,0,0,2.747-.967,6.384,6.384,0,0,0,2.747.9l30.668-.1a5.077,5.077,0,0,0,5.019-5.048l-.048-13.047a5.078,5.078,0,0,0-5.048-5.01h-12.36V440.477h12.36a5.087,5.087,0,0,0,5.019-5.048l-.048-13.047a5.087,5.087,0,0,0-4.99-5.01l-12.36.048v-13.5a5.077,5.077,0,0,0-5.048-5.019l-30.668.1a3.616,3.616,0,0,0-2.737.919,6.574,6.574,0,0,0-2.756-.909l-30.658.1a5.087,5.087,0,0,0-5.019,5.058V417.2a5.077,5.077,0,0,0,5.048,5.019h12.36v.455Zm35.784,37.65-30.668.1a.5.5,0,0,1-.454-.464V459.926a.483.483,0,0,1,.454-.464h30.436a.5.5,0,0,1,.454.464v13.037c.271.135.019.367-.184.367Zm-.058-18.995H348.21a.5.5,0,0,1-.464-.464V440.835a.5.5,0,0,1,.455-.464h30.436a.5.5,0,0,1,.464.455v13.047a.493.493,0,0,1-.455.464H359.883Zm36.171,4.69a.493.493,0,0,1,.455.455v13.047a.493.493,0,0,1-.455.455l-30.658.1a.493.493,0,0,1-.464-.455V459.578a.493.493,0,0,1,.455-.455l13.269-.048,17.408-.048Zm-.087-37.534a.5.5,0,0,1,.464.464v13.037a.493.493,0,0,1-.455.464l-17.408.048-13.279.048a.493.493,0,0,1-.454-.455V422.053a.493.493,0,0,1,.454-.464h13.269Zm-48.115-18.627,30.668-.1a.493.493,0,0,1,.464.455V416.27a.493.493,0,0,1-.454.455h-30.4a.493.493,0,0,1-.464-.455V403.223C347.4,403.117,347.61,402.865,347.852,402.865Zm.068,18.995h11.664a.493.493,0,0,1,.464.455v13.047a.493.493,0,0,1-.455.454H329.157a.484.484,0,0,1-.455-.455l-.048-13.047a.493.493,0,0,1,.455-.455H347.92Zm-36.171-4.691a.5.5,0,0,1-.464-.464V403.668a.493.493,0,0,1,.455-.464l30.668-.1a.493.493,0,0,1,.455.455v13.047a.493.493,0,0,1-.455.464H329.138Zm17.486,23.3H342.5a.493.493,0,0,1,.455.455l.048,13.047a.493.493,0,0,1-.464.455l-13.269.048-17.408.048a.493.493,0,0,1-.464-.455V441.028a.5.5,0,0,1,.455-.464Z" transform="translate(-83.985 -116.053)"/><path class="c" d="M332.787,364.4v-.455h12.35a5.087,5.087,0,0,0,5.039-5.039V345.867a5.087,5.087,0,0,0-5.039-5.039h-12.35v-13.54a5.077,5.077,0,0,0-5.039-5.029H297.08a3.647,3.647,0,0,0-2.747.909,6.5,6.5,0,0,0-2.737-.909H260.929a5.077,5.077,0,0,0-5.039,5.029v13.095a5.077,5.077,0,0,0,5.039,5.029h12.36v13.965h-12.36a5.077,5.077,0,0,0-5.039,5.029v13.047a5.087,5.087,0,0,0,5.039,5.039h12.36v13.54a5.077,5.077,0,0,0,5.029,5.029h30.668a3.655,3.655,0,0,0,2.747-.919,6.383,6.383,0,0,0,2.747.919h30.658a5.087,5.087,0,0,0,5.039-5.029V382.937a5.087,5.087,0,0,0-5.039-5.039h-12.35v-13.54ZM297.08,326.679h30.668a.493.493,0,0,1,.455.464V340.18a.493.493,0,0,1-.455.464H297.312a.493.493,0,0,1-.455-.464V327.1c-.242-.261,0-.464.223-.464Zm0,18.995h11.673a.493.493,0,0,1,.455.455v13.047a.483.483,0,0,1-.455.454H278.318a.493.493,0,0,1-.455-.454V346.09a.493.493,0,0,1,.455-.455H297.08Zm-36.151-4.836a.484.484,0,0,1-.455-.455V327.327a.493.493,0,0,1,.455-.455H291.6a.493.493,0,0,1,.454.455v13.056a.493.493,0,0,1-.454.455Zm0,37.534a.493.493,0,0,1-.455-.464V364.862a.493.493,0,0,1,.455-.464H291.6a.5.5,0,0,1,.454.464V377.9a.5.5,0,0,1-.454.464H260.929Zm48.057,18.762H278.318a.493.493,0,0,1-.455-.455V383.624a.493.493,0,0,1,.455-.455h30.436a.483.483,0,0,1,.455.455v13.047c.232.222-.019.455-.222.455Zm0-18.994H297.312a.493.493,0,0,1-.455-.455V364.63a.484.484,0,0,1,.455-.455h30.436a.484.484,0,0,1,.455.455v13.047a.493.493,0,0,1-.455.455H308.986Zm36.151,4.836a.5.5,0,0,1,.464.455v13.047a.493.493,0,0,1-.464.455H314.479a.493.493,0,0,1-.455-.455V383.392a.5.5,0,0,1,.464-.455h30.658Zm-17.408-23.347h-13.25a.493.493,0,0,1-.464-.454V346.09a.5.5,0,0,1,.464-.455h30.658a.5.5,0,0,1,.464.455v13.047a.493.493,0,0,1-.464.455Z" transform="translate(-82.315 -113.533)"/><ellipse class="a" cx="16.625" cy="20.339" rx="16.625" ry="20.339" transform="translate(737.587 115.524)"/><path class="a" d="M849.707,450.209h-15.4v18.376c0,6.509,4.313,11.78,9.671,11.78s9.671-5.271,9.671-11.78V449.6A12.57,12.57,0,0,1,849.707,450.209Z" transform="translate(-101.326 -117.719)"/><path class="a" d="M917.406,332.33l.339-1.093a44.785,44.785,0,0,0-7.486-3l-.116.387-15.523-7.138-.087-23.724c-.048-12.737-8.569-23.1-18.985-23.1H832.482c-10.406,0-18.927,10.368-18.975,23.1-.319,77.593-.319,72.361-.252,73.154-3.23,0-5.348,3.027-5.348,6.325v9.323h-13.54c-4.594,0-8.317,4.565-8.317,10.184v29.014c0,5.619,3.724,10.174,8.317,10.174h53.782c4.594,0,8.317-4.555,8.317-10.174V396.751c0-5.619-3.724-10.184-8.317-10.184H834.61v-9.323c0-3.288-2.1-6.325-5.348-6.325.068-.716,0,4.507.348-73.057v-.329a1.712,1.712,0,1,1,3.366,0v67.7c4.091,1.8,6.905,6.306,6.905,12.815h8.308a12.571,12.571,0,0,1,3.868.6V368.7h4.159v12.128c4.255,3.3,7.157,9.246,7.157,15.919v29.014c0,6.712-2.9,12.573-7.273,15.909v21.161c0,6.509,4.314,11.78,9.671,11.78s9.672-5.271,9.672-11.78V297.861a1.75,1.75,0,0,1,1.547-1.886,1.731,1.731,0,0,1,1.547,1.876h0l.116,30.484c0,4.072,2.079,7.737,5.2,9.149l20.726,9.526-.1.319h0a4.179,4.179,0,0,1,2.041.706,7.63,7.63,0,0,1,1.1.967l1.2.455c.493.155.967.3,1.48.416l.222.058h-.193a4.721,4.721,0,0,1,1.586.416l.077-.232c3.511.387,6.934-2.1,8.23-6.325A11.132,11.132,0,0,0,917.406,332.33Zm-68.541,64.924a3.29,3.29,0,0,1,0,6.451h-22.95v5.909a2.263,2.263,0,0,1-2,2.447h-5.367a2.263,2.263,0,0,1-2-2.447V403.7H792.771c-1.451,0-2.63-1.451-2.63-3.23a2.972,2.972,0,0,1,2.63-3.22Zm-19.6-19.207v8.52H813.178v-8.52h3.569a7.021,7.021,0,0,0,4.439,1.673h0a7.011,7.011,0,0,0,4.478-1.673Z" transform="translate(-99.74 -111.969)"/><path class="a" d="M431.74,242.46a21.277,21.277,0,0,0,42.5,0Z" transform="translate(-88.094 -110.911)"/><path class="a" d="M503.951,293.939A24.4,24.4,0,0,0,479.6,269.76h-11.49c-1.344,3.5-10.822,28.279-12.128,31.683l2.9-13.54a4.1,4.1,0,0,0-.416-2.785l-3.936-7.157,3.5-6.373a1.4,1.4,0,0,0-1.219-2.108H447.2a1.422,1.422,0,0,0-1.248,2.108l3.5,6.373-4.014,7.167a4.013,4.013,0,0,0-.416,2.737l2.5,13.54c-2.292-5.88-9.671-25.735-12-31.683H424.25A24.41,24.41,0,0,0,399.9,293.9l-.377,75.6a10.291,10.291,0,0,0,10.242,10.339h.048A10.29,10.29,0,0,0,420.1,369.6l.377-75.591h0a2.041,2.041,0,0,1,4.081,0v173.01a12.35,12.35,0,1,0,24.691,0v-98.7h5.339v98.7a12.35,12.35,0,1,0,24.691,0c0-15.474-.222-173.842-.222-173.291a2.157,2.157,0,1,1,4.313,0,2.506,2.506,0,0,1,0,.271v75.591a10.29,10.29,0,0,0,10.29,10.29h0A10.29,10.29,0,0,0,503.98,369.6Z" transform="translate(-87.035 -111.799)"/><path class="a" d="M476.88,229.345h-1.219A23.724,23.724,0,0,0,460,212.9v5.31a2.485,2.485,0,0,1-2.485,2.486h-1.934V209.77a2.935,2.935,0,1,0-5.87,0v10.9h-1.934a2.486,2.486,0,0,1-2.486-2.486v-5.232a23.7,23.7,0,0,0-15.426,16.441h-1.441a3.037,3.037,0,1,0,0,6.074h48.424a3.037,3.037,0,0,0,0-6.074Z" transform="translate(-87.886 -109.74)"/><path class="a" d="M362.12,162.47H394.7l-12.128,31.683h-8.453Z" transform="translate(-13.687 -5.34)"/><path class="b" d="M357.11,162.21v20.861H363.9l-1.944-20.61Z" transform="translate(-13.522 -5.332)"/><path class="b" d="M390.9,183.08h9.942l-1.509-20.61h-3.685Z" transform="translate(-14.633 -5.34)"/><path class="d" d="M438.227,290.22h42.767v172H454.939v-94h-3.927a.387.387,0,0,0-.387.4l.387,93.812-27.3-1.75V290.22Z" transform="translate(-87.831 -112.48)"/><circle class="e" cx="3.511" cy="3.511" r="3.511" transform="translate(343.471 175.95)"/><circle class="e" cx="3.511" cy="3.511" r="3.511" transform="translate(377.727 175.312)"/><path class="f" d="M472,408l8.617-25.145a3.124,3.124,0,0,1,2-1.528,3.52,3.52,0,0,1,2.9.658l7.176,5.252v-3.7a1.934,1.934,0,0,1,1.151-1.75l3.163-1.934c-1.151-1.934-.58-4.149,1.431-5.677l11.77-8.085c2.582-1.741,6.605-1.741,8.9.222l.571.435a4.048,4.048,0,0,1-.28,6.77l-11.77,8.076a6.867,6.867,0,0,1-4.3,1.315h-.29c-.58,0-1.151-.222-1.721-.222l-2.9,1.751v6.983l10.909,8.3a1.731,1.731,0,0,1,.861,2.186,2.225,2.225,0,0,1-2.012,1.528l-32.438,7.428H474.9a3.065,3.065,0,0,1-2.011-.658A1.818,1.818,0,0,1,472,408Zm30.426-29.913.58.435a1.027,1.027,0,0,0,.571.222,1.045,1.045,0,0,0,.58-.222l11.48-8.076c.281-.222.281-.435,0-.658l-.58-.435a.638.638,0,0,0-.861,0l-11.77,8.076a.371.371,0,0,0,.029.658Zm-.57,22.06-6.315-4.836-6.025,4.362a3.4,3.4,0,0,1-4.023,0,1.789,1.789,0,0,1,0-3.056l6.035-4.149-6.316-4.836-6.315,17.679Z" transform="translate(-89.414 -114.932)"/><path class="a" d="M593.12,314h8.066v11.809H593.12Z" transform="translate(-93.399 -113.262)"/><path class="a" d="M609.79,314h8.066v11.809H609.79Z" transform="translate(-93.947 -113.262)"/><path class="a" d="M626.46,314h8.066v11.809H626.46Z" transform="translate(-94.494 -113.262)"/><path class="a" d="M593.12,338.45h8.066v11.818H593.12Z" transform="translate(-93.399 -114.066)"/><path class="a" d="M609.79,338.45h8.066v11.818H609.79Z" transform="translate(-93.947 -114.066)"/><path class="a" d="M626.46,338.45h8.066v11.818H626.46Z" transform="translate(-94.494 -114.066)"/><path class="a" d="M643.13,338.45H651.2v11.818H643.13Z" transform="translate(-95.042 -114.066)"/><path class="a" d="M659.81,338.45h8.056v11.818H659.81Z" transform="translate(-95.591 -114.066)"/><path class="a" d="M593.12,362.88h8.066v11.809H593.12Z" transform="translate(-93.399 -114.869)"/><path class="a" d="M609.79,362.88h8.066v11.809H609.79Z" transform="translate(-93.947 -114.869)"/><path class="a" d="M626.46,362.88h8.066v11.809H626.46Z" transform="translate(-94.494 -114.869)"/><path class="a" d="M643.13,362.88H651.2v11.809H643.13Z" transform="translate(-95.042 -114.869)"/><path class="a" d="M659.81,362.88h8.056v11.809H659.81Z" transform="translate(-95.591 -114.869)"/><path class="a" d="M593.12,387.3h8.066v11.809H593.12Z" transform="translate(-93.399 -115.671)"/><path class="a" d="M609.79,387.3h8.066v11.809H609.79Z" transform="translate(-93.947 -115.671)"/><path class="a" d="M626.46,387.3h8.066v11.809H626.46Z" transform="translate(-94.494 -115.671)"/><path class="a" d="M643.13,387.3H651.2v11.809H643.13Z" transform="translate(-95.042 -115.671)"/><path class="a" d="M659.81,387.3h8.056v11.809H659.81Z" transform="translate(-95.591 -115.671)"/><path class="a" d="M593.12,411.72h8.066v11.809H593.12Z" transform="translate(-93.399 -116.474)"/><path class="a" d="M609.79,411.72h8.066v11.809H609.79Z" transform="translate(-93.947 -116.474)"/><path class="a" d="M626.46,411.72h8.066v11.809H626.46Z" transform="translate(-94.494 -116.474)"/><path class="a" d="M643.13,411.72H651.2v11.809H643.13Z" transform="translate(-95.042 -116.474)"/><path class="a" d="M659.81,411.72h8.056v11.809H659.81Z" transform="translate(-95.591 -116.474)"/><path class="a" d="M593.12,436.14h8.066v11.818H593.12Z" transform="translate(-93.399 -117.277)"/><path class="a" d="M609.79,436.14h8.066v11.818H609.79Z" transform="translate(-93.947 -117.277)"/><path class="a" d="M626.46,436.14h8.066v11.818H626.46Z" transform="translate(-94.494 -117.277)"/><path class="a" d="M643.13,436.14H651.2v11.818H643.13Z" transform="translate(-95.042 -117.277)"/><path class="a" d="M659.81,436.14h8.056v11.818H659.81Z" transform="translate(-95.591 -117.277)"/><path class="a" d="M760.088,124.158H731.877V112.349c0-3.259-1.8-5.909-4.023-5.909h-40.32c-2.224,0-4.033,2.65-4.033,5.909v11.809H526.3c-2.234,0-4.033,2.64-4.033,5.909v23.617c0,3.259,1.8,5.9,4.033,5.9h12.089V271.771c0,3.259,1.809,5.9,4.033,5.9s4.023,2.65,4.023,5.909-1.8,5.909-4.023,5.909-4.033-2.64-4.033-5.909h-8.066a22.853,22.853,0,0,0,3.085,11.7l-10.339,20.194.058.058a7.6,7.6,0,0,0-.861,3.482v23.627a7.485,7.485,0,0,0,1.18,4.168l8.056,11.809a3.549,3.549,0,0,0,2.853,1.731h16.122a3.521,3.521,0,0,0,2.853-1.731L561.4,346.83a7.485,7.485,0,0,0,1.18-4.168V319.016a7.6,7.6,0,0,0-.861-3.482l.048-.058-10.339-20.184a23.821,23.821,0,0,0,2.708-16.161c-.967-5.706-3.869-10.3-7.737-12.244v-107.3H683.52v5.909c0,3.259,1.809,5.9,4.033,5.9h8.056V448.96H679.468V212.728h-8.056v23.627H647.233V224.536h-8.066v11.818H614.989v-5.909h-8.066v5.909H582.745V218.637h52.419V206.828H582.735V183.211h-8.066v265.72h-6.392l-18.975-27.8c-1.577-2.3-4.12-2.3-5.7,0l-18.975,27.8h-2.36v11.809H764.121V448.931h-3.143a23.71,23.71,0,0,0,2.65-16.828c-1.218-5.909-4.391-10.455-8.462-12.012,2.05-7.4.474-15.89-3.868-20.745s-10.339-4.836-14.672,0-5.919,13.346-3.869,20.745c-4.062,1.557-7.273,6.112-8.462,12.012a23.872,23.872,0,0,0,2.66,16.828h-7.176V171.364h8.066c2.224,0,4.023-2.64,4.023-5.9v-5.909h28.221c2.224,0,4.033-2.64,4.033-5.9V130.067C764.121,126.8,762.312,124.158,760.088,124.158Zm-215.67,177.15,6.045,11.809h-16.1l6.025-11.809ZM554.495,340.2l-5.7,8.346H536.032l-5.706-8.346V324.925H554.5ZM742.757,136l-10.88,10.638V136Zm-51.19-17.718H707.7V141.9H691.567ZM582.735,137.146l10.88,10.638h-21.77ZM558.557,146.6l-10.89-10.638H569.4Zm37.486-10.638h21.77L606.923,146.6Zm35.068,1.18,10.88,10.638h-21.76ZM644.4,136h21.77l-10.88,10.638Zm-114.073,0h2.824l12.07,11.78H530.326Zm138.3,11.809L680.677,136h2.843V147.8ZM711.76,429.472,704.5,413.524l7.263-15.938Zm0-141.714L704.5,271.81l7.263-15.938Zm-8.066,3.54,7.254,15.938-7.254,15.948Zm0-38.975V220.407l7.254,15.948Zm0,109.837,7.254,15.938-7.254,15.948Zm8.066-3.578L704.5,342.672l7.263-15.948ZM704.5,200.938,711.76,185v31.915Zm-.841-19.488V171.393h4.565Zm-32.244,66.732v59H647.233v-59Zm-32.254,0v50.784l-9.265-13.424a3.549,3.549,0,0,0-2.824-1.712H614.979V248.183Zm-32.244,0v9.836H582.735v-9.836Zm-60.465,185.5,10.426,15.271H536.032Zm36.287,15.271V269.818h24.178V289.77c0,3.269,1.808,5.909,4.033,5.909h14.507l14.952,21.664a3.511,3.511,0,0,0,2.824,1.7H671.45V448.931ZM703.626,433l7.254,15.948h-7.254Zm48.357,10.039c-2.225,0-4.024-2.64-4.024-5.9s1.8-5.909,4.024-5.909,4.072,2.64,4.072,5.89-1.8,5.9-4.033,5.9Zm-8.057-35.426c2.224,0,4.033,2.64,4.033,5.9s-1.77,5.851-3.994,5.851-4.033-2.64-4.033-5.909,1.808-5.861,4.033-5.861Zm-8.066,23.617c2.224,0,4.033,2.64,4.033,5.909s-1.809,5.9-4.033,5.9-4.033-2.64-4.033-5.9,1.847-5.928,4.072-5.928ZM723.772,159.6H691.567v-5.9h20.155c2.224,0,4.023-2.64,4.023-5.909V118.249h8.066Zm21.364-11.809,10.88-10.638v10.638Z" transform="translate(-91.07 -106.44)"/><circle class="g" cx="6.296" cy="6.296" r="6.296" transform="translate(654.656 324.589)"/><ellipse class="g" cx="5.426" cy="8.153" rx="5.426" ry="8.153" transform="translate(647.431 300.391)"/><path class="b" d="M995.567,287.565l-9.913,25.813,1.76.677-4.4,3.549-.89-5.58,1.77.677,9.913-25.813-1.76-.677,4.391-3.549.89,5.58Zm-34.13,32.264-.677,1.76-22.331-8.579.677-1.77-5.59.89,3.559,4.4.677-1.76,22.389,8.6-.677,1.77,5.58-.89-3.55-4.4Zm26.228,25.01c-.309.193-.6.377-.909.542-7.737,4.313-15.7,8.395-23.521,12.64L902.5,334.683,942.152,231.5l79.083,30.387-1.267,3.288-6.47,16.838-9.178,23.9-8.7,22.737L992.4,337C991.215,339.993,990.519,342.991,987.665,344.838Zm-6.77-3.646-10.29-3.956-4.391,11.441Zm33.221-76.113-68.792-26.432L909.637,331.54,959.493,350.7l6.925-18.047a2.776,2.776,0,0,1,3.588-1.6l16.345,6.286h0ZM968.6,269.267c.106,0,.251.155.358.193L998.208,280.7a.967.967,0,1,0,.677-1.76l-29.227-11.228a.967.967,0,0,0-1.19.619,1.024,1.024,0,0,0,0,.638Zm-26.76,9.488-6.606-2.534,32.467-7.737,18.936,27.486-7.05-2.708-8.578,22.331,12.109,4.652a.967.967,0,0,1-.677,1.77l-12.109-4.652-3.3,8.578a.967.967,0,1,1-1.76-.677l3.3-8.579-3.423-1.315,6.605-17.176-8.578-3.3-6.606,17.176-22.244-8.54-4.652,12.108a.967.967,0,1,1-1.76-.677Zm2.524,18.782,10.339,3.975,3.308-8.6-10.338-3.975Z" transform="translate(-103.567 -110.55)"/><circle class="a" cx="11.644" cy="11.644" r="11.644" transform="translate(809.358 215.98)"/><rect class="h" width="178.3" height="112.197" rx="12" transform="translate(877.319 249.346)"/><path class="d" d="M1085.306,418.69a78.381,78.381,0,0,0-8.985-5.987,19.748,19.748,0,0,1-4.932-4.072c-2.9-3.433-2.36-9.023,1.064-11.238a6.422,6.422,0,0,1,3.018-.909,16.808,16.808,0,0,1,11.354,3.308c1.789,1.267,2.379.87,2.989-1.876.638-2.9,1.17-5.861,1.76-8.782.4-1.934-.087-3.269-1.354-4.091a22.441,22.441,0,0,0-7.157-3.153c-3.25-.735-3.25-.754-3.259-5.561,0-6.77,0-6.77-4.633-6.77h-2c-2.157.087-2.524.648-2.583,3.869v4.313c0,4.246,0,4.178-2.795,5.658-6.683,3.569-10.8,10.271-11.248,21-.4,9.5,2.979,15.909,8.269,20.581,3.269,2.9,6.877,4.575,10.339,6.838a15.581,15.581,0,0,1,3.762,3.259c3.327,4.043,2.718,10.764-1.228,13.318a8.821,8.821,0,0,1-6.635,1.267,23.316,23.316,0,0,1-10.106-4.439c-1.866-1.431-2.408-1.054-3.046,1.934-.551,2.573-1.035,5.165-1.519,7.737-.658,3.482-.406,4.313,1.848,5.938a24.9,24.9,0,0,0,9.111,3.869c2.456.58,2.534.735,2.563,4.488V474.3c0,2.147.715,3.395,2.214,3.443h5.116c1.393-.048,2.109-1.17,2.109-3.24,0-2.331.078-4.671,0-6.992s.619-3.578,2.166-4.207c3.569-1.431,6.606-4.246,8.937-8.443C1096.98,443.178,1094.5,426.176,1085.306,418.69Z" transform="translate(-108.615 -115.088)"/><rect class="d" width="219.742" height="24.536" transform="translate(854.446 238.118)"/><circle class="g" cx="6.296" cy="6.296" r="6.296" transform="translate(638.534 324.376)"/></g></svg>