<svg xmlns="http://www.w3.org/2000/svg" width="1128.453" height="422.822" viewBox="0 0 1128.453 422.822"><defs><style>.a{fill:#f2f2f2;stroke-width:5px;}.a,.f{stroke:#c1272d;stroke-miterlimit:10;}.b{fill:#415eaa;}.c{fill:#ce135a;}.d,.f{fill:#4dbfc3;}.e{fill:#fff;}.f{stroke-width:0.75px;}</style></defs><g transform="translate(-7.615 -31.052)"><rect class="a" width="301.082" height="125.371" transform="translate(63.777 278.458)"/><path class="b" d="M453.818,160.178a39.63,39.63,0,0,0-55.187,0,37.6,37.6,0,0,0,0,54.008,39.629,39.629,0,0,0,55.187,0,37.6,37.6,0,0,0,0-54.008Zm-3.1,9.765a3.048,3.048,0,0,1,4.064,1.087,2.9,2.9,0,0,1-1.1,4.014,3.048,3.048,0,0,1-4.115-1.077,2.916,2.916,0,0,1,1.148-4.024Zm-57.513,17.274a3.048,3.048,0,1,1,3.048,2.937,2.977,2.977,0,0,1-3.048-2.977Zm8.515,17.274a3.048,3.048,0,0,1-4.065-1.087,2.916,2.916,0,0,1,1.108-4.065,3.048,3.048,0,0,1,4.065,1.087,2.906,2.906,0,0,1-1.108,3.993Zm1.108-30.484a3.048,3.048,0,0,1-4.065,1.077,2.917,2.917,0,0,1-1.108-4.014,3.049,3.049,0,0,1,4.065-1.087,2.906,2.906,0,0,1,1.108,3.983Zm6.889-14.846a3.048,3.048,0,0,1,4.065,1.087,2.916,2.916,0,0,1-1.108,4.065,3.048,3.048,0,0,1-4.065-1.087,2.927,2.927,0,0,1,1.108-4.065Zm-2.591,20.323,3.048-4.877,18.788,10.446V210.68h-6.1V188.03Zm6.7,34.549a3.048,3.048,0,0,1-4.064,1.087,2.916,2.916,0,0,1-1.108-4.065,3.048,3.048,0,0,1,4.065-1.077,2.916,2.916,0,0,1,1.108,4.105Zm12.4,5.406a2.937,2.937,0,1,1,3.048-2.937,2.977,2.977,0,0,1-3.048,2.987Zm0-58.743a2.937,2.937,0,1,1,3.048-2.937,2.977,2.977,0,0,1-3.048,2.987Zm16.512,54.4a3.048,3.048,0,0,1-4.065-1.077,2.906,2.906,0,0,1,1.1-4.065,3.048,3.048,0,0,1,4.115,1.087,2.916,2.916,0,0,1-1.148,4.105Zm1.108-51.874a3.048,3.048,0,0,1-4.115,1.087,2.906,2.906,0,0,1-1.1-4.065,3.049,3.049,0,0,1,4.065-1.077,2.906,2.906,0,0,1,1.148,4.054Zm10.974,40.127a3.048,3.048,0,0,1-4.115,1.087,2.937,2.937,0,0,1-1.108-4.065,3.049,3.049,0,0,1,4.065-1.087,2.916,2.916,0,0,1,1.158,4.044Zm1.423-13.21a2.937,2.937,0,1,1,3-2.937,2.967,2.967,0,0,1-3,2.906Z" transform="translate(-80.637 -117.942)"/><path class="b" d="M596.489,389.259c-.163-.508-17.183-50.594-24.682-74.056-4.827-15.141-12.935-22.812-24.093-22.812H512.789c-11.177,0-19.368,7.672-24.225,22.812-7.53,23.463-24.641,73.548-24.8,74.056-2.032,5.812.8,12.255,6.239,14.378s11.442-.864,13.433-6.686c.142-.417,11.868-34.762,20.231-60.044a12.753,12.753,0,0,0,4.288,6.483v16.431l-18.016,48.632a4.735,4.735,0,0,0,3.048,6.28c2.683.691,6.249,1.636,10.111,2.672v89.634c0,5.955,3.4,11.421,8.6,13.21,8.637,2.916,16.553-4.065,16.553-13.118v-83.5a24.028,24.028,0,0,0,4.837,0v83.242c0,7.326,5.223,13.626,11.9,13.738s12.285-5.863,12.285-13.261V417.4c3.841-1.016,7.387-2.032,10.06-2.672a4.746,4.746,0,0,0,3.048-6.28l-17.925-48.622V343.39a12.723,12.723,0,0,0,4.268-6.483c8.322,25.282,19.987,59.627,20.13,60.044,1.971,5.822,7.956,8.81,13.362,6.686S598.47,395.071,596.489,389.259Z" transform="translate(-79.412 -115.627)"/><ellipse class="b" cx="22.325" cy="24.489" rx="22.325" ry="24.489" transform="translate(428.653 119.463)"/><path class="c" d="M502.52,498.786v5.934c0,5.985,3.4,11.472,8.6,13.21,8.637,2.937,16.553-4.065,16.553-13.21V497.8C519.266,498,510.893,498.206,502.52,498.786Z" transform="translate(-78.775 -112.312)"/><path class="c" d="M532,497.723v6.849c0,7.357,5.223,13.687,11.9,13.8s12.285-5.894,12.285-13.321V496.92C548.167,497.367,540.129,497.55,532,497.723Z" transform="translate(-78.3 -112.326)"/><path class="c" d="M596.489,389.706c-.163-.508-17.183-50.807-24.682-74.4-4.827-15.242-12.935-22.914-24.093-22.914H512.789c-11.177,0-19.368,7.712-24.225,22.914-7.53,23.574-24.641,73.894-24.8,74.4-2.032,5.843.8,12.305,6.239,14.449s11.442-.874,13.433-6.717c.142-.417,11.868-34.925,20.231-60.328a12.792,12.792,0,0,0,4.288,6.513v16.512l-18.016,48.856a4.766,4.766,0,0,0,3.048,6.31c2.683.691,6.249,1.646,10.111,2.683v5.9c18.138,1.077,36.093-2.906,54.17-5.345V418c3.841-1.016,7.387-2.032,10.06-2.683a4.786,4.786,0,0,0,3.048-6.31l-17.925-48.846V343.644a12.762,12.762,0,0,0,4.268-6.514c8.322,25.4,19.988,59.952,20.13,60.328,1.971,5.843,7.957,8.851,13.362,6.717S598.47,395.548,596.489,389.706Z" transform="translate(-79.412 -115.627)"/><path class="b" d="M861.14,357.541v32.313h20.394V357.541H891.7v32.313h56.69V357.541h10.161v32.313h19.307V358.506a14.633,14.633,0,0,0-10.395-13.8l-31.267-8.617a21.054,21.054,0,0,1-33.289,0l-31.317,8.617C865.316,346.414,861.14,351.576,861.14,357.541Z" transform="translate(-72.988 -114.922)"/><path class="b" d="M943.313,292.566v-12.8c0-10.69-7.967-20.221-19.307-22.355-15.618-2.9-29.387,8.129-29.387,21.989v13.474c0,13.9,13.769,24.885,29.387,22C935.347,312.818,943.313,303.3,943.313,292.566Z" transform="translate(-72.447 -116.199)"/><path class="d" d="M909.091,314.8v4.522c1.189,1.7,4.512,5.67,9.633,5.67s8.434-3.973,9.633-5.67V314.8a36.052,36.052,0,0,1-19.306,0Z" transform="translate(-72.214 -115.266)"/><path class="d" d="M835.275,244.91l-5.345,48.622,12.021,11.116,9.359-11.116L840.62,244.91Z" transform="translate(7.8 -39.076)"/><path class="b" d="M244.342,382.719l-.7-98.159-20.821.061.711,98.688Q233.947,383.064,244.342,382.719Z" transform="translate(-83.29 -115.754)"/><path class="b" d="M213.023,383.667l-.752-104.977H191.45l.762,105.191Q202.607,383.83,213.023,383.667Z" transform="translate(-83.796 -115.848)"/><rect class="e" width="26.42" height="111.775" transform="translate(71.632 152.995)"/><path class="b" d="M186.078,381.039,185.276,269l-31.836.091.8,111.6Q170.156,381.06,186.078,381.039Zm-11.543-72.41H163.52l-.051-6.839h11.015Zm-.091-12.925H163.429l-.051-6.849h11.015Zm-.112-12.976H163.317l-.051-6.849h11.015Z" transform="translate(-84.409 -116.005)"/><rect class="d" width="341.636" height="26.867" transform="translate(42.499 265.878)"/><rect class="e" width="52.839" height="52.839" rx="3.1" transform="translate(238.279 212.947)"/><path class="b" d="M376.381,326.6H317.1a.64.64,0,0,1-.579-.671v-3.526c0-2.987,2.083-5.406,4.644-5.406h51.152c2.571,0,4.644,2.418,4.644,5.406v3.526A.64.64,0,0,1,376.381,326.6Zm-2.774,4.481H320.432a1.27,1.27,0,0,0-1.158,1.351v44.517c0,2.977,2.032,5.416,4.633,5.416h46.214c2.551,0,4.644-2.439,4.644-5.416V332.435a1.28,1.28,0,0,0-1.158-1.352Zm-19.815,23.7H340.1a2.093,2.093,0,0,1-1.961-1.971,2.144,2.144,0,0,1,1.91-2.51h13.677a2.1,2.1,0,0,1,1.971,1.971,2.154,2.154,0,0,1-1.91,2.51Z" transform="translate(-81.777 -115.23)"/><path class="f" d="M919.844,271.23a239.542,239.542,0,0,1-25.251,1.941,20.186,20.186,0,0,0-.153,3.15c.376,11.96,11.452,21.288,24.733,20.821s23.757-10.527,23.371-22.487a18.808,18.808,0,0,0-.264-2.632C934.832,271.484,927.343,271.261,919.844,271.23Z" transform="translate(-72.45 -115.969)"/><path class="b" d="M802.42,365.875a40.641,40.641,0,0,0-3.739-16.065l2.246-.742.965,2.957a2.266,2.266,0,0,0,2.286,1.626,2.225,2.225,0,0,0,1.961-2.906l-2.032-6.1a2.3,2.3,0,0,0-2.3-1.626,2.225,2.225,0,0,0-1.951,2.906l.661,2.032-2.4.793a40.807,40.807,0,0,0-6.432-9.369l2.561-2.276,2.032,2.388a2.317,2.317,0,0,0,2.744.63,2.235,2.235,0,0,0,.691-3.445l-4.156-4.847a2.266,2.266,0,0,0-2.733-.63,2.235,2.235,0,0,0-.7,3.445l1.372,1.6-2.6,2.307a40.643,40.643,0,0,0-9.6-7.347l1.291-2.225,2.622,1.474A2.3,2.3,0,0,0,788,330.1a2.225,2.225,0,0,0-.528-3.465l-5.457-3.109a2.286,2.286,0,0,0-2.784.346,2.225,2.225,0,0,0,.518,3.475l1.951,1.087-1.311,2.266a40.321,40.321,0,0,0-14.633-4.308v-.081H748.484v-13.6A5.711,5.711,0,0,0,742.773,307H723.324a5.223,5.223,0,0,0-5.182,4.065,5.081,5.081,0,0,0,4.949,6.1h2.032v44.151a5.579,5.579,0,0,0,2.52,4.623h-1.087a6.514,6.514,0,0,0-6.514,6.513V376.7a6.514,6.514,0,0,0,6.514,6.513h75.377a6.493,6.493,0,0,0,6.5-6.5v-4.349A6.5,6.5,0,0,0,802.42,365.875Zm-72.227-6.859a1.189,1.189,0,0,1-1.168,1.148c-.64,0-1.148-.518-.864-1.148V320.952c-.285-.63.224-1.138.864-1.138a1.179,1.179,0,0,1,1.168,1.138Zm59.566-9.338a1.077,1.077,0,0,1-.549.142,1.148,1.148,0,0,1-1.016-.589c-6.767-12.468-21.014-14.815-21.156-14.836a1.142,1.142,0,0,1,.356-2.256c.63.091,15.486,2.52,22.812,15.994A1.138,1.138,0,0,1,789.759,349.678Z" transform="translate(-75.297 -115.392)"/><rect class="e" width="68.081" height="57.92" transform="translate(947.544 121.495)"/><path class="b" d="M1074.575,263.308h-19.1v18.209h19.1Zm-6.1-38.908v5.792h-32.12V224.4h-9.552v5.792h-5.081a7.753,7.753,0,0,0-7.916,7.55v51.122a7.753,7.753,0,0,0,7.916,7.55h60.562a7.764,7.764,0,0,0,7.926-7.55V237.742a7.764,7.764,0,0,0-7.926-7.55h-4.268V224.4Zm13.891,64.566h-59.952V249.234h59.952Z" transform="translate(-70.524 -116.725)"/><rect class="d" width="26.755" height="27.415" transform="translate(980.742 141.848)"/><rect class="e" width="64.017" height="64.017" rx="3.1" transform="translate(1026.803 336.916)"/><path class="c" d="M1166.486,453.517h-76.474a.741.741,0,0,1-.752-.732v-3.861a5.954,5.954,0,0,1,5.985-5.924h65.988a5.954,5.954,0,0,1,5.985,5.924v3.861A.742.742,0,0,1,1166.486,453.517Zm-3.577,4.918H1094.32a1.483,1.483,0,0,0-1.493,1.473v48.714a5.975,5.975,0,0,0,5.985,5.924h59.607a5.975,5.975,0,0,0,5.986-5.924V459.909a1.484,1.484,0,0,0-1.494-1.473Zm-25.555,25.942H1119.7a2.52,2.52,0,0,1-2.53-2.154,2.458,2.458,0,0,1,2.459-2.754h17.65a2.54,2.54,0,0,1,2.52,2.144,2.469,2.469,0,0,1-2.459,2.744Z" transform="translate(-69.306 -113.197)"/><rect class="b" width="34.193" height="1128.453" transform="translate(7.615 453.874) rotate(-90)"/><rect class="c" width="1127.864" height="14.46" transform="translate(7.686 405.15)"/><rect class="d" width="173.76" height="95.497" transform="translate(126.504 308.332)"/><rect class="a" width="301.082" height="125.371" transform="translate(629.767 280.49)"/><rect class="d" width="341.636" height="26.867" transform="translate(608.489 267.91)"/><rect class="d" width="173.76" height="95.497" transform="translate(692.493 310.365)"/></g></svg>