<svg xmlns="http://www.w3.org/2000/svg" xmlns:xlink="http://www.w3.org/1999/xlink" width="393" height="390.394" viewBox="0 0 393 390.394"><defs><style>.a{fill:url(#a);}</style><linearGradient id="a" x1="0.5" x2="0.5" y2="1" gradientUnits="objectBoundingBox"><stop offset="0" stop-color="#fc91d1"/><stop offset="1" stop-color="#ac0072"/></linearGradient></defs><g transform="translate(-0.586 -1)"><path class="a" d="M393.586,67.657,326.93,1H154.313V51.373H122.829A31.519,31.519,0,0,0,91.346,82.857V187.293L57.672,220.968a43.868,43.868,0,0,0-12.31,23.921l-3.973,23.845-6.712,6.712-6.3-6.3L.586,296.943l84.463,84.463,8.941-8.941a31.514,31.514,0,0,0,28.839,18.928H299.136a31.519,31.519,0,0,0,31.483-31.483V328.427h62.967ZM330.619,22.5l41.47,41.47h-41.47Zm-207.79,41.47h31.483v37.78H122.829a18.89,18.89,0,0,1,0-37.78ZM108.391,208.028a2.707,2.707,0,0,1-4.452-1.845v-98.3a31.158,31.158,0,0,0,18.89,6.46h6.3v72.953ZM53.151,274.779l4.634-27.825a31.344,31.344,0,0,1,8.79-17.089L91.346,205.1v1.083a15.2,15.2,0,0,0,25.949,10.748l37.56-37.56a7.062,7.062,0,0,1,12.052,4.993,7,7,0,0,1-2.065,4.993l-52.76,52.76,8.9,8.9,52.76-52.76,12.593-12.593a7.062,7.062,0,0,1,12.052,4.993,7,7,0,0,1-2.065,4.993l-12.593,12.593-52.76,52.76,8.9,8.9,52.76-52.76a7.062,7.062,0,0,1,9.987,9.987l-12.593,12.593L149.861,279.9l8.9,8.9,40.166-40.166a7.062,7.062,0,0,1,9.986,9.987l-50.5,50.5a31.306,31.306,0,0,1-17.083,8.79L113.5,322.546,97.643,338.413,43.58,284.35ZM18.393,296.943l9.987-9.987,66.656,66.657L85.049,363.6Zm85.786,65.334,8.664-8.664-6.3-6.3,13.009-13.009,9.571-1.593V378.8h-6.3A18.851,18.851,0,0,1,104.179,362.277Zm213.847-2.368a18.913,18.913,0,0,1-18.89,18.89H141.719V330.612l1.694-.283a43.872,43.872,0,0,0,23.915-12.31l50.5-50.5a19.629,19.629,0,0,0-5.994-31.855,19.564,19.564,0,0,0-6.3-31.477,19.613,19.613,0,0,0-14.205-33.177,19.77,19.77,0,0,0-13.519,5.447,19.629,19.629,0,0,0-31.861-5.988l-4.231,4.231V114.34h132.23a18.913,18.913,0,0,1,18.89,18.89v66.115l25.187,18.89ZM305.433,193.048V139.527h50.373v151.12H330.619V211.938Zm25.187,122.785V303.24H368.4V126.933H304.8a31.537,31.537,0,0,0-30.847-25.187H166.906V13.593h151.12V76.56h62.967V315.833Z"/><path class="a" d="M55.593,53A12.606,12.606,0,0,0,43,65.593V78.187A12.606,12.606,0,0,0,55.593,90.78H68.187A12.606,12.606,0,0,0,80.78,78.187V65.593A12.606,12.606,0,0,0,68.187,53ZM68.187,78.187H55.593l-.013-12.593H68.187Z" transform="translate(224.653 275.427)"/><path class="a" d="M60.187,53H47.593A12.606,12.606,0,0,0,35,65.593V78.187A12.606,12.606,0,0,0,47.593,90.78H60.187A12.606,12.606,0,0,0,72.78,78.187V65.593A12.606,12.606,0,0,0,60.187,53Zm0,25.187H47.593l-.013-12.593H60.187Z" transform="translate(182.279 275.427)"/><path class="a" d="M29,5H154.933V17.593H29Z" transform="translate(150.499 21.187)"/><path class="a" d="M29,9H154.933V21.593H29Z" transform="translate(150.499 42.373)"/><path class="a" d="M29,13H154.933V25.593H29Z" transform="translate(150.499 63.56)"/><path class="a" d="M57,17H69.593V29.593H57Z" transform="translate(298.806 84.747)"/><path class="a" d="M53,17H65.593V29.593H53Z" transform="translate(277.619 84.747)"/><path class="a" d="M49,17H61.593V29.593H49Z" transform="translate(256.433 84.747)"/><path class="a" d="M25,21H37.593V33.593H25Z" transform="translate(129.313 105.933)"/><path class="a" d="M29,21H41.593V33.593H29Z" transform="translate(150.499 105.933)"/><path class="a" d="M33,21H45.593V33.593H33Z" transform="translate(171.686 105.933)"/></g></svg>