<svg xmlns="http://www.w3.org/2000/svg" xmlns:xlink="http://www.w3.org/1999/xlink" width="418" height="418" viewBox="0 0 418 418"><defs><style>.a{fill:url(#a);}</style><linearGradient id="a" x1="0.5" x2="0.5" y2="1" gradientUnits="objectBoundingBox"><stop offset="0" stop-color="#fc91d1"/><stop offset="1" stop-color="#ac0072"/></linearGradient></defs><path class="a" d="M460.774,391.844v-50.92l-19.5-4.984c-.135-.329-.27-.658-.411-.984l10.268-17.306-36.008-36.008L397.812,291.91c-.332-.142-.662-.277-.984-.411L391.844,272h-50.92l-4.984,19.5c-.329.135-.658.27-.984.411L317.65,281.649l-36.008,36.008,10.268,17.306c-.142.332-.277.662-.411.984L272,340.93v50.92l19.5,4.984c.135.329.27.658.411.984l-10.268,17.306,36.008,36.007,17.306-10.268c.332.142.662.277.984.411l4.984,19.5h50.92l4.984-19.5c.329-.135.658-.27.984-.411l17.306,10.268,36.007-36.008-10.268-17.306c.142-.332.277-.662.411-.984Zm-26.583,21.151-21.2,21.2-14.409-8.549-3.243,1.551a67.458,67.458,0,0,1-6.426,2.663l-3.4,1.2-4.138,16.229H351.4l-4.138-16.229-3.4-1.2a63.563,63.563,0,0,1-6.426-2.663l-3.243-1.551-14.409,8.549-21.2-21.2,8.549-14.409-1.551-3.243a67.45,67.45,0,0,1-2.663-6.426l-1.2-3.4-16.236-4.138V351.4l16.229-4.138,1.2-3.4a63.563,63.563,0,0,1,2.663-6.426l1.551-3.243-8.549-14.409,21.2-21.2,14.409,8.549,3.243-1.551a67.453,67.453,0,0,1,6.426-2.663l3.4-1.2,4.138-16.236h29.983l4.138,16.229,3.4,1.2a63.555,63.555,0,0,1,6.426,2.663l3.243,1.551,14.409-8.549,21.2,21.2-8.549,14.409,1.551,3.243a67.461,67.461,0,0,1,2.663,6.426l1.2,3.4,16.236,4.138v29.983l-16.229,4.138-1.2,3.4a63.555,63.555,0,0,1-2.663,6.426l-1.551,3.243Zm0,0" transform="translate(-42.774 -42.774)"/><path class="a" d="M373.936,320a53.936,53.936,0,1,0,53.935,53.936A54,54,0,0,0,373.936,320Zm0,94.387a40.452,40.452,0,1,1,40.452-40.452A40.492,40.492,0,0,1,373.936,414.387Zm0,0" transform="translate(-50.323 -50.323)"/><path class="a" d="M378.968,352a26.968,26.968,0,1,0,26.968,26.968A26.994,26.994,0,0,0,378.968,352Zm0,40.452a13.484,13.484,0,1,1,13.484-13.484A13.5,13.5,0,0,1,378.968,392.452Zm0,0" transform="translate(-55.355 -55.355)"/><path class="a" d="M194.645,114.155A40.518,40.518,0,0,0,205.936,131.2v5.718l-32.057,12.019A33.857,33.857,0,0,0,152,180.495v35.247H313.807V180.495a33.876,33.876,0,0,0-21.872-31.567l-32.064-12.019V131.2a40.437,40.437,0,0,0,11.291-17.043,26.958,26.958,0,0,0,22.418-26.51V60.677a60.677,60.677,0,0,0-121.355,0V87.645a26.958,26.958,0,0,0,22.418,26.51Zm51.743,25.559L232.9,162.185,219.42,139.714v-.494a39.695,39.695,0,0,0,26.968,0Zm-36.6,10.152,13.592,22.645-13.5,6.749L201.149,153.1Zm90.539,30.628v21.763H165.485V180.495a20.318,20.318,0,0,1,13.125-18.939l9.912-3.713L202,198.281l30.9-15.452,30.9,15.452,13.477-40.438,9.919,3.72a20.306,20.306,0,0,1,13.118,18.932ZM264.658,153.1l-8.724,26.165-13.5-6.749,13.593-22.652ZM232.9,128.1a26.994,26.994,0,0,1-26.968-26.968V73.7A52.189,52.189,0,0,0,232.9,62.942,52.133,52.133,0,0,0,259.872,73.7v27.425A26.994,26.994,0,0,1,232.9,128.1Zm40.452-28.841V76.041a13.363,13.363,0,0,1,0,23.215ZM232.9,13.484A47.251,47.251,0,0,1,280.1,60.678v3.75a26.672,26.672,0,0,0-13.484-3.75h-1.159a39.015,39.015,0,0,1-27.784-11.509L232.9,44.4l-4.767,4.773a39.026,39.026,0,0,1-27.784,11.509h-1.159a26.673,26.673,0,0,0-13.484,3.75v-3.75A47.251,47.251,0,0,1,232.9,13.484ZM192.452,76.035V99.25a13.363,13.363,0,0,1,0-23.215Zm0,0" transform="translate(-23.903)"/><path class="a" d="M0,463.29H134.839V288H0ZM13.484,301.484H121.355V449.806H13.484Zm0,0" transform="translate(0 -45.29)"/><path class="a" d="M32,320h80.9v13.484H32Zm0,0" transform="translate(-5.032 -50.323)"/><path class="a" d="M32,352H45.484v13.484H32Zm0,0" transform="translate(-5.032 -55.355)"/><path class="a" d="M64,352h53.935v13.484H64Zm0,0" transform="translate(-10.065 -55.355)"/><path class="a" d="M32,384h80.9v13.484H32Zm0,0" transform="translate(-5.032 -60.387)"/><path class="a" d="M32,416h80.9v13.484H32Zm0,0" transform="translate(-5.032 -65.419)"/><path class="a" d="M112,448h13.484v13.484H112Zm0,0" transform="translate(-17.613 -70.452)"/><path class="a" d="M32,448H85.935v13.484H32Zm0,0" transform="translate(-5.032 -70.452)"/><path class="a" d="M205.955,355.877l-9.534-9.534-31.735,31.735,31.735,31.735,9.534-9.534L190.5,384.82H241.64V371.336H190.5Zm0,0" transform="translate(-25.898 -54.465)"/><path class="a" d="M85.484,119.562a6.751,6.751,0,0,1,6.742-6.742h30.918l-15.459,15.459,9.534,9.534,31.735-31.735L117.218,74.344l-9.534,9.534,15.459,15.459H92.226A20.252,20.252,0,0,0,72,119.562V240.917H85.484Zm0,0" transform="translate(-11.323 -11.691)"/><path class="a" d="M376.452,124.226V209.08l-15.459-15.459-9.534,9.534,31.735,31.735,31.735-31.735-9.534-9.534L389.935,209.08V124.226A20.252,20.252,0,0,0,369.71,104H336v13.484h33.71a6.751,6.751,0,0,1,6.742,6.742Zm0,0" transform="translate(-52.839 -16.355)"/></svg>