<svg xmlns="http://www.w3.org/2000/svg" xmlns:xlink="http://www.w3.org/1999/xlink" width="326.999" height="327" viewBox="0 0 326.999 327"><defs><style>.a{fill:url(#a);}</style><linearGradient id="a" x1="0.5" x2="0.5" y2="1" gradientUnits="objectBoundingBox"><stop offset="0" stop-color="#fc91d1"/><stop offset="1" stop-color="#ac0072"/></linearGradient></defs><path class="a" d="M127.7,229.856h43.417v25.539H127.7Zm-47.888-3.191a15.962,15.962,0,1,0,15.962,15.962A15.96,15.96,0,0,0,79.811,226.665Zm176.862-77.9H127.7v25.539H256.673ZM79.811,145.576a15.962,15.962,0,1,0,15.962,15.962A15.96,15.96,0,0,0,79.811,145.576ZM256.673,72.149H127.7V97.688H256.673ZM79.811,68.955A15.963,15.963,0,1,0,95.773,84.917,15.962,15.962,0,0,0,79.811,68.955ZM25.539,288.6V38.309A12.784,12.784,0,0,1,38.31,25.538H288.6a12.784,12.784,0,0,1,12.768,12.771v144.3h25.539V38.309A38.353,38.353,0,0,0,288.6,0H38.31A38.355,38.355,0,0,0,0,38.309V288.6a38.353,38.353,0,0,0,38.31,38.308H185.8V301.366H38.31A12.784,12.784,0,0,1,25.539,288.6Zm283.4,38.4-25.432-25.432A57.528,57.528,0,1,1,302,283.94l25,25ZM254.12,284.127A31.925,31.925,0,1,0,222.194,252.2,31.959,31.959,0,0,0,254.12,284.127Zm0,0" transform="translate(0 0.002)"/></svg>