<svg xmlns="http://www.w3.org/2000/svg" xmlns:xlink="http://www.w3.org/1999/xlink" width="396.996" height="466.202" viewBox="0 0 396.996 466.202"><defs><style>.a{fill:url(#a);}</style><linearGradient id="a" x1="0.5" x2="0.5" y2="1" gradientUnits="objectBoundingBox"><stop offset="0" stop-color="#fc91d1"/><stop offset="1" stop-color="#ac0072"/></linearGradient></defs><g transform="translate(0 0.001)"><path class="a" d="M396.534,126.492l-.014-.362c-.2-4.478-.338-9.217-.42-14.488a49.41,49.41,0,0,0-46.524-48.4c-53.6-2.991-95.067-20.47-130.5-55l-.3-.288a29.836,29.836,0,0,0-40.549,0l-.3.288c-35.43,34.533-76.9,52.012-130.5,55.006a49.407,49.407,0,0,0-46.523,48.4c-.078,5.236-.217,9.973-.42,14.484l-.021.842C-.576,181.63-1.871,249.654,20.886,311.4c12.513,33.953,31.464,63.468,56.323,87.73,28.313,27.63,65.4,49.565,110.219,65.194a34.142,34.142,0,0,0,4.517,1.23,33.363,33.363,0,0,0,13.117,0,34.244,34.244,0,0,0,4.535-1.237c44.769-15.658,81.814-37.6,110.1-65.229,24.849-24.268,43.8-53.79,56.323-87.751C398.864,249.4,397.572,181.253,396.534,126.492ZM350.355,301.868c-24,65.076-73,109.768-149.785,136.622a6.873,6.873,0,0,1-.868.235,6.139,6.139,0,0,1-2.4,0,6.815,6.815,0,0,1-.861-.231c-76.87-26.8-125.9-71.471-149.881-136.55C25.581,245.027,26.769,182.583,27.818,127.5l.007-.306c.213-4.735.356-9.693.434-15.142a21.961,21.961,0,0,1,20.7-21.494C79.289,88.86,105.937,83,130.422,72.634c24.454-10.35,46.171-24.941,66.389-44.6a2.522,2.522,0,0,1,3.385,0c20.221,19.662,41.939,34.252,66.388,44.6C291.07,83,317.718,88.86,348.054,90.553a21.956,21.956,0,0,1,20.694,21.5c.082,5.477.224,10.436.437,15.138C370.231,182.341,371.391,244.835,350.355,301.868Zm0,0" transform="translate(0 0)"/><path class="a" d="M206.582,128.41A116.186,116.186,0,1,0,322.767,244.594,116.316,116.316,0,0,0,206.582,128.41Zm0,205.013a88.829,88.829,0,1,1,88.825-88.829A88.928,88.928,0,0,1,206.582,333.423Zm0,0" transform="translate(-8.086 -11.486)"/><path class="a" d="M245.634,216l-53.965,53.964-14.647-14.647a13.678,13.678,0,1,0-19.346,19.342L182,298.981a13.678,13.678,0,0,0,19.342,0l63.639-63.638A13.678,13.678,0,0,0,245.634,216Zm0,0" transform="translate(-13.746 -18.963)"/></g></svg>