<svg xmlns="http://www.w3.org/2000/svg" width="289.13" height="307.34" viewBox="0 0 289.13 307.34"><defs><style>.a{opacity:0.3;}.b{fill:#fff;}</style></defs><g class="a" transform="matrix(0.891, -0.454, 0.454, 0.891, -36.235, 109.67)"><g transform="translate(19.833)"><path class="b" d="M260.4,233.642V75.748a8.879,8.879,0,0,0-2.827-6.548L185.7,2.381A9.224,9.224,0,0,0,179.595,0H68.429A8.955,8.955,0,0,0,59.5,8.929v99.707a8.929,8.929,0,1,0,17.858,0V17.858h90.778V86.313a8.955,8.955,0,0,0,8.929,8.929h63.991a5.067,5.067,0,0,0,1.488-.149V224.713H77.358V189A8.929,8.929,0,0,0,59.5,189v44.645a8.955,8.955,0,0,0,8.929,8.929H251.473A8.955,8.955,0,0,0,260.4,233.642ZM185.994,27.085l54.02,50.3h-54.02Z" transform="translate(-38.666 0)"/><path class="b" d="M19.833,234.869a8.955,8.955,0,0,0,8.929,8.929h93.01l-28.721,25.6A8.931,8.931,0,0,0,99,285.02a9.268,9.268,0,0,0,5.952-2.232l46.431-41.371a8.8,8.8,0,0,0,2.977-6.7,9.034,9.034,0,0,0-2.977-6.7l-46.43-41.371a8.96,8.96,0,1,0-11.9,13.393l29.168,25.894H28.762A8.955,8.955,0,0,0,19.833,234.869Z" transform="translate(-19.833 -87.54)"/></g></g></svg>