<svg xmlns="http://www.w3.org/2000/svg" width="59.415" height="50" viewBox="0 0 59.415 50"><defs><style>.a{fill:#d05c02;}</style></defs><g transform="translate(0 -6.348)"><path class="a" d="M35.854,14.93a10.8,10.8,0,0,1,5.024,8.021,8.71,8.71,0,1,0-5.024-8.021ZM30.145,32.771a8.713,8.713,0,1,0-8.715-8.713A8.714,8.714,0,0,0,30.145,32.771Zm3.7.594H26.448A11.17,11.17,0,0,0,15.291,44.523v9.042l.023.142.623.2a50.786,50.786,0,0,0,15.17,2.446c8.2,0,12.953-2.338,13.246-2.487l.582-.294H45V44.523A11.167,11.167,0,0,0,33.842,33.365Zm14.417-9H40.921a10.739,10.739,0,0,1-3.314,7.48,13.257,13.257,0,0,1,9.469,12.687v2.786C54.321,47.057,58.5,45,58.77,44.866l.582-.3h.062V35.526A11.169,11.169,0,0,0,48.258,24.37Zm-33.4-.593a8.656,8.656,0,0,0,4.634-1.345,10.784,10.784,0,0,1,4.054-6.878c.009-.163.024-.325.024-.489a8.713,8.713,0,1,0-8.712,8.712Zm7.826,8.073a10.745,10.745,0,0,1-3.312-7.438c-.272-.02-.541-.042-.819-.042H11.157A11.169,11.169,0,0,0,0,35.526V44.57l.023.139.623.2A52.31,52.31,0,0,0,13.21,47.267V44.536A13.26,13.26,0,0,1,22.681,31.85Z"/></g></svg>