<svg xmlns="http://www.w3.org/2000/svg" width="104.347" height="144.111" viewBox="0 0 104.347 144.111"><defs><style>.a{fill:#d05c02;}</style></defs><g transform="translate(-52.986)"><g transform="translate(52.986)"><path class="a" d="M300.119,138.436s0-40.579-.013-44.616c.013-3.684-.1-92.12-.1-92.12l-2.014-.009s-16.466,9.291-16.462,78.183c12.647,3.475,7.324,17.295,6.365,19.047,0,3.51.27,39.533.27,39.533l.039-.009a.261.261,0,0,0-.022.117,5.966,5.966,0,1,0,11.932,0,.1.1,0,0,0-.009-.1Z" transform="translate(-195.772 -1.056)"/><path class="a" d="M207.755,8.459l-3.579,0,1.06,37.482-4.3-.009V8.451l-3.139.009V46.17h-3.566V8.455l-3.461,0-.009,37.711h-4.216l1.205-37.724h-3.263l-3.969,31.906s-.1,1.2-.1,1.657a15.594,15.594,0,0,0,5.848,12.183C198.025,67.46,190,80.994,190,84.212c.009,3.558.009,58.345.009,58.345h.008c0,.043-.013.074-.017.126a6.083,6.083,0,0,0,12.165,0c0-.056-.022-.091-.022-.117h.009s.009-54.111.009-58.245c-.009-3.727-6.788-19.3,4.547-30.866a.8.8,0,0,1,.053-.072A15.625,15.625,0,0,0,211.626,43.1c.018-.286.009-1,.009-1Z" transform="translate(-132.604 -5.277)"/><path class="a" d="M73.91.009V0h-.344V.009C60.4.223,52.986,12.826,52.986,26.526c0,13.813,8.3,23.67,15.544,25.861,3.969,5.559,1.354,18.7-1.449,26.278v59.164h.013a1.09,1.09,0,0,0-.013.126,6.156,6.156,0,0,0,6.156,6.156h1a6.158,6.158,0,0,0,6.156-6.156.6.6,0,0,0-.013-.126H80.4V78.665c-2.8-7.577-5.417-20.719-1.452-26.278C86.191,50.2,94.49,40.34,94.494,26.526,94.494,12.826,87.076.223,73.91.009ZM67.039,47.036a19.594,19.594,0,0,1-2.969-2.982,34.09,34.09,0,0,1-3.361-4.881q-.791-1.432-1.491-3.049a19.213,19.213,0,0,1-1.057-3.49,23.133,23.133,0,0,1-.122-6.99,31.375,31.375,0,0,1,1.214-5.79,22.727,22.727,0,0,1,1.554-3.9,7.181,7.181,0,0,1,.844-1.362s-.081.588-.12,1.563-.081,2.378-.131,4.052c-.039,3.3-.312,7.786.305,11.773a15.822,15.822,0,0,0,.767,2.938c.3.99.66,1.968,1.048,2.906.741,1.892,1.541,3.647,2.228,5.159s1.317,2.755,1.8,3.6c.46.865.878,1.236.909,1.2A2.8,2.8,0,0,1,67.039,47.036Z" transform="translate(-52.986)"/></g></g></svg>