<svg xmlns="http://www.w3.org/2000/svg" width="144.111" height="144.111" viewBox="0 0 144.111 144.111"><defs><style>.a{fill:#d05c02;}</style></defs><path class="a" d="M57.235,47.021l-7.694,7.693L57.5,62.675l7.682-7.681a24.07,24.07,0,0,0,7.167,2.962V68.678H83.61V57.908a24.066,24.066,0,0,0,6.96-2.914l7.681,7.681,7.961-7.961-7.693-7.693a24.072,24.072,0,0,0,2.909-7.052H112.32V28.71H101.4a24.024,24.024,0,0,0-2.926-7.01l7.736-7.736L98.251,6,90.5,13.75a24.094,24.094,0,0,0-6.894-2.872V0H72.351V10.831a24.03,24.03,0,0,0-7.1,2.92L57.5,6l-7.961,7.961L57.277,21.7a24.064,24.064,0,0,0-2.926,7.009H43.333V39.969H54.326a24.06,24.06,0,0,0,2.909,7.052Zm10.05-20.06L70.444,23.8a12.934,12.934,0,0,1,20.327,9.45v2.283a12.946,12.946,0,1,1-23.486-8.574Zm-11.3,68.763a4.51,4.51,0,0,0,1.972,3.726,11.446,11.446,0,0,0,3.248,1.645c2.186.32,27.232,3,43.655,4.732l-1.183,11.2c-12.794-1.351-42.737-4.529-44.472-4.848a21.664,21.664,0,0,1-7.588-3.422,15.774,15.774,0,0,1-3.722-3.56l-.052.053L20.832,78.734a5.629,5.629,0,1,0-7.885,8.035l41.78,41a17.643,17.643,0,0,0,12.433,5.083h76.952v11.259H67.16a28.845,28.845,0,0,1-20.319-8.305l-41.779-41A16.888,16.888,0,0,1,28.719,70.7L46.613,88.26a15.774,15.774,0,0,1,13.88-8.3l38.942-.015c.281,0,.557,0,.836,0l-.066,5.622.067-5.622A66.417,66.417,0,0,1,138.3,92.409l5.815,4.16v13.845l-12.367-8.849A55.2,55.2,0,0,0,100.137,91.21c-.232,0-.461-.006-.7,0L60.5,91.221a4.507,4.507,0,0,0-4.506,4.5Zm0,0" transform="translate(-0.001)"/></svg>