<svg xmlns="http://www.w3.org/2000/svg" width="134.007" height="131.773" viewBox="0 0 134.007 131.773"><defs><style>.a{fill:#d05c02;}</style></defs><g transform="translate(0 -4)"><g transform="translate(0 4)"><path class="a" d="M134.007,50.9V46.436h-8.934V15.167a2.233,2.233,0,0,0-2.232-2.233H73.7a2.233,2.233,0,0,0-2.233,2.232h0V46.436h-6.7V15.167a2.233,2.233,0,0,0-2.232-2.233H13.4a2.233,2.233,0,0,0-2.233,2.232h0V46.436h-6.7V4H0V133.54a2.233,2.233,0,0,0,2.232,2.233H134.007v-4.467h-8.934V100.038a2.233,2.233,0,0,0-2.232-2.233H73.7a2.233,2.233,0,0,0-2.233,2.232h0v31.268h-6.7V100.038A2.233,2.233,0,0,0,62.538,97.8H13.4a2.233,2.233,0,0,0-2.233,2.232h0v31.268h-6.7V93.338h129.54V88.871h-8.934V57.6a2.233,2.233,0,0,0-2.232-2.233H73.7A2.233,2.233,0,0,0,71.47,57.6h0V88.871h-6.7V57.6a2.233,2.233,0,0,0-2.232-2.233H13.4A2.233,2.233,0,0,0,11.167,57.6h0V88.871h-6.7V50.9ZM93.8,17.4h8.934v8.934H93.8Zm-17.868,0h13.4V28.568A2.233,2.233,0,0,0,91.57,30.8h13.4a2.233,2.233,0,0,0,2.233-2.232h0V17.4h13.4V46.436H75.937ZM33.5,17.4h8.934v8.934H33.5Zm-17.868,0h13.4V28.568A2.233,2.233,0,0,0,31.267,30.8h13.4A2.233,2.233,0,0,0,46.9,28.569h0V17.4H60.3V46.436H15.634ZM93.8,102.272h8.934v8.934H93.8Zm-17.868,0h13.4v11.167a2.233,2.233,0,0,0,2.232,2.233h13.4a2.233,2.233,0,0,0,2.233-2.232h0V102.272h13.4v29.035H75.937Zm-42.436,0h8.934v8.934H33.5Zm-17.868,0h13.4v11.167a2.233,2.233,0,0,0,2.232,2.233h13.4A2.233,2.233,0,0,0,46.9,113.44h0V102.272H60.3v29.035H15.634ZM93.8,62.07h8.934V71H93.8ZM75.937,59.836h13.4v13.4A2.233,2.233,0,0,0,91.57,75.47h13.4a2.233,2.233,0,0,0,2.233-2.232h0v-13.4h13.4V88.871H75.937Zm-42.436,0h8.934V68.77H33.5Zm-17.868,0h13.4V71a2.233,2.233,0,0,0,2.232,2.233h13.4A2.233,2.233,0,0,0,46.9,71h0V59.836H60.3V88.871H15.634Z" transform="translate(0 -4)"/></g></g></svg>