<svg xmlns="http://www.w3.org/2000/svg" width="1188.687" height="439.095" viewBox="0 0 1188.687 439.095"><defs><style>.a,.j{fill:#f4240f;}.a,.o,.q,.s{stroke:#415eaa;}.a,.n,.o,.q,.r,.s,.u{stroke-miterlimit:10;}.a{stroke-width:5px;}.b{fill:#415eaa;}.c{fill:#23a47b;}.d,.n,.r{fill:none;}.e{fill:#603813;}.f{fill:#084333;}.g{fill:#226d57;}.h{fill:#125442;}.i{fill:#228b6b;}.k,.q{fill:#fff;}.l{fill:#519ff4;}.m{fill:#4dbfc3;}.n{stroke:#f4240f;}.n,.o,.r,.s{stroke-width:3px;}.o{fill:#9aefe1;}.p{fill:#a9d7db;}.r,.u{stroke:#ce135a;}.s,.u{fill:#f92e0d;}.t{fill:#29abe2;}</style></defs><g transform="translate(0 -0.117)"><rect class="a" width="297.885" height="101.58" transform="translate(661.112 2.617)"/><rect class="b" width="55.979" height="1188.686" transform="translate(0 439.212) rotate(-90)"/><path class="c" d="M206.9,497.771a19.061,19.061,0,0,0-25.9-17.645,19.094,19.094,0,0,0-10.032-9.285,19.128,19.128,0,0,0-10.032,9.285,18.949,18.949,0,1,0-6.7,36.595h33.518a19.039,19.039,0,0,0,19.15-18.949Z" transform="translate(-73.685 -135.159)"/><line class="d" x2="0.624" y2="49.692" transform="translate(431.523 96.049)"/><rect class="e" width="9.575" height="128.031" transform="translate(1092.189 228.149)"/><path class="f" d="M1105.487,518.113a18.949,18.949,0,1,0,0-37.81,19.335,19.335,0,0,0-6.688,1.26,19.15,19.15,0,0,0-34.388,0,19.37,19.37,0,0,0-6.688-1.26,18.949,18.949,0,1,0,0,37.81Z" transform="translate(29.796 -135.158)"/><path class="g" d="M1110.274,499.065a19.028,19.028,0,0,0-19.151-18.949,19.333,19.333,0,0,0-6.688,1.26,19.14,19.14,0,0,0-10.032-9.285,19.14,19.14,0,0,0-10.032,9.285,19.369,19.369,0,0,0-6.688-1.26,18.949,18.949,0,1,0,0,37.81h33.507A19.028,19.028,0,0,0,1110.274,499.065Z" transform="translate(29.791 -135.016)"/><path class="f" d="M1071.14,518.113a18.949,18.949,0,1,0,0-37.81,19.385,19.385,0,0,0-6.755,1.26,19.15,19.15,0,0,0-34.387,0,19.277,19.277,0,0,0-6.743-1.26,18.949,18.949,0,1,0,0,37.81Z" transform="translate(25.843 -135.159)"/><path class="h" d="M1075.919,499.065a19.028,19.028,0,0,0-19.15-18.949,19.328,19.328,0,0,0-6.688,1.26,19.139,19.139,0,0,0-10.032-9.285,19.2,19.2,0,0,0-10.032,9.285,19.274,19.274,0,0,0-6.744-1.259,18.949,18.949,0,1,0,0,37.81h33.518a19.028,19.028,0,0,0,19.128-18.86Z" transform="translate(25.845 -135.016)"/><path class="i" d="M1116.568,329.559a32.951,32.951,0,0,0,1.349-9.307c0-9.764-4.169-18.381-10.511-23.475a13.789,13.789,0,0,0,.936-4.893,14.278,14.278,0,0,0-14.368-14.179,13.471,13.471,0,0,0-1.349.134c-3.255-11.08-12.127-19.039-22.583-19.039s-19.339,7.959-22.594,19.039a13.131,13.131,0,0,0-1.349-.134,14.279,14.279,0,0,0-14.368,14.179,14.042,14.042,0,0,0,.936,4.893c-6.342,5.094-10.511,13.711-10.511,23.475a32.942,32.942,0,0,0,1.349,9.307c-6.565,5.061-10.924,13.811-10.924,23.787,0,15.661,10.724,28.357,23.943,28.357a20.746,20.746,0,0,0,10.266-2.776c2.541,12.44,11.972,21.692,23.252,21.692s20.7-9.252,23.241-21.691a20.745,20.745,0,0,0,10.266,2.775c13.22,0,23.943-12.7,23.943-28.357C1127.492,343.37,1123.134,334.62,1116.568,329.559Z" transform="translate(26.941 -159.474)"/><path class="c" d="M1113.124,353.21c0-9.976-4.347-18.726-10.913-23.787a33.359,33.359,0,0,0,1.337-9.308c0-9.765-4.157-18.381-10.5-23.475a14.041,14.041,0,0,0,.925-4.893,14.279,14.279,0,0,0-14.357-14.179,13.666,13.666,0,0,0-1.36.134c-2.474-8.427-8.2-15.026-15.4-17.712-7.2,2.686-12.93,9.285-15.4,17.712a13.155,13.155,0,0,0-1.349-.134,14.279,14.279,0,0,0-14.368,14.179,14.042,14.042,0,0,0,.936,4.893c-6.342,5.094-10.511,13.71-10.511,23.475a32.944,32.944,0,0,0,1.349,9.308c-6.565,5.061-10.924,13.811-10.924,23.787,0,12.663,7.011,23.408,16.72,27.031a23.153,23.153,0,0,0,3.166-1.438c.178.847.457,1.639.691,2.452a21.422,21.422,0,0,0,3.344.312,20.743,20.743,0,0,0,10.266-2.776c1.973,9.664,8.137,17.344,16.063,20.309,7.936-2.965,14.089-10.645,16.062-20.309a20.777,20.777,0,0,0,10.277,2.776,20.2,20.2,0,0,0,3.344-.323c.234-.814.513-1.605.691-2.452a20.719,20.719,0,0,0,3.166,1.438C1106.112,376.6,1113.124,365.895,1113.124,353.21Z" transform="translate(26.941 -159.338)"/><path class="j" d="M1065.766,332.872a10.478,10.478,0,1,1-10.478-10.221,10.255,10.255,0,0,1,10.478,10.222Z" transform="translate(30.637 -152.153)"/><path class="j" d="M1043.206,318.132a10.478,10.478,0,1,1-10.478-10.222,10.266,10.266,0,0,1,10.478,10.222Z" transform="translate(28.05 -153.843)"/><path class="j" d="M1054.236,359.672a10.478,10.478,0,1,1-10.478-10.222,10.255,10.255,0,0,1,10.478,10.222Z" transform="translate(29.315 -149.079)"/><path class="j" d="M1084.686,343.7a10.478,10.478,0,1,1-10.478-10.221,10.266,10.266,0,0,1,10.478,10.221Z" transform="translate(32.806 -150.911)"/><path class="j" d="M1071.156,304.731a10.478,10.478,0,1,1-10.478-10.21,10.255,10.255,0,0,1,10.478,10.21Z" transform="translate(31.255 -155.378)"/><rect class="k" width="216.692" height="155.853" transform="translate(689.96 227.937)"/><path class="l" d="M879.659,525.4V403.63c0-5.852-3.043-8.46-12.139-8.46H773.431c-9.107,0-15.171,3.255-15.171,8.46V525.4Z" transform="translate(-2.223 -143.836)"/><path class="m" d="M822.25,520.545h41.343V434.4c0-20.956-6.889-30.263-13.086-30.263H822.25Z" transform="translate(5.115 -142.808)"/><path class="m" d="M815.633,520.546l.546-116.227L779.4,404.13c-8.494,0-10.433,11.57-10.523,28.981l-.412,87.178Z" transform="translate(-1.053 -142.809)"/><path class="a" d="M940.459,251.775l51.453-.312-.123-22.583c0-4.96-2.118-10.456-11.381-10.4l-40.128.256Z" transform="translate(18.65 -164.098)"/><line class="d" x2="0.825" y2="65.721" transform="translate(805.406 56.723)"/><line class="d" x2="0.825" y2="65.721" transform="translate(805.406 56.723)"/><path class="b" d="M401.58,396.771c9.742,2.642,19.685-3.433,22.215-13.577s-3.344-20.5-13.031-23.141-19.674,3.444-22.2,13.577S391.86,394.129,401.58,396.771Z" transform="translate(-44.685 -147.934)"/><path class="b" d="M430.838,486.88H406.817a2.954,2.954,0,0,0-2.887,3.01v23.765a2.954,2.954,0,0,0,2.887,3.01h24.021a2.954,2.954,0,0,0,2.887-3.01V489.89A2.954,2.954,0,0,0,430.838,486.88Z" transform="translate(-42.854 -133.32)"/><path class="b" d="M451.074,484.058a12.618,12.618,0,0,0,2.865-9.62l-7.8-65.866a11.849,11.849,0,0,0-13.109-10.667A12.172,12.172,0,0,0,422.8,411.56l.256,2.162-11.5,16.575H389.812a10.289,10.289,0,0,0-10.032,10.5,10.657,10.657,0,0,0,1.951,6.153h-58.8a10.657,10.657,0,0,0,2.1-6.331A10.3,10.3,0,0,0,315,430.119H293.226l-11.57-16.575.256-2.163a12.139,12.139,0,0,0-10.233-13.644,11.816,11.816,0,0,0-13.1,10.656l-7.8,65.877a12.64,12.64,0,0,0,2.865,9.609A11.582,11.582,0,0,0,262.45,488h28.981v26.685a11.76,11.76,0,1,0,23.508,0V475.765a12.549,12.549,0,0,0-.791-4.314h19.373v52.39a2.943,2.943,0,0,0,2.887,3.01H367.14a2.954,2.954,0,0,0,2.9-3.01v-52.39h20.621a12.46,12.46,0,0,0-.847,4.459v38.936a11.76,11.76,0,1,0,23.508,0V488.182H442.3A11.57,11.57,0,0,0,451.074,484.058Zm-175.3-20.543,2.285-19.418,1.884,2.7a9.965,9.965,0,0,0,8.148,4.325h12.83a12.334,12.334,0,0,0-2.2,12.4Zm128.99.178a12.719,12.719,0,0,0,.836-4.459,12.429,12.429,0,0,0-2.842-7.9h13.922a10.032,10.032,0,0,0,8.148-4.325l1.873-2.7,2.3,19.418Z" transform="translate(-60.427 -143.55)"/><path class="b" d="M286,396.611c9.731-2.642,15.605-13,13.031-23.141s-12.484-16.218-22.215-13.577-15.605,13.008-13.019,23.141S276.266,399.253,286,396.611Z" transform="translate(-58.994 -147.952)"/><path class="b" d="M280.078,486.72h-24.01a2.954,2.954,0,0,0-2.9,3.01v23.765a2.954,2.954,0,0,0,2.9,3.01h24.01a2.954,2.954,0,0,0,2.9-3.01V489.73a2.954,2.954,0,0,0-2.9-3.01Z" transform="translate(-60.142 -133.338)"/><rect class="k" width="8.895" height="129.046" transform="translate(816.798 251.902)"/><rect class="n" width="409.653" height="294.942" transform="translate(600.987 89.584)"/><rect class="o" width="321.828" height="251.281" transform="translate(647.089 134.014)"/><path class="b" d="M547.15,437.823h-7.925v7.268c0,9.006-6.454,16.3-14.413,16.3s-14.4-7.29-14.4-16.3V437.7h-8.449l-5.952,33.306a4.949,4.949,0,0,0,.814,3.723,3.8,3.8,0,0,0,3.065,1.639h5.729v36.249c0,5.005,3.578,9.062,8,9.062s8.014-4.057,8.014-9.062V476.368h6.32v36.249c0,5.016,3.589,9.062,8.015,9.062s8-4.046,8-9.062V476.368H549.7a3.824,3.824,0,0,0,3.065-1.639,4.949,4.949,0,0,0,.814-3.723L547.64,437.7a2.143,2.143,0,0,1-.49.123Z" transform="translate(-32.305 -138.959)"/><path class="b" d="M523.634,392.058c9.631,0,17.433-8.828,17.433-19.73s-7.8-19.719-17.433-19.719S506.2,361.438,506.2,372.329,514.014,392.058,523.634,392.058Z" transform="translate(-31.127 -148.717)"/><path class="b" d="M498.988,451.513l3.968-8.917a2.965,2.965,0,0,1-1.75-2.787,2.831,2.831,0,0,1,2.642-2.987h11.793V410.18l-3.779-15.46a18.213,18.213,0,0,0-9.7,9.72l-17.289,39.014c-1.962,4.459-.379,9.809,3.522,12.027a7.133,7.133,0,0,0,3.545.948A7.869,7.869,0,0,0,498.988,451.513Z" transform="translate(-33.669 -143.888)"/><path class="b" d="M574.248,419.883H560.081a6.086,6.086,0,0,1-4.949-2.742l-10.912-15.929a17.357,17.357,0,0,0-9.018-6.822l-3.9,15.828v26.6h11.258l-2.118-11.882,2.229,3.2a21.446,21.446,0,0,0,17.456,9.675h14.167c4.37,0,7.914-4.013,7.914-8.917S578.618,419.883,574.248,419.883Z" transform="translate(-28.249 -143.926)"/><path class="b" d="M433.61,224.1l4.091,16.564h10.166l4.091-16.564Z" transform="translate(49.723 25.528)"/><path class="b" d="M557.887,407.872h54.184a1.805,1.805,0,0,0,1.427-.736,2.34,2.34,0,0,0,.435-1.705A29.7,29.7,0,0,0,589.41,379.6a6.065,6.065,0,0,0,.658-2.664c0-3.166-2.229-5.729-5.061-5.729s-5.049,2.564-5.049,5.729a6.061,6.061,0,0,0,.657,2.664,29.7,29.7,0,0,0-24.523,25.827,2.306,2.306,0,0,0,.435,1.694A1.817,1.817,0,0,0,557.887,407.872Z" transform="translate(-25.408 -146.584)"/><path class="b" d="M613.408,406.69H557.162a4.514,4.514,0,0,0,0,8.917h56.246a4.514,4.514,0,0,0,0-8.917Z" transform="translate(-25.72 -142.515)"/><path class="p" d="M685.251,137.165,597.259,190.1l-1.639-2.965L683.612,134.2Z" transform="translate(68.301 15.219)"/><path class="p" d="M678.091,149.994,590.1,202.941l-1.639-2.965,87.992-52.936Z" transform="translate(67.48 16.692)"/><rect class="q" width="54.931" height="107.443" transform="translate(761.221 80.458) rotate(-89.55)"/><path class="b" d="M801.9,221.875l5.049-6.008-12.5-14.747a9.608,9.608,0,0,0,0,11.9Z" transform="translate(1.691 -166.088)"/><path class="b" d="M813.772,218.16c2.753,1.471,6.565.424,9.308-2.954,3.344-4,4.08-9.8,1.427-12.852s-7.457-2.319-10.823,1.683c-2.831,3.344-3.723,7.9-2.475,11.069-3.9,4.737-17.288,20.644-17.288,20.644l2.474,2.954,12.261-14.491L820.917,238.7l2.486-2.954-12.261-14.491,2.653-3.054Z" transform="translate(1.867 -166.163)"/><line class="r" y2="184.2" transform="translate(286.727 119.401)"/><g transform="translate(257.967 203.704)"><path class="b" d="M333.448,398H314.833c-.825,2.151.234,17.567,9.887,17.567C333.236,415.512,334.262,400.1,333.448,398Z" transform="translate(-311.064 -347.216)"/><path class="b" d="M326.411,447.729V421.066c6.253-1.661,11.058-11.035,11.058-22.349a35.536,35.536,0,0,0-2.162-12.507l-.334-.881H313.916l-.334.881a35.49,35.49,0,0,0-2.151,12.507c0,11.392,4.86,20.811,11.147,22.383v26.641c-3.645.212-6.354,1.037-6.354,2.018,0,1.115,3.7,2.084,8.26,2.084s8.26-.936,8.26-2.084S330.056,447.952,326.411,447.729Zm-12.663-49.046a31.042,31.042,0,0,1,1.538-9.909H333.6a31.4,31.4,0,0,1,1.538,9.909c0,10.567-4.793,19.172-10.69,19.172s-10.7-8.572-10.7-19.139Z" transform="translate(-311.429 -348.669)"/><path class="b" d="M352.367,376.434V365.8H343.55v10.634c-3.723,2.508-6.32,8.07-6.32,14.569v63.079h21.446v-63.09C358.676,384.515,356.09,378.942,352.367,376.434Zm5.685,25.9V433.65h-20.2V402.339Z" transform="translate(-308.47 -350.908)"/><rect class="b" width="8.817" height="11.392" transform="translate(35.08)"/></g><line class="m" x2="25.95" transform="translate(359.348 120.594)"/><path class="s" d="M679.286,251.477V223.61H634.2c-9.018,0-15.037,2.787-15.037,7.234v20.6Z" transform="translate(-18.174 -163.509)"/><rect class="t" width="51.977" height="29.483" transform="translate(824.857 326.095)"/><ellipse class="t" cx="16.285" cy="16.965" rx="16.285" ry="16.965" transform="translate(739.964 180.262)"/><path class="t" d="M782.22,507.864H891.057V449.11H782.22Zm35.959-47.329a3.132,3.132,0,0,1,3.076-3.2h58.13a3.132,3.132,0,0,1,3.077,3.2v35.9a3.132,3.132,0,0,1-3.077,3.2h-58.13a3.132,3.132,0,0,1-3.077-3.2v-35.9Z" transform="translate(0.525 -137.651)"/><path class="t" d="M894.334,427.25h-95.2V436.7a14.725,14.725,0,0,1-2.62,8.5h97.779a2.23,2.23,0,0,0,2.229-2.341V429.58a2.229,2.229,0,0,0-2.185-2.33Zm-67.114,12.183a3.21,3.21,0,1,1,3.076-3.21A3.154,3.154,0,0,1,827.219,439.433Zm11.08,0a3.21,3.21,0,1,1,3.077-3.21,3.143,3.143,0,0,1-3.077,3.21Z" transform="translate(2.164 -140.158)"/><path class="t" d="M788.551,451.822h0a7.8,7.8,0,0,0,7.647-8.048l-.245-58.832c0-10.411-8.215-18.871-18.2-18.871h-5.83c-1.761,10.467-1.382,8.226-3.11,18.526l8.661,36.327V384.941a1.538,1.538,0,1,1,3.065,0c0,10.032.29,58.866.29,58.866a7.8,7.8,0,0,0,7.691,7.97Z" transform="translate(-1.013 -147.173)"/><path class="t" d="M753.752,383.008H764.9c.992-5.93,1.694-10.1,2.853-16.988H750.91C751.9,371.973,752.694,376.665,753.752,383.008Z" transform="translate(-3.066 -147.179)"/><path class="t" d="M740,450.94v58.988a9.241,9.241,0,1,0,18.459,0V450.94Z" transform="translate(-4.318 -137.441)"/><path class="t" d="M760.17,450.94h0v58.988a9.419,9.419,0,0,0,9.218,9.62h0a9.43,9.43,0,0,0,9.229-9.62V450.94Z" transform="translate(-2.004 -137.441)"/><path class="t" d="M741.988,420.976l8.917-36.65L747.829,366h-6.1c-10.032,0-18.147,8.46-18.2,18.871l-.279,58.866a7.8,7.8,0,0,0,7.647,8.048h0a7.881,7.881,0,0,0,7.691-7.97s.2-43.16.279-58.866a1.516,1.516,0,1,1,3.021,0v36.093h0v-.089Z" transform="translate(-6.238 -147.181)"/><path class="t" d="M818.072,401.2h48.187a.657.657,0,0,0,.6-.424.691.691,0,0,0-.145-.736,17.935,17.935,0,0,0-12.964-5.573h-3.344a4.539,4.539,0,0,0,1.115-2.965,4.348,4.348,0,0,0-4.247-4.459H837.01a4.336,4.336,0,0,0-4.247,4.459,4.538,4.538,0,0,0,1.115,2.965h-3.344a17.914,17.914,0,0,0-12.964,5.573.691.691,0,0,0-.145.736A.646.646,0,0,0,818.072,401.2Z" transform="translate(4.556 -144.769)"/><path class="t" d="M813.071,412.411h4.815a13.521,13.521,0,0,0,12.93,10.255H855.34a13.521,13.521,0,0,0,12.93-10.255h4.815a3.21,3.21,0,1,0,0-6.42H813.06a3.21,3.21,0,0,0,0,6.42Z" transform="translate(3.693 -142.596)"/><path class="u" d="M417.21,120.594,272.392,1.48,128.12,120.594Z" transform="translate(14.692 0)"/><path class="m" d="M266.077,1.48,183.19,120.594h30.442Z" transform="translate(21.007 0)"/><path class="m" d="M128.12,120.594H160.1L272.392,1.48Z" transform="translate(14.692 0)"/><path class="m" d="M257.55,1.48,402.368,120.594H377.946Z" transform="translate(29.534 0)"/><path class="m" d="M257.55,1.48l87.323,119.114H313.741Z" transform="translate(29.534 0)"/><path class="m" d="M259.38,1.48,241.59,120.594h35.224Z" transform="translate(27.704 0)"/><path class="f" d="M176.372,517.863a18.949,18.949,0,1,0-6.744-36.55,19.15,19.15,0,0,0-34.388,0,18.949,18.949,0,1,0-6.688,36.55Z" transform="translate(-76.643 -135.187)"/><rect class="j" width="1188.24" height="14.101" transform="translate(0 386.265)"/></g></svg>