<svg xmlns="http://www.w3.org/2000/svg" width="49.984" height="50" viewBox="0 0 49.984 50"><defs><style>.a{fill:#2c4b9f;}</style></defs><path class="a" d="M220.417,331.886a.992.992,0,1,0-1.4,0A.993.993,0,0,0,220.417,331.886Zm0,0" transform="translate(-197.427 -297.968)"/><path class="a" d="M188.449,10.9A10.9,10.9,0,1,0,199.349,0,10.913,10.913,0,0,0,188.449,10.9Zm19.819,0a8.919,8.919,0,1,1-8.919-8.918A8.929,8.929,0,0,1,208.268,10.9Zm0,0" transform="translate(-170.302)"/><path class="a" d="M11.746,241.73a.966.966,0,0,0,1.378.008l4.733-4.733a3.027,3.027,0,0,0,.7-3.075l1.018-1A2.889,2.889,0,0,1,21.6,232.1H34.582a8.674,8.674,0,0,0,6.129-2.527c.068-.067-.515.63,8.854-10.736a4.01,4.01,0,0,0-.464-5.587,3.875,3.875,0,0,0-5.479.442l-5.761,6.01a3.9,3.9,0,0,0-3.035-1.475H23.94a12.434,12.434,0,0,0-4.889-.991,12.046,12.046,0,0,0-11.009,6.336,2.889,2.889,0,0,0-2.611.821L.786,229.122a1,1,0,0,0,0,1.4Zm7.3-22.513a10.523,10.523,0,0,1,4.3.908.963.963,0,0,0,.391.083H34.826a1.982,1.982,0,0,1,0,3.964H26.861a.991.991,0,0,0,0,1.982h7.965a3.939,3.939,0,0,0,3.905-3.964,4.037,4.037,0,0,0-.034-.518c5.573-5.814,6.359-6.631,6.392-6.672a1.939,1.939,0,0,1,2.753-.236,2.007,2.007,0,0,1,.229,2.8l-8.757,10.625a6.745,6.745,0,0,1-4.732,1.932H21.6a4.816,4.816,0,0,0-3.389,1.389l-.83.813-7.648-7.763a10.053,10.053,0,0,1,9.314-5.34ZM6.812,225.794a.963.963,0,0,1,1.209-.139c.169.1-.316-.344,8.456,8.548a1,1,0,0,1,.005,1.4l-4.035,4.035-9.593-9.811Zm0,0" transform="translate(-0.501 -192.024)"/><path class="a" d="M267.832,40.98v1.161a2.973,2.973,0,0,0,.991,5.775.991.991,0,1,1,0,1.982,1.792,1.792,0,0,1-1.287-.75.991.991,0,1,0-1.517,1.275,4.11,4.11,0,0,0,1.813,1.291v1.157a.991.991,0,0,0,1.982,0V51.709a2.973,2.973,0,0,0-.991-5.775.991.991,0,0,1,0-1.982,1.591,1.591,0,0,1,1.072.518.991.991,0,1,0,1.378-1.424,3.828,3.828,0,0,0-1.459-.912V40.98a.991.991,0,1,0-1.982,0Zm0,0" transform="translate(-239.932 -36.025)"/></svg>