<svg xmlns="http://www.w3.org/2000/svg" width="61.484" height="50" viewBox="0 0 61.484 50"><defs><style>.a{fill:#2c4b9f;}</style></defs><g transform="translate(11.127 39.196)"><circle class="a" cx="2.152" cy="2.152" r="2.152"/></g><g transform="translate(0 0)"><path class="a" d="M60.238,78.255a4.846,4.846,0,0,0-.855-2.753,4.872,4.872,0,0,0-2.772-8.879H43.8l.812-1.82a20.607,20.607,0,0,0,1.8-8.4s.007-3.555.007-3.575a5.01,5.01,0,0,0-9.655-1.876c-.034.084-1.2,3.518-1.2,3.518A17.748,17.748,0,0,1,30.167,62.3l-5.943,4.972H20.788V65.708A2.992,2.992,0,0,0,17.8,62.72H2.988A2.992,2.992,0,0,0,0,65.708V94.83a2.992,2.992,0,0,0,2.988,2.988H17.8a2.992,2.992,0,0,0,2.988-2.988V92.49h1.876l1.862.9a32.853,32.853,0,0,0,14.214,3.255h14.13a4.87,4.87,0,0,0,4.019-7.627,4.865,4.865,0,0,0,1.247-6.759A4.871,4.871,0,0,0,60.238,78.255ZM17.8,94.83H2.988V65.708H17.8l0,29.122ZM56.611,73.381H54.485a1.494,1.494,0,1,0,0,2.988h.88a1.885,1.885,0,1,1,0,3.771H53.238a1.494,1.494,0,0,0,0,2.988h.88a1.885,1.885,0,1,1,0,3.771H51.992a1.494,1.494,0,1,0,0,2.988h.88a1.885,1.885,0,1,1,0,3.77H38.741A29.848,29.848,0,0,1,25.827,90.7l-2.171-1.049a1.5,1.5,0,0,0-.65-.149H20.788V70.264h3.978a1.494,1.494,0,0,0,.959-.348l6.359-5.32a20.734,20.734,0,0,0,6.3-9.154s1.189-3.461,1.2-3.485a2.021,2.021,0,0,1,3.845.87c0,.02-.007,3.569-.007,3.569a17.633,17.633,0,0,1-1.538,7.189l-1.74,3.9a1.487,1.487,0,0,0-.064,1.043,1.535,1.535,0,0,0,1.435,1.079h15.1a1.885,1.885,0,1,1,0,3.771Z" transform="translate(0 -47.818)"/></g></svg>