<svg xmlns="http://www.w3.org/2000/svg" width="38.063" height="50.75" viewBox="0 0 38.063 50.75"><defs><style>.a{fill:#2c4b9f;}</style></defs><g transform="translate(0)"><path class="a" d="M215.064,284.963l-.667,6a1.058,1.058,0,0,0,1.051,1.174h4.229a1.058,1.058,0,0,0,1.051-1.174l-.667-6a4.183,4.183,0,0,0,1.73-3.4,4.229,4.229,0,0,0-8.458,0A4.183,4.183,0,0,0,215.064,284.963Zm2.5-5.516a2.107,2.107,0,0,1,.913,4.01,1.058,1.058,0,0,0-.591,1.069l.611,5.494h-1.867l.611-5.494a1.058,1.058,0,0,0-.591-1.069,2.107,2.107,0,0,1,.913-4.01Z" transform="translate(-198.531 -249.843)"/><path class="a" d="M101.005,19.031H97.833V14.8a14.8,14.8,0,1,0-29.6,0v4.229H65.057A1.057,1.057,0,0,0,64,20.089V46.521a4.233,4.233,0,0,0,4.229,4.229h29.6a4.233,4.233,0,0,0,4.229-4.229V20.089A1.057,1.057,0,0,0,101.005,19.031ZM70.344,14.8a12.687,12.687,0,1,1,25.375,0v4.229H93.6V14.8a10.573,10.573,0,1,0-21.146,0v4.229H70.344Zm21.146,0v4.229H74.573V14.8a8.458,8.458,0,1,1,16.917,0Zm8.458,31.719a2.117,2.117,0,0,1-2.115,2.115h-29.6a2.117,2.117,0,0,1-2.115-2.115V21.146H99.948Z" transform="translate(-64)"/></g></svg>