<svg xmlns="http://www.w3.org/2000/svg" width="32.69" height="50.75" viewBox="0 0 32.69 50.75"><defs><style>.a{fill:#2c4b9f;}</style></defs><path class="a" d="M113.6,0H87.341a3.217,3.217,0,0,0-3.213,3.213V47.537a3.217,3.217,0,0,0,3.213,3.213H113.6a3.217,3.217,0,0,0,3.213-3.213V3.213A3.217,3.217,0,0,0,113.6,0ZM85.738,8.076h29.47V41.638H85.738Zm1.6-6.466H113.6a1.6,1.6,0,0,1,1.6,1.6V7H85.738V3.213A1.6,1.6,0,0,1,87.341,1.61ZM113.6,49.14H87.341a1.6,1.6,0,0,1-1.6-1.6V42.712h29.47v4.825A1.6,1.6,0,0,1,113.6,49.14Z" transform="translate(-84.128)"/><path class="a" d="M214.479,404.552a2.637,2.637,0,1,0,2.637,2.637A2.64,2.64,0,0,0,214.479,404.552Zm0,4.2a1.563,1.563,0,1,1,1.563-1.563A1.565,1.565,0,0,1,214.479,408.752Z" transform="translate(-198.134 -361.129)"/><path class="a" d="M197.943,38.718h7.3a.537.537,0,0,0,0-1.073h-7.3a.537.537,0,1,0,0,1.073Z" transform="translate(-185.247 -33.604)"/><path class="a" d="M179.946,38.718a.535.535,0,1,0-.38-.157A.54.54,0,0,0,179.946,38.718Z" transform="translate(-169.182 -33.604)"/></svg>