<svg xmlns="http://www.w3.org/2000/svg" width="1128.369" height="438.269" viewBox="0 0 1128.369 438.269"><defs><style>.a{fill:#2c83ef;stroke:#002e67;stroke-miterlimit:10;}.a,.b{opacity:0.79;}.b,.j{fill:#4ddde0;}.c,.e{fill:#415eaa;}.d{fill:#002e67;}.e{opacity:0.49;}.f,.v{fill:#4dbfc3;}.g{fill:#c43d27;}.h{fill:#fff;}.i{fill:#e8f9fc;}.k{fill:#0e75af;}.l{fill:#1ea4c4;}.m{fill:#ec0916;}.n{fill:#aa1e0f;}.o{fill:#603813;}.p{fill:#084333;}.q{fill:#226d57;}.r{fill:#125442;}.s{fill:#228b6b;}.t{fill:#23a47b;}.u{fill:#2c4ba0;}.v{opacity:0.5;}.w{fill:#59c1ee;}</style></defs><g transform="translate(-4.854)"><rect class="a" width="180.314" height="395.633" transform="translate(616.504 4.921)"/><rect class="b" width="154.009" height="373.169" transform="translate(796.828 34.056)"/><rect class="c" width="87.373" height="34.056" transform="translate(830.884)"/><rect class="d" width="18.372" height="18.372" transform="translate(812.916 52.397)"/><rect class="d" width="18.372" height="18.372" transform="translate(838.18 52.397)"/><rect class="d" width="18.372" height="18.372" transform="translate(865.364 52.397)"/><rect class="d" width="18.372" height="18.372" transform="translate(890.861 52.397)"/><rect class="d" width="18.372" height="18.372" transform="translate(916.357 52.397)"/><rect class="d" width="18.372" height="18.372" transform="translate(813.654 89.121)"/><rect class="d" width="18.372" height="18.372" transform="translate(838.918 89.121)"/><rect class="d" width="18.372" height="18.372" transform="translate(866.102 89.121)"/><rect class="d" width="18.372" height="18.372" transform="translate(891.609 89.121)"/><rect class="d" width="18.372" height="18.372" transform="translate(917.105 89.121)"/><rect class="d" width="18.372" height="18.372" transform="translate(813.27 121.408)"/><rect class="d" width="18.372" height="18.372" transform="translate(838.534 121.408)"/><rect class="d" width="18.372" height="18.372" transform="translate(865.718 121.408)"/><rect class="d" width="18.372" height="18.372" transform="translate(891.214 121.408)"/><rect class="d" width="18.372" height="18.372" transform="translate(916.721 121.408)"/><rect class="d" width="18.372" height="18.372" transform="translate(814.018 158.132)"/><rect class="d" width="18.372" height="18.372" transform="translate(839.272 158.132)"/><rect class="d" width="18.372" height="18.372" transform="translate(866.456 158.132)"/><rect class="d" width="18.372" height="18.372" transform="translate(891.962 158.132)"/><rect class="d" width="18.372" height="18.372" transform="translate(917.458 158.132)"/><rect class="d" width="18.372" height="18.372" transform="translate(814.372 188.803)"/><rect class="d" width="18.372" height="18.372" transform="translate(839.635 188.803)"/><rect class="d" width="18.372" height="18.372" transform="translate(866.819 188.803)"/><rect class="d" width="18.372" height="18.372" transform="translate(892.316 188.803)"/><rect class="d" width="18.372" height="18.372" transform="translate(917.812 188.803)"/><rect class="d" width="18.372" height="18.372" transform="translate(815.109 225.526)"/><rect class="d" width="18.372" height="18.372" transform="translate(840.373 225.526)"/><rect class="d" width="18.372" height="18.372" transform="translate(867.557 225.526)"/><rect class="d" width="18.372" height="18.372" transform="translate(893.054 225.526)"/><rect class="d" width="18.372" height="18.372" transform="translate(918.55 225.526)"/><rect class="d" width="18.372" height="18.372" transform="translate(814.018 259.34)"/><rect class="d" width="18.372" height="18.372" transform="translate(839.272 259.34)"/><rect class="d" width="18.372" height="18.372" transform="translate(866.456 259.34)"/><rect class="d" width="18.372" height="18.372" transform="translate(891.962 259.34)"/><rect class="d" width="18.372" height="18.372" transform="translate(917.458 259.34)"/><rect class="d" width="18.372" height="18.372" transform="translate(814.755 296.063)"/><rect class="d" width="18.372" height="18.372" transform="translate(840.019 296.063)"/><rect class="d" width="18.372" height="18.372" transform="translate(867.204 296.063)"/><rect class="d" width="18.372" height="18.372" transform="translate(892.7 296.063)"/><rect class="d" width="18.372" height="18.372" transform="translate(918.196 296.063)"/><rect class="d" width="18.372" height="18.372" transform="translate(814.018 330.483)"/><rect class="d" width="18.372" height="18.372" transform="translate(839.272 330.483)"/><rect class="d" width="18.372" height="18.372" transform="translate(866.456 330.483)"/><rect class="d" width="18.372" height="18.372" transform="translate(891.962 330.483)"/><rect class="d" width="18.372" height="18.372" transform="translate(917.458 330.483)"/><rect class="d" width="18.372" height="18.372" transform="translate(814.755 367.196)"/><rect class="d" width="18.372" height="18.372" transform="translate(840.019 367.196)"/><rect class="d" width="18.372" height="18.372" transform="translate(867.204 367.196)"/><rect class="d" width="18.372" height="18.372" transform="translate(892.7 367.196)"/><rect class="d" width="18.372" height="18.372" transform="translate(918.196 367.196)"/><rect class="e" width="43.545" height="373.169" transform="translate(796.828 34.056)"/><rect class="c" width="50.75" height="1119.193" transform="translate(14.02 438.269) rotate(-90)"/><rect class="f" width="38.149" height="72.487" transform="translate(149.071 200.05)"/><rect class="g" width="45.788" height="7.63" transform="translate(145.261 192.42)"/><rect class="h" width="156.424" height="106.826" transform="translate(30.795 283.987)"/><path class="i" d="M37.33,281.02H193.764V387.846" transform="translate(-6.535 2.967)"/><path class="d" d="M151.479,500.717V429.372c0-3.436-1.142-4.962-4.578-4.962H111.37c-3.436,0-5.73,1.91-5.73,4.962v71.345Z" transform="translate(-51.956 -117.534)"/><path class="f" d="M151.479,466.378V429.372c0-3.436-1.142-4.962-4.578-4.962H111.37c-3.436,0-5.73,1.91-5.73,4.962" transform="translate(-51.956 -117.534)"/><path class="j" d="M146.556,462.618a6.437,6.437,0,1,1-1.885-4.6,6.488,6.488,0,0,1,1.885,4.6Z" transform="translate(-51.661 -117.199)"/><path class="k" d="M192.48,443.49h22.889V429.342c0-3.436-3.81-4.962-7.246-4.962H192.48Z" transform="translate(-51.039 -117.534)"/><path class="l" d="M188.939,443.489V424.41H171.76c-3.426,0-5.72,1.91-5.72,4.962V443.52Z" transform="translate(-51.318 -117.534)"/><path class="k" d="M188.939,447.07H166.05v14.875c0,3.436,2.294,4.194,5.72,4.194h17.179Z" transform="translate(-51.318 -117.295)"/><path class="l" d="M192.48,447.07v19.069h15.684c3.436,0,7.246-.758,7.246-4.194V447.07Z" transform="translate(-51.039 -117.295)"/><path class="m" d="M220.36,281.873,115.818,200.22,11.66,281.873Z" transform="translate(-6.806 2.114)"/><path class="n" d="M219.826,281.873,115.284,200.22,62.25,281.873Z" transform="translate(-6.272 2.114)"/><path class="g" d="M40.73,258.45H190.677l-9.54-7.64H50.27Z" transform="translate(-6.499 2.648)"/><path class="g" d="M74.33,231.98h82.027l-4.952-3.82H79.292Z" transform="translate(-6.144 2.409)"/><rect class="f" width="473.083" height="15.259" transform="translate(14.09 387.519)"/><rect class="o" width="5.932" height="81.269" transform="translate(1026.558 288.292)"/><path class="p" d="M1095.175,503.594a12.005,12.005,0,0,0,0-24.011,11.7,11.7,0,0,0-4.174.808,11.723,11.723,0,0,0-21.293,0,11.7,11.7,0,0,0-4.173-.808,12.005,12.005,0,1,0,0,24.011Z" transform="translate(-41.948 -117.015)"/><path class="q" d="M1098.136,491.579a11.935,11.935,0,0,0-11.854-12.005,11.7,11.7,0,0,0-4.174.808,6.2,6.2,0,0,0-12.4,0,11.7,11.7,0,0,0-4.174-.808,12.005,12.005,0,1,0,0,24.011h20.746A11.935,11.935,0,0,0,1098.136,491.579Z" transform="translate(-41.948 -117.006)"/><path class="p" d="M1071.715,503.594a12.005,12.005,0,1,0,0-24.011,11.769,11.769,0,0,0-4.184.808,11.722,11.722,0,0,0-21.282,0,11.7,11.7,0,0,0-4.174-.808,12.005,12.005,0,0,0,0,24.011Z" transform="translate(-42.196 -117.015)"/><path class="r" d="M1074.676,491.578a11.935,11.935,0,0,0-11.854-12.005,11.8,11.8,0,0,0-4.184.809,6.2,6.2,0,0,0-12.39,0,11.7,11.7,0,0,0-4.174-.809,12.005,12.005,0,0,0,0,24.011h20.747A11.935,11.935,0,0,0,1074.676,491.578Z" transform="translate(-42.196 -117.005)"/><path class="s" d="M1100.453,370.03a21.308,21.308,0,0,0,.839-5.912,19.281,19.281,0,0,0-6.508-14.9,9.108,9.108,0,0,0,.576-3.1,8.944,8.944,0,0,0-8.893-9c-.283,0-.556.061-.839.081-2.021-7.074-7.508-12.127-13.976-12.127s-11.975,5.053-13.986,12.127c-.283,0-.545-.081-.838-.081a8.943,8.943,0,0,0-8.893,9,9.1,9.1,0,0,0,.576,3.1,19.272,19.272,0,0,0-6.5,14.9,21.663,21.663,0,0,0,.829,5.912,19.2,19.2,0,0,0-6.761,15.1c0,9.944,6.64,18.008,14.825,18.008a12.592,12.592,0,0,0,6.357-1.769c1.566,7.9,7.407,13.764,14.39,13.764s12.814-5.861,14.391-13.764a12.539,12.539,0,0,0,6.356,1.769c8.185,0,14.815-8.084,14.815-18.008C1107.213,378.791,1104.525,373.243,1100.453,370.03Z" transform="translate(-42.132 -118.583)"/><path class="t" d="M1098.32,385.118c0-6.336-2.688-11.884-6.761-15.1a21.313,21.313,0,0,0,.839-5.912,19.2,19.2,0,0,0-6.508-14.9,9.1,9.1,0,0,0,.576-3.1,8.944,8.944,0,0,0-8.893-9c-.283,0-.556.061-.829.081-1.536-5.346-5.052-9.54-9.539-11.247-4.457,1.708-8.014,5.9-9.54,11.247-.283,0-.546-.081-.839-.081a8.944,8.944,0,0,0-8.893,9,9.1,9.1,0,0,0,.576,3.1,19.271,19.271,0,0,0-6.5,14.9,21.686,21.686,0,0,0,.829,5.912,19.2,19.2,0,0,0-6.761,15.1c0,8.084,4.335,14.845,10.328,17.179a13.814,13.814,0,0,0,1.96-.91c.111.536.283,1.011.424,1.556a13.227,13.227,0,0,0,2.112.2,12.594,12.594,0,0,0,6.357-1.768c1.222,6.134,5.052,11.015,9.944,12.895,4.9-1.88,8.721-6.761,9.944-12.895a12.542,12.542,0,0,0,6.356,1.768,12.035,12.035,0,0,0,2.1-.212c.152-.515.324-1.01.435-1.556a14.319,14.319,0,0,0,1.95.92C1093.985,399.963,1098.32,393.162,1098.32,385.118Z" transform="translate(-42.132 -118.574)"/><rect class="o" width="5.932" height="81.269" transform="translate(247.822 289.171)"/><path class="p" d="M324.572,504.453a12.005,12.005,0,0,0,0-24,11.7,11.7,0,0,0-4.174.8,11.733,11.733,0,0,0-21.292,0,11.7,11.7,0,0,0-4.174-.8,12.005,12.005,0,0,0,0,24Z" transform="translate(-50.081 -117.006)"/><path class="q" d="M327.532,492.449a11.935,11.935,0,0,0-11.854-12.006,11.7,11.7,0,0,0-4.174.8,12.026,12.026,0,0,0-6.195-5.892,12.006,12.006,0,0,0-6.2,5.892,11.7,11.7,0,0,0-4.174-.8,12.005,12.005,0,0,0,0,24h20.747A11.925,11.925,0,0,0,327.532,492.449Z" transform="translate(-50.081 -116.996)"/><path class="p" d="M301.111,504.454a12.006,12.006,0,0,0,0-24,11.755,11.755,0,0,0-4.184.8,11.723,11.723,0,0,0-21.282,0,11.7,11.7,0,0,0-4.174-.8,12.006,12.006,0,0,0,0,24Z" transform="translate(-50.328 -117.006)"/><path class="r" d="M304.072,492.449a11.935,11.935,0,0,0-11.854-12.006,11.756,11.756,0,0,0-4.184.8,11.985,11.985,0,0,0-6.195-5.891,12.025,12.025,0,0,0-6.195,5.891,11.7,11.7,0,0,0-4.173-.8,12.005,12.005,0,0,0,0,24h20.747A11.925,11.925,0,0,0,304.072,492.449Z" transform="translate(-50.328 -116.996)"/><path class="s" d="M329.853,370.89a21.216,21.216,0,0,0,.839-5.9,19.291,19.291,0,0,0-6.508-14.906,9.093,9.093,0,0,0,.576-3.1,8.953,8.953,0,0,0-8.893-9c-.283,0-.556.061-.839.081-2.021-7.023-7.509-12.127-13.976-12.127s-11.975,5.053-13.986,12.127c-.283,0-.546-.081-.839-.081a8.954,8.954,0,0,0-8.893,9,9.1,9.1,0,0,0,.576,3.1,19.281,19.281,0,0,0-6.5,14.906,21.224,21.224,0,0,0,.829,5.9,19.268,19.268,0,0,0-6.761,15.1c0,9.944,6.639,18.008,14.815,18.008a12.692,12.692,0,0,0,6.366-1.758c1.566,7.892,7.407,13.764,14.39,13.764s12.814-5.871,14.39-13.764A12.633,12.633,0,0,0,321.8,404c8.175,0,14.815-8.084,14.815-18.008C336.613,379.661,333.925,374.1,329.853,370.89Z" transform="translate(-50.268 -118.574)"/><path class="t" d="M327.72,385.978c0-6.326-2.688-11.884-6.761-15.1a21.22,21.22,0,0,0,.839-5.9,19.251,19.251,0,0,0-6.508-14.906,9.093,9.093,0,0,0,.576-3.1,8.954,8.954,0,0,0-8.893-9c-.283,0-.556.061-.839.081-1.526-5.346-5.053-9.53-9.53-11.237-4.467,1.708-8.014,5.891-9.54,11.237-.283,0-.546-.081-.839-.081a8.954,8.954,0,0,0-8.893,9,9.1,9.1,0,0,0,.576,3.1,19.281,19.281,0,0,0-6.5,14.906,21.225,21.225,0,0,0,.829,5.9,19.268,19.268,0,0,0-6.761,15.1c0,8.084,4.335,14.845,10.328,17.18a12.769,12.769,0,0,0,1.96-.91c.111.536.283,1.011.425,1.556a12.052,12.052,0,0,0,2.1.2,12.692,12.692,0,0,0,6.366-1.758c1.213,6.134,5.053,11,9.944,12.885,4.9-1.88,8.721-6.751,9.944-12.885a12.63,12.63,0,0,0,6.356,1.758,12.044,12.044,0,0,0,2.1-.2c.152-.526.323-1.011.435-1.556a13.139,13.139,0,0,0,1.95.91C323.385,400.823,327.72,394.022,327.72,385.978Z" transform="translate(-50.268 -118.564)"/><path class="u" d="M418.735,448.834a2.183,2.183,0,0,0-3.143-.111l-4.5,4.265-.2-.111a1.89,1.89,0,0,0-2.021,0l.091-.212a.687.687,0,0,0-.344-.889.667.667,0,0,0-.788.222,4.322,4.322,0,0,0,0-.637,5.538,5.538,0,1,0-11.066,0,6.348,6.348,0,0,0,0,.637.667.667,0,0,0-.788-.222.687.687,0,0,0-.344.889l.091.212a1.87,1.87,0,0,0-2.021,0,6.5,6.5,0,0,0-1.789,1.334l-7.488-5.174a2.182,2.182,0,0,0-3.082.637,2.294,2.294,0,0,0,.616,3.143c15.856,10.772,14.966,10.176,15.078,10.237-.536,4.467.121.647-3.486,19.706a1.273,1.273,0,0,0,.263,1.011,1.2,1.2,0,0,0,.95.465h1.1l-2.739,14.077a2.668,2.668,0,1,0,5.235,1.011l2.89-15.159h2.678l2.183,14.987a2.668,2.668,0,1,0,5.276-.8L409.316,484.2h.617a1.2,1.2,0,0,0,.95-.465,1.243,1.243,0,0,0,.263-1.01c-3.608-19.059-2.931-15.078-3.557-20.211l5.75-5.4.7.182a.314.314,0,0,0,.364-.1.354.354,0,0,0,.051-.384c-.081-.182-.172-.354-.253-.516l4.467-4.244a2.3,2.3,0,0,0,.071-3.223ZM404.981,458.8h-6.154l-2.941-2.021h.061a2.021,2.021,0,0,0,1.011-1.223l.091.232a.677.677,0,0,0,.606.414.574.574,0,0,0,.253-.061.677.677,0,0,0,.353-.879l-.081-.162a5.467,5.467,0,0,0,8.438,0l-.091.192a.677.677,0,0,0,.354.879.575.575,0,0,0,.253.061.667.667,0,0,0,.606-.414l.091-.233a2.409,2.409,0,0,0,.162.4Z" transform="translate(-49.049 -117.31)"/><ellipse class="u" cx="5.548" cy="5.669" rx="5.548" ry="5.669" transform="translate(306.526 327.087)"/><path class="u" d="M379.553,444.418a2.324,2.324,0,0,0-.455-3.2,2.213,2.213,0,0,0-3.143.465L364.384,457.6h-5.972l-10.57-13.137a2.2,2.2,0,0,0-3.153-.313,2.324,2.324,0,0,0-.3,3.224l11.167,13.905v15.2l-6.407,21.586a2.779,2.779,0,0,0,1.8,3.436,2.688,2.688,0,0,0,3.355-1.839l5.962-20.1h2.082l1.94,19.585a2.708,2.708,0,0,0,2.961,2.5,2.739,2.739,0,0,0,2.405-3.032c-2.334-23.586-2.173-22.01-2.213-22.232v-15.28Z" transform="translate(-49.441 -117.361)"/><ellipse class="u" cx="6.316" cy="6.457" rx="6.316" ry="6.457" transform="translate(331.85 309.453)"/><path class="u" d="M454.582,484.97c6.387-1.678,14.148-3.982,15.734-4.841.889-.758,5.558-6.548,5.558-6.548l2.577-15.482c-4.315,1.395-5.508,4.265-6.922,9.772a3.214,3.214,0,0,1-3.032,2.466,2.968,2.968,0,0,1-.829-.111,3.345,3.345,0,0,1-2.254-4.042c3.921-18.291,22.505-15.593,22.556-15.593,6.538.455,12.127-1.263,12.561-2.021a21.784,21.784,0,0,0,2.83-10.348,3.234,3.234,0,0,1,3.345-3.143,2.941,2.941,0,0,1,1.142.293,7.438,7.438,0,0,1-1.91-4.982,6.983,6.983,0,1,1,6.983,7.286,6.722,6.722,0,0,1-3.779-1.172,3.354,3.354,0,0,1,.576,2.021c-.4,8.256-3.294,12.895-4.174,14.148-1.708,2.385-6.377,3.86-11.389,4.386a.132.132,0,0,1,0,.061l-3.921,19.554s1.011,10.813.657,13.592c-.152,1.162-.536,4.275-12.228,16.058a3.986,3.986,0,0,1-5.821-.1,4.457,4.457,0,0,1,.1-6.063c4.042-4.093,9.792-11.318,9.792-11.318s-.222-4.851-.606-8.57a.516.516,0,0,0-.879-.243c-.647.879-4.8,6.235-6.377,7.316-2.466,1.688-12.48,4.467-18.19,5.972a3.934,3.934,0,0,1-1.011.141,4.163,4.163,0,0,1-4.042-3.264A4.3,4.3,0,0,1,454.582,484.97Z" transform="translate(-48.305 -117.541)"/><path class="u" d="M486.928,449.117a8.57,8.57,0,0,1-6.3-10.176,8.2,8.2,0,0,1,9.732-6.579,8.57,8.57,0,0,1,6.306,10.176,8.216,8.216,0,0,1-9.742,6.579Z" transform="translate(-47.999 -117.452)"/><path class="u" d="M532.333,439.27h1.475l-4.75,21.05H517l-4.042-21.07ZM518.5,459.209l.435-.879.434.889h1.2l-1.01-2.112,1.536-3.133,1.536,3.133-1.011,2.112h1.2l.435-.889.435.889h1.2l-1.01-2.112,1.546-3.133,1.536,3.133-1.011,2.112h1.2l.445-.9.435.9h.121l.313-1.354-.384-.768,1.011-2.021,1.01-4.527-.5,1.01-1.546-3.133,1.546-3.133,1.152,2.344.374-1.678-.93-1.89,1.748-3.557h-1.172l-1.142,2.334-1.152-2.334h-2.021l-1.152,2.344-1.152-2.344h-2.021l-1.061,2.254-1.152-2.345h-2.021l-1.152,2.345-1.152-2.345h-1.2l1.758,3.567-.869,1.758.343,1.758,1.122-2.294,1.546,3.133-1.546,3.133-.6-1.213.778,4.042,1.364,2.769-.6,1.213.172.889Z" transform="translate(-47.655 -117.377)"/><path class="u" d="M479.586,324.41l1.546,3.133-1.546,3.133-1.536-3.133Z" transform="translate(-1.882 3.425)"/><path class="u" d="M483.242,331.853l-1.536,3.133-1.536-3.133,1.536-3.133Z" transform="translate(-1.86 3.471)"/><path class="u" d="M479.012,331.853l-1.546,3.133-1.536-3.133,1.536-3.133Z" transform="translate(-1.904 3.471)"/><path class="u" d="M475.346,324.41l1.546,3.133-1.546,3.133-1.536-3.133Z" transform="translate(-1.927 3.425)"/><path class="u" d="M473.226,328.72l1.546,3.133-1.546,3.133-1.536-3.133Z" transform="translate(-1.949 3.471)"/><path class="u" d="M471.69,323.233l1.536-3.133,1.546,3.133-1.546,3.133Z" transform="translate(-1.949 3.38)"/><path class="u" d="M480.17,323.233l1.536-3.133,1.536,3.133-1.536,3.133Z" transform="translate(-1.86 3.38)"/><path class="u" d="M475.93,323.233l1.536-3.133,1.546,3.133-1.546,3.133Z" transform="translate(-1.904 3.38)"/><rect class="v" width="69.435" height="24.779" transform="translate(849.023 9.287)"/><rect class="d" width="32.055" height="32.055" transform="translate(624.306 53.004)"/><rect class="d" width="32.055" height="32.055" transform="translate(667.335 53.004)"/><rect class="d" width="32.055" height="32.055" transform="translate(711.8 53.004)"/><rect class="d" width="32.055" height="32.055" transform="translate(757.669 53.004)"/><rect class="d" width="32.055" height="32.055" transform="translate(623.608 110.646)"/><rect class="d" width="32.055" height="32.055" transform="translate(666.638 110.646)"/><rect class="d" width="32.055" height="32.055" transform="translate(711.103 110.646)"/><rect class="d" width="32.055" height="32.055" transform="translate(756.962 110.646)"/><rect class="d" width="32.055" height="32.055" transform="translate(624.306 161.214)"/><rect class="d" width="32.055" height="32.055" transform="translate(667.335 161.214)"/><rect class="d" width="32.055" height="32.055" transform="translate(711.8 161.214)"/><rect class="d" width="32.055" height="32.055" transform="translate(757.669 161.214)"/><rect class="d" width="32.055" height="32.055" transform="translate(623.608 218.857)"/><rect class="d" width="32.055" height="32.055" transform="translate(666.638 218.857)"/><rect class="d" width="32.055" height="32.055" transform="translate(711.103 218.857)"/><rect class="d" width="32.055" height="32.055" transform="translate(756.962 218.857)"/><rect class="d" width="32.055" height="32.055" transform="translate(624.306 272.093)"/><rect class="d" width="32.055" height="32.055" transform="translate(667.335 272.093)"/><rect class="d" width="32.055" height="32.055" transform="translate(711.8 272.093)"/><rect class="d" width="32.055" height="32.055" transform="translate(757.669 272.093)"/><rect class="d" width="32.055" height="32.055" transform="translate(623.608 329.725)"/><rect class="d" width="32.055" height="32.055" transform="translate(666.638 329.725)"/><rect class="d" width="32.055" height="32.055" transform="translate(711.103 329.725)"/><rect class="d" width="32.055" height="32.055" transform="translate(756.962 329.725)"/><rect class="c" width="180.011" height="316.315" transform="translate(483.141 86.736)"/><rect class="w" width="31.964" height="47.688" transform="translate(563.733 338.911)"/><rect class="w" width="32.055" height="32.055" transform="translate(520.057 127.603)"/><rect class="w" width="32.055" height="32.055" transform="translate(563.086 127.603)"/><rect class="w" width="32.055" height="32.055" transform="translate(606.227 127.603)"/><rect class="w" width="32.055" height="32.055" transform="translate(520.663 182.002)"/><rect class="w" width="32.055" height="32.055" transform="translate(563.692 182.002)"/><rect class="w" width="32.055" height="32.055" transform="translate(606.833 182.002)"/><rect class="w" width="32.055" height="32.055" transform="translate(521.653 234.126)"/><rect class="w" width="32.055" height="32.055" transform="translate(563.349 234.126)"/><rect class="w" width="32.055" height="32.055" transform="translate(606.5 234.126)"/><rect class="w" width="32.055" height="32.055" transform="translate(520.057 282.501)"/><rect class="w" width="32.055" height="32.055" transform="translate(563.086 282.501)"/><rect class="w" width="32.055" height="32.055" transform="translate(606.227 282.501)"/><rect class="f" width="469.707" height="15.259" transform="translate(663.515 387.519)"/><circle class="m" cx="7.225" cy="7.225" r="7.225" transform="translate(330.941 308.685)"/><circle class="m" cx="7.225" cy="7.225" r="7.225" transform="translate(458.069 305.886)"/></g></svg>