<svg xmlns="http://www.w3.org/2000/svg" width="42.481" height="50" viewBox="0 0 42.481 50"><defs><style>.a{fill:#759631;}</style></defs><g transform="translate(0 0)"><path class="a" d="M81.633,25.17c1.3-7.07-.823-16.788-8.566-21.419A21.515,21.515,0,0,0,56.992,1.728c-7.5,2.007-13.02,7.392-14.755,14.4a14.26,14.26,0,0,0-.486,4.369,14.666,14.666,0,0,0,.5,2.7,11.666,11.666,0,0,1,.5,3.463c-.035,1.4-1,2.845-1.846,4.123-.926,1.395-1.726,2.6-1.262,3.71a2.72,2.72,0,0,0,2.083,1.334,1,1,0,0,0,.151.015.781.781,0,0,1,.874.833c0,1.731.043,2.624.758,3.034a1.525,1.525,0,0,0-.129.411,1.484,1.484,0,0,0,.469,1.313,2.53,2.53,0,0,0,1.321.674l.1.022a2.13,2.13,0,0,1,.026.375,8.969,8.969,0,0,1-.066.927c-.138,1.333-.328,3.158,2.338,4.029a5.491,5.491,0,0,0,1.645.2,26.093,26.093,0,0,0,7.406-1.42,9.413,9.413,0,0,1,1.217,3.922.833.833,0,0,0,.833.833H79.5a.827.827,0,0,0,.778-.576.852.852,0,0,0-.3-.938c-.862-.654-3.716-7.55-3.8-10.027.252-.571.589-1.213.988-1.958A39.146,39.146,0,0,0,81.633,25.17ZM74.5,39.375c.021,1.992,1.817,7.257,3.36,9.958H59.435a11.931,11.931,0,0,0-1.225-3.654c2.414-.946,4.54-2.162,5.56-3.5a.833.833,0,0,0-1.324-1.012c-2.358,3.085-12.167,5.427-14.358,4.711-1.387-.454-1.332-.986-1.2-2.273a10.477,10.477,0,0,0,.075-1.1c0-1.4-.566-1.823-1.417-2.02a1.068,1.068,0,0,1-.448-.173,2.312,2.312,0,0,1,.551-.39.833.833,0,0,0-.367-1.581c-.3,0-.635,0-.811-.022a12.863,12.863,0,0,1-.054-1.643,2.437,2.437,0,0,0-2.438-2.5c-.6-.127-.783-.289-.8-.327-.121-.289.682-1.5,1.113-2.147.925-1.393,2.076-3.126,2.123-5a11.69,11.69,0,0,0-.344-3.09,8.3,8.3,0,0,1,3.141-1.732,2.583,2.583,0,0,1,1.238.087.833.833,0,0,0,.443-1.606,4.2,4.2,0,0,0-2.026-.111,8.585,8.585,0,0,0-3.228,1.6,9.9,9.9,0,0,1-.23-1.475,12.333,12.333,0,0,1,.442-3.849c1.611-6.511,6.556-11.32,13.568-13.2A19.789,19.789,0,0,1,72.212,5.181C79.272,9.4,81.2,18.346,79.995,24.868a37.174,37.174,0,0,1-4.3,11.847c-.458.855-.853,1.593-1.139,2.275A.814.814,0,0,0,74.5,39.375Z" transform="translate(-39.51 -1)"/><path class="a" d="M160.6,57.79a2.472,2.472,0,0,0-2.009-2.659l-1.579-2.189a2.444,2.444,0,0,0,.221-.566l1.529-.612a2.468,2.468,0,1,0,2.389-4.039l-1.239-2.472a2.464,2.464,0,0,0-3.03-3.837L155.5,40.271a2.465,2.465,0,0,0-4.095-2.564l-2.445-.611a2.459,2.459,0,0,0-4.732-.029l-3.268.654a2.462,2.462,0,0,0-3.938,2.906l-1.6,2.132a2.467,2.467,0,0,0-.141,4.825l1.324,3.269a2.47,2.47,0,1,0,4.06,2.583H145.1a2.388,2.388,0,0,0,2.7,1.611l2.738,4.165A2.468,2.468,0,1,0,154.8,61.29l2.044-1.634A2.462,2.462,0,0,0,160.6,57.79Zm.011-8.478a.825.825,0,1,1-.755,1.152c0-.008,0-.015,0-.023l-.005-.008a.813.813,0,0,1-.06-.3A.826.826,0,0,1,160.615,49.312Zm-3.282-5.941a.825.825,0,1,1,.808.992.815.815,0,0,1-.3-.06l-.007,0c-.007,0-.015,0-.022,0A.824.824,0,0,1,157.333,43.371Zm-.82,2.016h0L154.989,49.2l-2.672-2.137a2.462,2.462,0,0,0,.763-1.174l3.268-.654C156.4,45.289,156.456,45.337,156.513,45.388Zm-.878,6.622a.824.824,0,1,1-.793-1.048.815.815,0,0,1,.3.06l.007,0c.007,0,.015,0,.023,0A.824.824,0,0,1,155.635,52.009ZM153.192,38.59a.825.825,0,1,1-.825.825A.825.825,0,0,1,153.192,38.59Zm-4.34.177,1.884.471c0,.059-.018.116-.018.176a2.477,2.477,0,0,0,2.474,2.474,2.447,2.447,0,0,0,1.254-.353l1.382,1.147a2.449,2.449,0,0,0-.162.856c0,.05.012.1.015.146L153,44.222a2.475,2.475,0,0,0-1.9-1.469l-3.02-3.02A2.481,2.481,0,0,0,148.852,38.768Zm2.691,6.421a.825.825,0,1,1-.825-.825A.825.825,0,0,1,151.543,45.188Zm-4.949-8.248a.825.825,0,1,1-.825.825A.825.825,0,0,1,146.594,36.941Zm.163,3.8,2.476,2.476a2.47,2.47,0,0,0-.838,1.142h-1.954a2.471,2.471,0,0,0-1.075-1.3Zm-5.127-1.476,2.686-.537a2.48,2.48,0,0,0,1.03,1.158l-1.5,2.5-2.588-1.661a2.452,2.452,0,0,0,.384-1.31C141.646,39.365,141.634,39.319,141.631,39.27Zm3.314,5.919a.825.825,0,1,1-.825-.825A.825.825,0,0,1,144.945,45.188Zm-5.773-6.6a.825.825,0,1,1-.825.825A.825.825,0,0,1,139.171,38.59Zm-.9,3.124a2.314,2.314,0,0,0,1.58.067l2.546,1.634a2.469,2.469,0,0,0-.6.948h-3.6a2.476,2.476,0,0,0-.975-1.245Zm-2.4,4.3a.825.825,0,1,1,.825-.825A.825.825,0,0,1,135.872,46.013Zm2.474,7.423a.825.825,0,1,1,.825-.825A.825.825,0,0,1,138.347,53.436Zm.469-3.252a2.474,2.474,0,0,0-.469-.047c-.082,0-.159.016-.238.024l-1.124-2.775a2.472,2.472,0,0,0,1.21-1.373h3.6a2.466,2.466,0,0,0,.745,1.065Zm6.281,1.6h-4.428a2.456,2.456,0,0,0-.376-.685l4.051-3.375,1.379,3.094A2.469,2.469,0,0,0,145.1,51.786Zm1.345-5.773H148.4a2.471,2.471,0,0,0,1.075,1.3l-1.715,2.858a2.452,2.452,0,0,0-.337-.034c-.064,0-.124.014-.187.019l-1.416-3.175A2.471,2.471,0,0,0,146.442,46.013Zm.977,7.423a.825.825,0,1,1,.825-.825A.825.825,0,0,1,147.419,53.436Zm3.52-5.364,2.3,1.843a2.463,2.463,0,0,0-.763,1.174l-2.784.557a2.476,2.476,0,0,0-.472-.714Zm1.428,13.612a.825.825,0,1,1,.825-.825A.825.825,0,0,1,152.367,61.683Zm3.3-4.124a2.444,2.444,0,0,0,.147.808l-1.392,1.113a2.379,2.379,0,0,0-2.431-1.058l-2.738-4.165a2.458,2.458,0,0,0,.528-.948l2.784-.557a2.471,2.471,0,0,0,3.231,1.316l1.017,1.41A2.469,2.469,0,0,0,155.666,57.56Zm.8-7.622L158.043,46c.033,0,.064.01.1.01a2.425,2.425,0,0,0,.3-.03l1,1.992a2.466,2.466,0,0,0-1.3,2.162c0,.033.009.064.01.1l-1.109.443A2.473,2.473,0,0,0,156.47,49.938Zm1.671,8.447a.825.825,0,1,1,.825-.825A.825.825,0,0,1,158.141,58.384Z" transform="translate(-123.899 -31.977)"/></g></svg>