<svg xmlns="http://www.w3.org/2000/svg" xmlns:xlink="http://www.w3.org/1999/xlink" width="1219.238" height="435.029" viewBox="0 0 1219.238 435.029"><defs><style>.a{fill:url(#a);}.b{fill:#415eaa;}.c{fill:#4dbfc3;}.d{fill:#fff;}.e{fill:#ec0916;}.f,.h,.k,.m,.n{fill:none;}.f,.m{stroke:#4dbfc3;}.f,.g,.h,.k,.l,.m,.n{stroke-miterlimit:10;}.f{stroke-width:4px;}.g,.i{fill:#2c4b9f;}.g,.h{stroke:#2c4b9f;stroke-width:2px;}.j,.l{fill:#2c4ba0;}.k,.l{stroke:#2c4ba0;stroke-width:3px;}.n{stroke:#415eaa;}.o{fill:#fc0b1d;}.p{fill:#fc0635;}</style><linearGradient id="a" x1="0.5" y1="0.763" x2="0.501" y2="-0.158" gradientUnits="objectBoundingBox"><stop offset="0" stop-color="#fff"/><stop offset="1" stop-color="#4ddde0"/></linearGradient></defs><g transform="translate(0 -34.966)"><path class="a" d="M1212.435,190.093h0Z" transform="translate(3.435 225.154)"/><rect class="b" width="55.287" height="1219.239" transform="translate(0 469.994) rotate(-90)"/><rect class="c" width="1219.172" height="15.335" transform="translate(0.066 414.708)"/><ellipse class="d" cx="53.085" cy="52.898" rx="53.085" ry="52.898" transform="translate(655.604 34.966)"/><circle class="e" cx="12.187" cy="12.187" r="12.187" transform="translate(1142.561 405.658)"/><line class="f" y1="3.556" x2="396.068" transform="translate(371.76 286.762)"/><line class="g" y1="5.493" x2="252.886" transform="translate(115.583 294.237)"/><line class="h" x2="253.425" y2="73.98" transform="translate(116.805 354.852)"/><line class="h" x2="1.222" y2="55.122" transform="translate(115.583 299.73)"/><line class="h" x2="1.442" y2="65.316" transform="translate(140.1 299.191)"/><line class="h" x2="1.552" y2="70.424" transform="translate(163.108 298.695)"/><line class="h" x2="1.684" y2="76.402" transform="translate(184.565 298.277)"/><line class="h" x2="1.861" y2="84.549" transform="translate(208.08 299.774)"/><line class="h" x2="2.059" y2="93.213" transform="translate(230.175 297.242)"/><line class="h" x2="0.716" y2="100.622" transform="translate(256.882 297.969)"/><line class="h" x2="2.367" y2="107.26" transform="translate(280.739 296.141)"/><line class="h" x2="2.543" y2="115.572" transform="translate(307.072 295.569)"/><line class="h" x2="2.719" y2="123.751" transform="translate(333.009 295.007)"/><line class="h" x2="2.961" y2="134.276" transform="translate(367.269 294.556)"/><line class="h" x1="251.95" y1="5.956" transform="translate(116.805 311.07)"/><line class="h" x1="251.51" y1="17.515" transform="translate(116.805 324.533)"/><line class="h" x1="253.183" y1="31.651" transform="translate(115.572 339.164)"/><line class="h" x1="252.655" y1="54.252" transform="translate(116.1 348.544)"/><rect class="i" width="6.176" height="70.27" transform="translate(110.023 295.91)"/><rect class="i" width="6.176" height="154.896" transform="translate(365.595 290.318)"/><ellipse class="j" cx="23.262" cy="22.029" rx="23.262" ry="22.029" transform="translate(86.761 223.46)"/><path class="j" d="M214.037,333.66c.176-11.769-19.067-11.758-19.244,0-.176,10.4-3.027,33.027-14.873,39.368-10.5-3.952-21.9,2.752-25.023,11.515-.165.253-.352.462-.506.738a55.829,55.829,0,0,1-11.317,14.036c-4.932-4.4-9.016-9.787-13.673-14.312a8.972,8.972,0,0,0-11.46-1.255L98.432,363.791c7.288-8.3,4.7-23.405-6.363-34.722-11.747-11.989-28.623-15.28-37.717-7.332s-6.848,24.22,4.9,36.175C70.327,369.23,85.97,372.8,95.262,366.5l19.574,19.97a8.29,8.29,0,0,0,.9,11.361c7.486,7.354,13.684,15.49,22.81,21.181,3.864,2.4,8.411,1.1,11.68-1.431a87.2,87.2,0,0,0,13.453-12.671c6.55,10.866,6,31.287,4.987,42.583a17.174,17.174,0,0,0,.242,4.811c-5.582,13.211-4.987,27.148-14.884,38.531A232.923,232.923,0,0,1,134.6,510.276c-8.961,8.18,4.668,21.06,13.607,12.9a254.729,254.729,0,0,0,21.247-21.545c9.908-11.46,11.262-24.484,15.49-37.617a22.63,22.63,0,0,0,3.754-.242c2.961,21.732,3.116,43.111-9.071,62.751-6.286,10.172,10.348,19.343,16.623,9.2,17.438-28.172,14.312-58.59,8.994-89.844a7.581,7.581,0,0,0-.253-.892c1.288-18.253-.341-42.935-11.3-59.448C208.4,373.975,213.762,350.955,214.037,333.66ZM60.9,356.459c-10.9-11.119-13.156-25.981-5.02-33.137S79.5,319.414,90.4,330.544s13.145,25.981,5.031,33.137S71.813,367.6,60.9,356.459Z" transform="translate(-45.347 -101.591)"/><ellipse class="j" cx="8.62" cy="8.158" rx="8.62" ry="8.158" transform="translate(162.679 186.107)"/><line class="k" y1="6.528" x2="396.828" transform="translate(371.76 283.789)"/><path class="b" d="M392.59,387.71l150.173-8.51s-12.88,27.875-39.181,31.926-97.462,5.5-97.462,5.5Z" transform="translate(-10.657 -95.356)"/><path class="l" d="M436.67,275.22c5.67,57.863,10.106,119.667,10.106,119.667" transform="translate(-6.21 -105.846)"/><path class="c" d="M473.615,287.121s35.636,35.229,12.451,86.035c-8.18,17.9-56.619,28.821-34.634,15.247s18.869-89.811-8.092-106.126C418.471,267.205,473.615,287.121,473.615,287.121Z" transform="translate(-6.187 -105.703)"/><path class="b" d="M437.1,275.51s94.6,64.369,9.908,119.843C447.03,395.353,571.926,344.019,437.1,275.51Z" transform="translate(-6.167 -105.817)"/><path class="e" d="M438.841,272.91s9.567,7.53,3.864,11.989-17.68,5.24-24.946,8.807S438.841,272.91,438.841,272.91Z" transform="translate(-8.238 -106.079)"/><path class="c" d="M465.55,390.642l150.217-8.972s-12.825,27.886-39.1,32.069-97.407,5.824-97.407,5.824Z" transform="translate(-3.296 -95.106)"/><path class="l" d="M509.29,278c5.835,57.852,10.47,119.634,10.47,119.634" transform="translate(1.117 -105.566)"/><path class="i" d="M546.447,287.071s35.757,35.163,12.715,85.991c-8.124,17.934-56.52,29-34.579,15.357s18.583-89.866-8.411-106.1C491.248,267.332,546.447,287.071,546.447,287.071Z" transform="translate(1.159 -105.697)"/><path class="c" d="M507.17,275.7s94.8,64.083,10.3,119.821C517.474,395.521,642.217,343.8,507.17,275.7Z" transform="translate(0.903 -105.798)"/><path class="e" d="M511.446,275.66s9.589,7.508,3.9,11.978-17.614,5.3-24.913,8.807S511.446,275.66,511.446,275.66Z" transform="translate(-0.907 -105.802)"/><path class="b" d="M552.84,395.74l150.338-6.11s-13.332,27.676-39.632,31.331S566,424.925,566,424.925Z" transform="translate(5.511 -94.303)"/><path class="l" d="M598.7,284.18c4.734,57.951,8.191,119.8,8.191,119.8" transform="translate(10.138 -104.942)"/><path class="c" d="M635.449,296.682s35.119,35.823,11.075,86.233c-8.466,17.779-57.07,27.919-34.876,14.7s20.3-89.492-6.385-106.247C580.636,275.886,635.449,296.682,635.449,296.682Z" transform="translate(10.158 -104.795)"/><path class="b" d="M599.12,284.48s93.576,65.877,8.025,120C607.145,404.477,732.834,355.146,599.12,284.48Z" transform="translate(10.18 -104.912)"/><path class="e" d="M600.932,281.88s9.446,7.706,3.677,12.044-17.757,4.965-25.089,8.378S600.932,281.88,600.932,281.88Z" transform="translate(8.082 -105.174)"/><path class="c" d="M748.365,432.222H735V344.36h13.376v87.862Z" transform="translate(23.889 -98.871)"/><path class="m" d="M685.484,393.9s-.507-4.745,1.938-4.7,10.029-2.136,7.6.881-.11,1.365-2.422,3.028S685.484,393.9,685.484,393.9Z" transform="translate(18.889 -94.42)"/><path class="n" d="M752.573,390.255c-4.767-2.6-8.312-2.917-10.624-2.752s-2.906.782-9.511,3.094c-7.178,2.521-9.082,2.708-10.062,2.763a25.968,25.968,0,0,1-8.95-1.376,78.98,78.98,0,0,0-20.135-2.411" transform="translate(19.681 -94.521)"/><path class="i" d="M622.166,416.444c-1.277,4.062-3.3,7.816-6.187,9.765s-6.011,2.07-9.534,1.4a46.522,46.522,0,0,1-10.734-3.853c-1.805-.87-3.589-1.761-5.339-2.741a67.613,67.613,0,0,0-6.066-3.094,48.778,48.778,0,0,0-13.9-3.974,32.014,32.014,0,0,0-15.027,1.607,26.477,26.477,0,0,0-11.691,8.587,25.321,25.321,0,0,0-5.163,12.11c5.383-6.782,12.253-11.647,19.376-12.792s14.5.8,21.677,4.007c1.872.815,3.446,1.629,5.5,2.675a61.788,61.788,0,0,0,6.363,2.774,41.832,41.832,0,0,0,14.312,2.95,21.3,21.3,0,0,0,7.882-1.343,14.465,14.465,0,0,0,6.44-4.855A15.787,15.787,0,0,0,622.166,416.444Z" transform="translate(4.066 -91.878)"/><path class="c" d="M622.647,420.471c-1.3,3.3-3.3,6.462-6.253,8.07s-6.077,1.717-9.633,1.156a54.29,54.29,0,0,1-10.855-3.181c-1.816-.716-3.622-1.453-5.383-2.268s-4.029-1.794-6.132-2.554a57.727,57.727,0,0,0-14.048-3.3,39.4,39.4,0,0,0-15.192,1.332,26.929,26.929,0,0,0-11.813,7.068,19.233,19.233,0,0,0-5.229,10.062c5.449-5.614,12.385-9.644,19.585-10.591s14.664.661,21.908,3.3c1.883.672,3.479,1.343,5.56,2.2s4.227,1.629,6.429,2.3a50.934,50.934,0,0,0,14.422,2.444,25.922,25.922,0,0,0,7.971-1.1,14.54,14.54,0,0,0,6.5-4.007A11.141,11.141,0,0,0,622.647,420.471Z" transform="translate(4.025 -91.424)"/><path class="i" d="M702.306,410.791c-.8,2.851-2.081,5.5-3.886,6.881a6.858,6.858,0,0,1-5.989.98,27.289,27.289,0,0,1-6.738-2.719c-1.1-.605-2.2-1.233-3.3-1.927s-2.5-1.519-3.809-2.2a28.164,28.164,0,0,0-8.741-2.785,18.087,18.087,0,0,0-9.435,1.1,16.91,16.91,0,0,0-7.343,6.044,19.086,19.086,0,0,0-3.3,8.565c3.38-4.778,7.706-8.213,12.176-9.016s9.1.561,13.607,2.829a35.066,35.066,0,0,1,3.446,1.883A26.965,26.965,0,0,0,683,422.372a23.671,23.671,0,0,0,8.95,2.081,12.009,12.009,0,0,0,4.954-.947,9.312,9.312,0,0,0,4.04-3.413,12.341,12.341,0,0,0,1.365-9.3Z" transform="translate(15.289 -92.367)"/><path class="c" d="M701.233,413.014c-.771,2.741-1.993,5.3-3.743,6.605a6.539,6.539,0,0,1-5.758.947,25.9,25.9,0,0,1-6.484-2.609c-1.1-.595-2.2-1.189-3.226-1.861A38.848,38.848,0,0,0,678.356,414a26.84,26.84,0,0,0-8.4-2.708,17.548,17.548,0,0,0-9.082,1.1,16.261,16.261,0,0,0-7.068,5.835,18.387,18.387,0,0,0-3.127,8.246c3.3-4.6,7.409-7.9,11.714-8.675s8.807.539,13.1,2.719c1.1.539,2.081,1.1,3.3,1.806a42.777,42.777,0,0,0,3.842,1.883,22.968,22.968,0,0,0,8.631,2,11.43,11.43,0,0,0,4.756-.914,8.808,8.808,0,0,0,3.9-3.3A11.791,11.791,0,0,0,701.233,413.014Z" transform="translate(15.382 -92.135)"/><path class="i" d="M751.211,417.121a8.808,8.808,0,0,1-2.521,4.613,4.3,4.3,0,0,1-3.886.661,17.38,17.38,0,0,1-4.4-1.817c-.738-.418-1.464-.837-2.2-1.3s-1.618-1.024-2.466-1.464a17.832,17.832,0,0,0-5.67-1.883,11.436,11.436,0,0,0-6.132.76,11.009,11.009,0,0,0-4.767,4.062,13.011,13.011,0,0,0-2.114,5.758c2.2-3.215,5-5.5,7.9-6.055s5.912.374,8.807,1.894c.76.385,1.409.771,2.2,1.266a28.657,28.657,0,0,0,2.6,1.31,14.948,14.948,0,0,0,5.813,1.4,7.584,7.584,0,0,0,3.215-.638,6.032,6.032,0,0,0,2.631-2.29A8.476,8.476,0,0,0,751.211,417.121Z" transform="translate(22.078 -91.663)"/><path class="c" d="M750.524,418.58a8.577,8.577,0,0,1-2.433,4.4,4.14,4.14,0,0,1-3.743.639,16.819,16.819,0,0,1-4.216-1.75c-.7-.4-1.409-.8-2.092-1.255s-1.563-.98-2.378-1.409a17.538,17.538,0,0,0-5.5-1.816,11.009,11.009,0,0,0-5.9.738,10.655,10.655,0,0,0-4.591,3.908,12.558,12.558,0,0,0-2.026,5.5c2.114-3.094,4.8-5.317,7.607-5.835s5.692.363,8.51,1.827c.726.374,1.343.738,2.2,1.222a26.64,26.64,0,0,0,2.5,1.266,14.707,14.707,0,0,0,5.6,1.343,7.431,7.431,0,0,0,3.093-.616,5.834,5.834,0,0,0,2.521-2.2A8.189,8.189,0,0,0,750.524,418.58Z" transform="translate(22.138 -91.515)"/><path class="i" d="M715.452,432.42a9.006,9.006,0,0,1-2.532,4.624,4.337,4.337,0,0,1-3.886.66,17.758,17.758,0,0,1-4.4-1.827c-.738-.407-1.453-.826-2.2-1.3s-1.629-1.024-2.477-1.453a17.842,17.842,0,0,0-5.669-1.893,11.46,11.46,0,0,0-6.132.771,11.009,11.009,0,0,0-4.767,4.062,12.868,12.868,0,0,0-2.1,5.747c2.2-3.2,4.987-5.5,7.893-6.055s5.923.385,8.807,1.9a20.783,20.783,0,0,1,2.2,1.266,18.5,18.5,0,0,0,2.6,1.31,15.19,15.19,0,0,0,5.824,1.4,7.827,7.827,0,0,0,3.215-.639,6.089,6.089,0,0,0,2.62-2.3,8.523,8.523,0,0,0,1.013-6.275Z" transform="translate(18.469 -90.119)"/><path class="c" d="M714.754,433.92a8.622,8.622,0,0,1-2.433,4.4,4.161,4.161,0,0,1-3.743.627,16.82,16.82,0,0,1-4.216-1.75c-.7-.4-1.4-.793-2.092-1.244s-1.563-.991-2.378-1.409a17.175,17.175,0,0,0-5.5-1.817,11.008,11.008,0,0,0-5.9.738,10.646,10.646,0,0,0-4.591,3.908,12.529,12.529,0,0,0-2.026,5.5c2.114-3.083,4.811-5.306,7.607-5.824s5.692.363,8.51,1.827c.738.363,1.354.738,2.2,1.222a27.9,27.9,0,0,0,2.5,1.255,14.313,14.313,0,0,0,5.6,1.343,7.211,7.211,0,0,0,3.093-.605,5.78,5.78,0,0,0,2.521-2.2A8.135,8.135,0,0,0,714.754,433.92Z" transform="translate(18.529 -89.967)"/><path class="i" d="M665.005,432.74a11.162,11.162,0,0,1-3.148,5.769,5.406,5.406,0,0,1-4.855.815,21.811,21.811,0,0,1-5.5-2.268c-.914-.518-1.827-1.035-2.719-1.618a35.016,35.016,0,0,0-3.082-1.817,22.022,22.022,0,0,0-7.079-2.356,14.312,14.312,0,0,0-7.651.947,13.761,13.761,0,0,0-5.945,5.075,16.2,16.2,0,0,0-2.631,7.167c2.741-4.007,6.231-6.87,9.908-7.541s7.376.462,11.009,2.356c.947.484,1.75.958,2.8,1.585a35.8,35.8,0,0,0,3.248,1.629,18.649,18.649,0,0,0,7.255,1.739,9.356,9.356,0,0,0,4.018-.793,7.487,7.487,0,0,0,3.3-2.862A10.535,10.535,0,0,0,665.005,432.74Z" transform="translate(12.528 -90.119)"/><path class="c" d="M664.146,434.61a10.746,10.746,0,0,1-3.039,5.5,5.186,5.186,0,0,1-4.668.793,20.919,20.919,0,0,1-5.262-2.2c-.881-.5-1.75-1-2.609-1.552s-1.96-1.233-2.972-1.761a21.515,21.515,0,0,0-6.815-2.257,13.608,13.608,0,0,0-7.365.914,13.211,13.211,0,0,0-5.725,4.877,15.512,15.512,0,0,0-2.532,6.914c2.631-3.864,6-6.605,9.49-7.277s7.112.451,10.624,2.279c.914.462,1.684.925,2.7,1.519a30.594,30.594,0,0,0,3.116,1.574,18.13,18.13,0,0,0,6.991,1.684,9.322,9.322,0,0,0,3.864-.771,7.2,7.2,0,0,0,3.149-2.752A10.217,10.217,0,0,0,664.146,434.61Z" transform="translate(12.606 -89.93)"/><rect class="b" width="14.014" height="11.306" transform="translate(758.889 239.148)"/><ellipse class="e" cx="12.198" cy="12.154" rx="12.198" ry="12.154" transform="translate(159.101 178.126)"/><path class="c" d="M655.978,464.05l.264-.11c4.69-1.938,145.064-56.146,296.14-42.715,153.861,13.717,184.884,19.717,184.884,19.717s60.769-.859,0,8.565-68.52,17.141-38.785,17.141,85.583,7.706,59.6,14.576-44.091,6.859-75.114,6.859h-35.229c-9.3,0-12.407,8.257-4.183,11.141l26.488,9.324s-27.148,8.873-73.694,8.807-27.148,5.394-68.519-4.635-66.395,1.42-66.395,1.42c-40.083.1,26.553,4.283-40.667,0s-90.394,6.341-105.961,7.233c-17.868,1,45.225-42.285-15.809-30.7-38.069,7.222-102.141,2.576-102.141-.859S652.587,465.228,655.978,464.05Z" transform="translate(9.952 -91.331)"/><path class="j" d="M989.131,312.967c2.719-.088,23.493,1.1,44.817,2.389,1.728-8.983,8.147-15.666,15.831-15.666,8.235,0,15.027,7.706,16.128,17.614l11.559.727c1.739-3.093,4.855-5.174,7.706-5.174,5.383,0,8.4,5.207,9.017,11.328,1.277,12.7-.441,26.719-8.642,35.394-7.332,7.706-16.976,9.4-26.245,8.576-5.009,17.394-5.9,36.01-10.569,53.514,5.339,28.623,9.413,57.423,12.407,86.574,2.036,19.882-22.777,19.651-24.792,0-1.805-17.614-4.161-35.03-6.969-52.38a234.183,234.183,0,0,1-23.647,56.465c-9.446,15.9-30.979.4-21.412-15.732,12.979-21.842,21.533-46.238,26.63-72.417a24.068,24.068,0,0,1,.132-12.5c5.306-18.286,5.956-37.937,11.262-56.223,3.072-10.569,10.227-18.176,18.979-17.845-4.679-3.6-7.816-10.062-7.816-17.471V320l-38.531-.539c4.315,24.737-20.455,26.234-20.8,19.992C973.752,331.847,983.307,313.165,989.131,312.967Zm65.228,31.375a5.654,5.654,0,0,1,.738,0c6.264,1.035,13.332,1.883,18.627-2.378,3.468-2.785,3.005-12.385,2.4-18.385a10.21,10.21,0,0,1,.3-3.589l-10.359-.143c-.121,11.108-7.288,20.069-16.139,20.168a21.425,21.425,0,0,1,4.425,4.327Z" transform="translate(48.02 -103.378)"/><path class="c" d="M936.937,289.94H809.156a5.5,5.5,0,0,0-5.306,5.592V300.5a5.5,5.5,0,0,0,5.306,5.593H936.937a5.5,5.5,0,0,0,5.306-5.593V295.51A5.5,5.5,0,0,0,936.937,289.94Z" transform="translate(30.836 -104.361)"/><path class="i" d="M841.99,377.657V360.67H816.966a5.5,5.5,0,0,0-5.306,5.593v11.394Z" transform="translate(31.624 -97.225)"/><path class="c" d="M823.517,360.67h-6.55a5.5,5.5,0,0,0-5.306,5.593v11.394h6.605V366.263A5.5,5.5,0,0,1,823.517,360.67Z" transform="translate(31.624 -97.225)"/><path class="c" d="M854.81,409.773h13.42V392.158a4.15,4.15,0,0,0-4.029-4.238h-9.358Z" transform="translate(35.977 -94.476)"/><path class="i" d="M854.81,387.87h7.2v21.908h-7.2Z" transform="translate(35.977 -94.481)"/><path class="i" d="M850.6,378.957v-28.04a3.061,3.061,0,0,0-2.984-3.138H841.6a3.061,3.061,0,0,0-2.983,3.138v28.04Z" transform="translate(34.344 -98.526)"/><path class="c" d="M847.848,347.79h-6.275a3.06,3.06,0,0,0-2.983,3.138v28.029H845.2v-28.04A3.083,3.083,0,0,1,847.848,347.79Z" transform="translate(34.341 -98.525)"/><path class="c" d="M832.231,389.8c13.123,0,24.22,8.873,28.37,21.225V379.234a3.666,3.666,0,0,0-3.567-3.754H807.417a3.666,3.666,0,0,0-3.567,3.754v31.8C807.945,398.676,819.1,389.8,832.231,389.8Z" transform="translate(30.836 -95.731)"/><path class="i" d="M810.4,379.234a3.666,3.666,0,0,1,3.567-3.754h-6.55a3.666,3.666,0,0,0-3.567,3.754v31.8a31.928,31.928,0,0,1,6.55-11.328Z" transform="translate(30.836 -95.731)"/><path class="c" d="M919.464,394.373A32.091,32.091,0,0,1,947.525,410.7V389.375a28.766,28.766,0,0,0-28.931-28.535H904.5a3.226,3.226,0,0,0-3.3,3.2V400.01A32.2,32.2,0,0,1,919.464,394.373Z" transform="translate(40.658 -97.208)"/><path class="i" d="M907.736,361.134a3.127,3.127,0,0,1,3.05-3.2h-6.506a3.126,3.126,0,0,0-3.049,3.2v36.1a29.461,29.461,0,0,1,6.55-3.622Z" transform="translate(40.661 -97.502)"/><path class="c" d="M949.227,416.009c-1.662-15.831-14.4-28.139-29.867-28.139-13.133,0-24.286,8.862-28.37,21.214h11.229A19.629,19.629,0,0,1,919.36,398.67c10.921,0,19.816,9.336,19.816,20.84h7.079a3.127,3.127,0,0,0,2.973-3.5Z" transform="translate(39.628 -94.481)"/><path class="i" d="M922.585,388.017a28.35,28.35,0,0,0-3.225-.187c-13.133,0-24.286,8.862-28.37,21.214h6.462C901.206,397.771,910.883,389.382,922.585,388.017Z" transform="translate(39.628 -94.485)"/><path class="c" d="M853.17,408.035H864.4c-4.085-12.363-15.237-21.225-28.37-21.225-15.413,0-28.2,12.308-29.867,28.139a3.127,3.127,0,0,0,3.005,3.5h7.079c0-11.5,8.807-20.84,19.816-20.84A19.641,19.641,0,0,1,853.17,408.035Z" transform="translate(31.067 -94.588)"/><path class="i" d="M809.064,416.009c1.541-14.7,12.638-26.355,26.6-27.952-16.712-1.915-31.364,10.833-33.159,27.952a3.116,3.116,0,0,0,3.005,3.5h6.605a3.127,3.127,0,0,1-3.05-3.5Z" transform="translate(30.697 -94.481)"/><path class="i" d="M905.145,423.962a21.852,21.852,0,0,1,1.7-16.822H845.19a21.808,21.808,0,0,1,1.706,16.822Z" transform="translate(35.007 -92.537)"/><path class="c" d="M852.181,407.14H845.19a21.808,21.808,0,0,1,1.706,16.822h6.98A21.81,21.81,0,0,0,852.181,407.14Z" transform="translate(35.007 -92.537)"/><path class="i" d="M831.473,397.37c-11.086,0-20.113,9.5-20.113,21.181s9.027,21.181,20.113,21.181,20.113-9.5,20.113-21.181S842.57,397.37,831.473,397.37Z" transform="translate(31.594 -93.522)"/><path class="c" d="M817.91,418.553c0-10.5,7.3-19.244,16.844-20.917-12.352-2.136-23.394,7.948-23.394,20.917,0,11.68,9.027,21.181,20.113,21.181a19.027,19.027,0,0,0,3.3-.286C825.209,437.8,817.91,429.056,817.91,418.553Z" transform="translate(31.594 -93.524)"/><path class="o" d="M840.435,417.565a9.908,9.908,0,1,1-9.908-10.425,10.161,10.161,0,0,1,9.908,10.425Z" transform="translate(32.529 -92.537)"/><path class="i" d="M833.821,407.735c-6.429-2.378-13.211,2.653-13.211,9.831a10.172,10.172,0,0,0,9.908,10.414,9.611,9.611,0,0,0,3.3-.584C825.014,424.138,825.014,410.982,833.821,407.735Z" transform="translate(32.527 -92.537)"/><path class="i" d="M918.6,397.37c-11.1,0-20.113,9.5-20.113,21.181s9.016,21.181,20.113,21.181,20.08-9.5,20.08-21.181S929.689,397.37,918.6,397.37Z" transform="translate(40.384 -93.522)"/><path class="c" d="M905.032,418.553c0-10.5,7.31-19.244,16.844-20.917a18.9,18.9,0,0,0-3.3-.286c-11.1,0-20.113,9.5-20.113,21.181s9.016,21.181,20.113,21.181a18.9,18.9,0,0,0,3.3-.286C912.342,437.8,905.032,429.056,905.032,418.553Z" transform="translate(40.381 -93.524)"/><path class="p" d="M927.555,417.565a9.908,9.908,0,1,1-9.908-10.425,10.162,10.162,0,0,1,9.908,10.425Z" transform="translate(41.319 -92.537)"/><path class="i" d="M920.935,407.735a9.258,9.258,0,0,0-3.3-.595,10.437,10.437,0,0,0,0,20.84,9.5,9.5,0,0,0,3.3-.584C912.128,424.138,912.139,410.982,920.935,407.735Z" transform="translate(41.322 -92.537)"/><path class="c" d="M917.922,404.73c-6.815,0-12.352,5.835-12.352,13s5.5,13.012,12.352,13.012,12.341-5.835,12.341-13.012S924.759,404.73,917.922,404.73Zm0,20.84a7.838,7.838,0,1,1,7.431-7.838A7.706,7.706,0,0,1,917.922,425.57Z" transform="translate(41.099 -92.78)"/><path class="c" d="M830.792,404.73c-6.8,0-12.352,5.835-12.352,13s5.5,13.012,12.352,13.012,12.352-5.835,12.352-13.012S837.607,404.73,830.792,404.73Zm0,20.84a7.838,7.838,0,1,1,7.442-7.838A7.651,7.651,0,0,1,830.792,425.57Z" transform="translate(32.308 -92.78)"/><path class="i" d="M957.293,416.2V401.732a2.455,2.455,0,0,0-4.91,0V408.9a31.8,31.8,0,0,0-23.867-11.009,31.081,31.081,0,0,0-14.687,3.689V370.753a.616.616,0,0,1,.594-.627h13.211c11.559,0,21.456,8.268,24.077,20.113a2.466,2.466,0,0,0,2.95,1.938,2.6,2.6,0,0,0,1.828-3.1c-2.9-13.112-13.651-23.119-26.928-24.043l-12.7-54.109H937.3a7.982,7.982,0,0,0,7.706-8.169v-4.965a7.971,7.971,0,0,0-7.707-8.169h-1.288v-2.389a7.981,7.981,0,0,0-7.761-8.169H818.57a7.981,7.981,0,0,0-7.706,8.169v2.389h-1.288a7.97,7.97,0,0,0-7.706,8.169v4.965a7.982,7.982,0,0,0,7.706,8.169h15.677v57.07h-7.079a7.982,7.982,0,0,0-7.761,8.169v8.125h-2.62a6.209,6.209,0,0,0-6.033,6.352v30.671a36.778,36.778,0,0,0-1.475,7.068,5.659,5.659,0,0,0,5.5,6.363h4.756c1.233,11.7,10.667,20.84,22.106,20.84a22.3,22.3,0,0,0,20.543-14.433h21.644a2.587,2.587,0,1,0,0-5.174h-20.29a26.279,26.279,0,0,0,.3-3.82,24.933,24.933,0,0,0-1.288-7.827h54a24.921,24.921,0,0,0-1.288,7.827,26.33,26.33,0,0,0,.3,3.82H886.286a2.587,2.587,0,1,0,0,5.174h21.688a22.3,22.3,0,0,0,20.543,14.433c11.427,0,20.917-9.137,22.095-20.84h4.767a5.647,5.647,0,0,0,5.438-6.363A35.464,35.464,0,0,0,957.293,416.2ZM809.52,305.757h0a2.939,2.939,0,0,1-2.851-3.005v-4.965a2.939,2.939,0,0,1,2.851-3.005H937.3a2.94,2.94,0,0,1,2.852,3.005v4.965a2.939,2.939,0,0,1-2.852,3.005Zm20.587,67.408h9.908v11.119h-9.908Zm-14.84,2.994a2.928,2.928,0,0,1,2.851-2.994H825.2v11.119h-9.908ZM832.6,450.4c-9.556,0-17.328-8.191-17.328-18.253S823.04,413.9,832.6,413.9s17.328,8.07,17.328,18.253C849.923,442.157,842.2,450.4,832.6,450.4Zm18.495-31.254A22.017,22.017,0,0,0,832.6,408.734c-11.46,0-20.917,9.17-22.106,20.829h-4.756a.572.572,0,0,1-.562-.628c1.541-14.8,13.5-25.838,27.423-25.838a27.522,27.522,0,0,1,24.627,16.051Zm7.42-7.651a31.551,31.551,0,0,0-51.841,0V390.635a1.1,1.1,0,0,1,1.1-1.178h49.606a1.1,1.1,0,0,1,1.1,1.178Zm-13.563-27.214v-24.77a.529.529,0,0,1,.528-.55h6.011a.54.54,0,0,1,.528.55v24.77Zm26.3,34.865H863.42V403.1h6.253a1.629,1.629,0,0,1,1.574,1.651Zm4.91,0v-14.4a6.671,6.671,0,0,0-6.484-6.826H863.42v-7.288a6.2,6.2,0,0,0-6.022-6.352h-.473v-24.77a5.593,5.593,0,0,0-5.438-5.725h-6.011a5.593,5.593,0,0,0-5.439,5.725v8.477h-9.908V310.92h81.686l12.715,54.043H914.469a5.67,5.67,0,0,0-5.5,5.8v13.794l-13.453-10.381,1.475-2.015a2.7,2.7,0,0,0-.44-3.633,2.378,2.378,0,0,0-3.446.462l-6.044,8.224a2.7,2.7,0,0,0,.441,3.633,2.389,2.389,0,0,0,3.446-.462l1.552-2.125,16.513,12.715v13.882a33.982,33.982,0,0,0-10.469,14.312ZM928.516,450.4c-9.512,0-17.339-8.136-17.339-18.253S919.07,413.9,928.516,413.9s17.328,8.213,17.328,18.253S938.072,450.4,928.516,450.4Zm26.862-20.84h-4.756c-1.233-11.758-10.745-20.829-22.106-20.829a22.019,22.019,0,0,0-18.5,10.414h-6.187A27.523,27.523,0,0,1,928.516,403.1c14.025,0,25.893,11.152,27.423,25.838a.572.572,0,0,1-.561.628Z" transform="translate(30.472 -105.459)"/><path class="c" d="M739.42,378.92" transform="translate(24.335 -95.384)"/></g></svg>