<svg xmlns="http://www.w3.org/2000/svg" width="58.871" height="50" viewBox="0 0 58.871 50"><defs><style>.a{fill:#759631;}</style></defs><g transform="translate(0 0)"><path class="a" d="M33,309.643v9.447a1.055,1.055,0,0,0,1.054,1.054h7.3a1.055,1.055,0,0,0,1.054-1.054v-16.62l-5.3,5.3A6.435,6.435,0,0,1,33,309.643Z" transform="translate(-29.049 -270.145)"/><path class="a" d="M142,301.471v16.74a1.055,1.055,0,0,0,1.054,1.054h7.3a1.055,1.055,0,0,0,1.054-1.054v-9.855a6.367,6.367,0,0,1-4.394-1.868Z" transform="translate(-124.792 -269.264)"/><path class="a" d="M251,282.579v10.9a1.055,1.055,0,0,0,1.054,1.054h7.3a1.055,1.055,0,0,0,1.054-1.054v-20.1l-8.37,8.37A6.268,6.268,0,0,1,251,282.579Z" transform="translate(-220.584 -244.529)"/><path class="a" d="M368.705,170.171,360,178.876v23.756a1.055,1.055,0,0,0,1.054,1.054h7.3a1.055,1.055,0,0,0,1.054-1.054v-31.8c-.239-.2-.419-.383-.551-.5Z" transform="translate(-316.305 -153.686)"/><path class="a" d="M58.37,37.242a2.051,2.051,0,0,0-1.56-.571h-.194c-3.435.158-6.858.328-10.293.486a2.216,2.216,0,0,0-1.584.546,1.81,1.81,0,0,0-.375.559,1.79,1.79,0,0,0,.544,2.161l.859.874c.593.607,1.2,1.214,1.8,1.809L26.814,63.955l-9.325-9.362a2.956,2.956,0,0,0-4.2,0L.871,67.051a2.984,2.984,0,0,0,0,4.213l.556.559a2.956,2.956,0,0,0,4.2,0l9.761-9.8,9.325,9.362a2.97,2.97,0,0,0,4.209,0L52.334,47.878l2.649,2.647a2,2,0,0,0,1.415.753,1.746,1.746,0,0,0,.847-.231,2.3,2.3,0,0,0,.508-.376,2.475,2.475,0,0,0,.641-1.712c.1-2.234.206-4.468.314-6.715l.157-3.363A2.1,2.1,0,0,0,58.37,37.242Z" transform="translate(0 -36.671)"/></g></svg>