<svg xmlns="http://www.w3.org/2000/svg" width="50" height="50" viewBox="0 0 50 50"><defs><style>.a{fill:#4dbfc3;}</style></defs><g transform="translate(0 0)"><g transform="translate(18.144 6.016)"><path class="a" d="M187,60a1,1,0,1,0,1,1A1,1,0,0,0,187,60Z" transform="translate(-186 -60)"/></g><g transform="translate(21.929 7.734)"><path class="a" d="M228.433,86.016a1,1,0,0,1,0-2.005,1.61,1.61,0,0,1,1.084.524,1,1,0,0,0,1.395-1.441,3.873,3.873,0,0,0-1.476-.923V81a1,1,0,1,0-2.005,0v1.175a3.008,3.008,0,0,0,1,5.843,1,1,0,1,1,0,2.005,1.815,1.815,0,0,1-1.3-.758,1,1,0,0,0-1.535,1.29,4.157,4.157,0,0,0,1.834,1.306v1.17a1,1,0,1,0,2.005,0V91.859a3.008,3.008,0,0,0-1-5.843Z" transform="translate(-225.361 -80)"/></g><g transform="translate(27.943 13.304)"><path class="a" d="M310.047,146a4.015,4.015,0,0,0-4.01,4.01v7.146A4.009,4.009,0,0,0,302.2,158.2l-6.724,6.724a4.978,4.978,0,0,0-1.469,3.546v5.9h-1a1,1,0,0,0-1,1v6.316a1,1,0,0,0,1,1h14.036a1,1,0,0,0,1-1v-6.316a1,1,0,0,0-1-1h-1V173.9a1.009,1.009,0,0,1,.294-.709l6.258-6.258a4.981,4.981,0,0,0,1.469-3.545V150.01A4.015,4.015,0,0,0,310.047,146Zm-4.01,34.69H294.005v-4.311h12.031Zm6.016-17.3a2.989,2.989,0,0,1-.881,2.127l-6.258,6.258a3.029,3.029,0,0,0-.881,2.127v.473H296.01v-5.9a2.986,2.986,0,0,1,.881-2.127l6.724-6.725a2,2,0,0,1,2.752-.077l.017.015c.023.02.044.041.066.062a2,2,0,0,1,0,2.835l-4.982,4.982a1,1,0,1,0,1.418,1.418l4.982-4.982a4.008,4.008,0,0,0,.172-5.487V150.01a2.005,2.005,0,1,1,4.01,0Z" transform="translate(-292 -146)"/></g><g transform="translate(0 13.304)"><path class="a" d="M21.055,174.374h-1v-5.9a4.977,4.977,0,0,0-1.469-3.545L11.859,158.2a4.009,4.009,0,0,0-3.838-1.048V150.01a4.01,4.01,0,1,0-8.021,0v13.378a4.981,4.981,0,0,0,1.469,3.545l6.258,6.258a1.009,1.009,0,0,1,.294.709v.473h-1a1,1,0,0,0-1,1v6.316a1,1,0,0,0,1,1H21.055a1,1,0,0,0,1-1v-6.316A1,1,0,0,0,21.055,174.374ZM2.887,165.516a2.989,2.989,0,0,1-.881-2.128V150.01a2.005,2.005,0,1,1,4.01,0v8.378a4.008,4.008,0,0,0,.172,5.486l5.013,5.013a1,1,0,0,0,1.418-1.418l-5.013-5.013a2,2,0,0,1,0-2.834c.022-.022.043-.043.066-.062l.017-.015a2,2,0,0,1,2.752.077l6.725,6.725a2.986,2.986,0,0,1,.881,2.127v5.9H10.026V173.9a3.028,3.028,0,0,0-.881-2.127ZM20.052,180.69H8.021v-4.311H20.052Z" transform="translate(0 -146)"/></g><g transform="translate(9.961)"><path class="a" d="M121.039,0a15.039,15.039,0,1,0,15.039,15.039A15.056,15.056,0,0,0,121.039,0Zm0,28.073a13.034,13.034,0,1,1,13.034-13.034A13.049,13.049,0,0,1,121.039,28.073Z" transform="translate(-106)"/></g><g transform="translate(13.971 4.014)"><path class="a" d="M163.952,42.471a11.1,11.1,0,0,0-9.366-2.18,1,1,0,1,0,.423,1.96,9.108,9.108,0,0,1,7.684,1.78,9.022,9.022,0,1,1-13.62,2.765,1,1,0,0,0-1.767-.948,11.03,11.03,0,1,0,16.647-3.377Z" transform="translate(-146 -40.031)"/></g></g></svg>