<svg xmlns="http://www.w3.org/2000/svg" width="45.715" height="50" viewBox="0 0 45.715 50"><defs><style>.a{fill:#759631;}</style></defs><g transform="translate(-20.982)"><g transform="translate(20.982 0)"><path class="a" d="M30.227,10.376A19.038,19.038,0,0,1,55.963,9.66l-5.891.235a1.446,1.446,0,0,0,.051,2.885h.051l9.045-.353a1.408,1.408,0,0,0,1.318-1.442v-.171h0L60.2,1.39a1.372,1.372,0,1,0-2.738.107l.213,5.908a21.652,21.652,0,0,0-29.284.833,24.538,24.538,0,0,0-6.774,23.2,1.379,1.379,0,0,0,1.328,1.1,1.129,1.129,0,0,0,.324-.043,1.451,1.451,0,0,0,1-1.742A21.554,21.554,0,0,1,30.227,10.376Z" transform="translate(-20.982 0)"/><path class="a" d="M116.358,186.314a1.369,1.369,0,0,0-1.653-1.058,1.451,1.451,0,0,0-1,1.742,21.527,21.527,0,0,1-5.953,20.375,19.051,19.051,0,0,1-25.9.577l5.963-.566a1.422,1.422,0,0,0,1.237-1.571,1.382,1.382,0,0,0-1.491-1.3l-9.016.855a1.422,1.422,0,0,0-1.237,1.571l.811,9.5a1.4,1.4,0,0,0,1.359,1.314.47.47,0,0,0,.122-.011,1.422,1.422,0,0,0,1.237-1.571l-.487-5.78a21.72,21.72,0,0,0,13.012,5.225c.385.021.771.032,1.146.032a21.76,21.76,0,0,0,15.081-6.133A24.527,24.527,0,0,0,116.358,186.314Z" transform="translate(-71.279 -167.748)"/></g></g></svg>