<svg xmlns="http://www.w3.org/2000/svg" width="50" height="50" viewBox="0 0 50 50"><defs><style>.a{fill:#759631;}</style></defs><path class="a" d="M121,129.673h2.891v-3.738l18.193,18.193h-3.738v2.891h8.673v-8.673h-2.891v3.738l-18.193-18.193h3.738V121H121Zm0,0" transform="translate(-109.01 -109.01)"/><path class="a" d="M367.045,2.973H361V5.946h6.045V8.918h2.973v6.045h2.973V8.918h2.973V0h-8.918Zm2.973,0h2.973V5.946h-2.973Zm0,0" transform="translate(-325.963)"/><path class="a" d="M181,30h5.946v2.973H181Zm0,0" transform="translate(-163.359 -27.027)"/><path class="a" d="M271,30h5.946v2.973H271Zm0,0" transform="translate(-244.587 -27.027)"/><path class="a" d="M452,271h2.973v5.946H452Zm0,0" transform="translate(-407.946 -244.587)"/><path class="a" d="M452,181h2.973v5.946H452Zm0,0" transform="translate(-407.946 -163.359)"/><path class="a" d="M372.99,361h-2.973v6.045h-2.973v2.973H361v2.973h6.045v2.973h8.918v-8.918H372.99Zm0,11.99h-2.973v-2.973h2.973Zm0,0" transform="translate(-325.963 -325.963)"/><path class="a" d="M30,271h2.973v5.946H30Zm0,0" transform="translate(-27.027 -244.587)"/><path class="a" d="M30,181h2.973v5.946H30Zm0,0" transform="translate(-27.027 -163.359)"/><path class="a" d="M2.973,14.963H5.946V8.918H8.918V5.946h6.045V2.973H8.918V0H0V8.918H2.973Zm0-11.99H5.946V5.946H2.973Zm0,0"/><path class="a" d="M8.918,372.99h6.045v-2.973H8.918v-2.973H5.946V361H2.973v6.045H0v8.918H8.918Zm-2.973,0H2.973v-2.973H5.946Zm0,0" transform="translate(0 -325.963)"/><path class="a" d="M181,452h5.946v2.973H181Zm0,0" transform="translate(-163.359 -407.946)"/><path class="a" d="M271,452h5.946v2.973H271Zm0,0" transform="translate(-244.587 -407.946)"/></svg>