<svg xmlns="http://www.w3.org/2000/svg" width="112.951" height="89.684" viewBox="0 0 112.951 89.684"><defs><style>.a{fill:#fff;}</style></defs><g transform="translate(0 -36.32)"><path class="a" d="M62.992,89.125l5.641-2.139,5.655-2.752,19.364-16.9L109.578,54.55l3.373-7.168L102.839,36.32H95.013L79.3,52.731,66.983,63.1l-.033-.036-.244.267-7.337,8.04-2.078,3.957-2.659,5.062L37.908,96.111a13.161,13.161,0,0,0-.138-2.492c-.811-5.361-4.781-10.047-11.8-13.929-5.1-2.822-9.383-4.195-13.082-4.195a11.192,11.192,0,0,0-7.246,2.414C.783,81.834.77,89.223,1.9,92.956c1.48,4.873,4.419,6.682,6.634,7.345a9.45,9.45,0,0,0,2.684.38c4.919,0,9.4-3.526,10.259-4.234a4.3,4.3,0,0,0-5.5-6.621c-1.114.91-3.385,2.257-4.723,2.257a.854.854,0,0,1-.263-.032c-.079-.023-.484-.382-.851-1.592-.561-1.849-.25-4.914.916-5.855a2.908,2.908,0,0,1,1.841-.484c1.5,0,4.265.54,8.905,3.107,4.492,2.485,7.072,5.139,7.455,7.681.4,2.646-1.592,5.321-2.941,6.847H0V126H112.135V107.562H42.827ZM81.663,55.247,96.485,39.764h4.837L108.856,48l-2.051,4.36L91.369,64.755,77.214,78.542,67.438,67.216ZM66.94,68.185,76.159,78.4l-6.287,4.92-8.636-8.886ZM108.691,111v11.552H3.443V105.193H27.817c.046-.047.1-.1.153-.16,1.348-1.4,5.45-5.668,4.7-10.645-.557-3.691-3.651-7.116-9.194-10.18-6.764-3.741-11.8-4.533-14.581-2.284-2.7,2.189-2.818,6.982-2.044,9.533.653,2.151,1.715,3.459,3.158,3.891,3.422,1.031,8.121-2.83,8.165-2.868a.86.86,0,0,1,1.1,1.32c-.22.183-5.438,4.478-9.759,3.2-2.032-.609-3.483-2.3-4.316-5.041-.937-3.09-.748-8.658,2.609-11.372,3.409-2.761,8.963-2.05,16.5,2.117,6.035,3.336,9.422,7.183,10.065,11.431.731,4.849-2.3,8.935-4.2,11.06h3.107L57.419,82.5,60.9,75.859l7.592,7.5-7.343,2.783-27.2,24.866h74.734Z"/></g></svg>