<svg xmlns="http://www.w3.org/2000/svg" width="90.672" height="98.356" viewBox="0 0 90.672 98.356"><defs><style>.a{fill:#fff;}</style></defs><path class="a" d="M110.672,41.294A37.08,37.08,0,0,1,73.221,78.645a33.793,33.793,0,0,1-24.485-9.868,31.2,31.2,0,0,1-8.949-21.57,29.29,29.29,0,0,1,6.6-18.009,26.137,26.137,0,0,1,20.924-9.6A25.569,25.569,0,0,1,83.25,24.833a20.279,20.279,0,0,1,7.636,16.46,16.31,16.31,0,0,1-6.516,13.2A21.1,21.1,0,0,1,71.1,58.783a8.073,8.073,0,1,1,8.193-10.1A8.623,8.623,0,0,0,83.2,41.294c0-9.682-7.983-14.015-15.894-14.015-13.682,0-19.837,11.654-19.837,19.928,0,11.676,9.632,23.754,25.75,23.754a29.4,29.4,0,0,0,29.768-29.667c0-20.1-14.339-33.609-35.681-33.609-22.959,0-39.623,17.451-39.623,41.494,0,23.268,20,41.494,45.528,41.494v7.684c-14.335,0-27.7-5.024-37.645-14.146A47.118,47.118,0,0,1,20,49.178C20,35.483,24.752,22.99,33.38,14,42.042,4.972,54.091,0,67.307,0,79.885,0,90.689,3.934,98.553,11.378a37.515,37.515,0,0,1,8.975,13.161A44.092,44.092,0,0,1,110.672,41.294ZM96.264,98.356h7.684V90.672H96.264Zm-15.368,0H88.58V90.672H80.9Z" transform="translate(-20)"/></svg>