<svg xmlns="http://www.w3.org/2000/svg" width="92.339" height="89.564" viewBox="0 0 92.339 89.564"><defs><style>.a{fill:#fff;}</style></defs><path class="a" d="M76.114,36.315l16.225-9.27L46.17.825,0,27.045l16.225,9.27L0,45.528,16.225,54.8,0,64.012,46.17,90.39,92.339,64.012,76.114,54.8l16.225-9.27ZM46.17,4.69,85.549,27.053,46.17,49.553,6.79,27.053ZM19.618,38.252,46.17,53.422l26.552-15.17,12.826,7.284L46.17,68.036,6.79,45.537ZM85.549,64.02,46.17,86.52,6.79,64.02l12.828-7.284L46.17,71.906l26.552-15.17Z" transform="translate(0 -0.825)"/></svg>