<svg xmlns="http://www.w3.org/2000/svg" width="96.119" height="96.119" viewBox="0 0 96.119 96.119"><defs><style>.a{fill:#fff;}</style></defs><g transform="translate(0 0)"><path class="a" d="M96.01,37.911c-.013-.038-.019-.077-.035-.114a1.588,1.588,0,0,0-.272-.428l-13.636-15a9.633,9.633,0,0,0-7.113-3.146h-7.67V3.2a3.2,3.2,0,0,0-3.2-3.2H32.04a3.2,3.2,0,0,0-3.2,3.2v16.02h-7.67a9.633,9.633,0,0,0-7.113,3.146L.417,37.37a1.588,1.588,0,0,0-.272.428c-.016.037-.022.075-.035.114a1.541,1.541,0,0,0-.091.45c0,.03-.018.056-.018.087V68.885A9.622,9.622,0,0,0,9.612,78.5H20.826l-5.767,7.69a3.2,3.2,0,0,0,2.563,5.126h9.308l-.125.277a3.2,3.2,0,0,0,2.917,4.529H66.4a3.2,3.2,0,0,0,2.917-4.529l-.127-.277H78.5a3.2,3.2,0,0,0,2.563-5.126L75.293,78.5H86.507a9.622,9.622,0,0,0,9.612-9.612V38.448c0-.03-.016-.056-.018-.087A1.545,1.545,0,0,0,96.01,37.911ZM32.04,3.2h32.04V28.836H32.04ZM16.424,24.526a6.418,6.418,0,0,1,4.742-2.1h7.67v6.408h-1.6a1.6,1.6,0,1,0,0,3.2H68.885a1.6,1.6,0,1,0,0-3.2h-1.6V22.428h7.67a6.418,6.418,0,0,1,4.742,2.1L90.9,36.846H5.224Zm55.666,49.7-3.2-4.272V67.283a4.806,4.806,0,0,0-4.806-4.806H32.04a4.806,4.806,0,0,0-4.806,4.806v2.671l-3.2,4.272V62.477A11.227,11.227,0,0,1,35.244,51.264H60.875A11.227,11.227,0,0,1,72.089,62.477Zm-6.408-5.341H30.438v-1.6a1.6,1.6,0,0,1,1.6-1.6h32.04a1.6,1.6,0,0,1,1.6,1.6Zm-35.96,24.03L36.275,78.5H59.844L66.4,92.915Zm38.01-4.806L62.352,76.272l-.018-.038a1.56,1.56,0,0,0-.3-.431c-.034-.035-.072-.062-.107-.095a1.6,1.6,0,0,0-.348-.234,1.52,1.52,0,0,0-.146-.067,1.6,1.6,0,0,0-.559-.114H35.244a1.6,1.6,0,0,0-.557.112,1.52,1.52,0,0,0-.146.067,1.6,1.6,0,0,0-.348.234c-.035.032-.074.059-.107.095a1.56,1.56,0,0,0-.3.431l-.018.038L28.387,88.109H17.622l12.015-16.02H66.482L78.5,88.109ZM92.915,68.885a6.408,6.408,0,0,1-6.408,6.408H75.293V62.477A14.435,14.435,0,0,0,60.875,48.06H35.244A14.435,14.435,0,0,0,20.826,62.477V75.293H9.612A6.408,6.408,0,0,1,3.2,68.885V40.05H92.915Z" transform="translate(0 0)"/><path class="a" d="M54.806,37.612A4.806,4.806,0,1,0,50,32.806,4.806,4.806,0,0,0,54.806,37.612Zm0-6.408a1.6,1.6,0,1,1-1.6,1.6A1.6,1.6,0,0,1,54.806,31.2Z" transform="translate(30.099 16.856)"/><circle class="a" cx="1.602" cy="1.602" r="1.602" transform="translate(83.303 57.671)"/><circle class="a" cx="1.602" cy="1.602" r="1.602" transform="translate(83.303 62.477)"/><circle class="a" cx="1.602" cy="1.602" r="1.602" transform="translate(83.303 67.283)"/><path class="a" d="M26.6,54.2H39.418a1.6,1.6,0,1,0,0-3.2H26.6a1.6,1.6,0,1,0,0,3.2Z" transform="translate(15.05 30.701)"/><path class="a" d="M43.826,54H24.6a1.6,1.6,0,0,0,0,3.2H43.826a1.6,1.6,0,1,0,0-3.2Z" transform="translate(13.846 32.507)"/><path class="a" d="M5.6,31.806a1.6,1.6,0,0,0,1.6-1.6V28.6a1.6,1.6,0,1,0-3.2,0v1.6A1.6,1.6,0,0,0,5.6,31.806Z" transform="translate(2.408 16.254)"/><path class="a" d="M5.6,44.816a1.6,1.6,0,0,0,1.6-1.6V33.6a1.6,1.6,0,1,0-3.2,0v9.612A1.6,1.6,0,0,0,5.6,44.816Z" transform="translate(2.408 19.264)"/></g></svg>