<svg xmlns="http://www.w3.org/2000/svg" width="80.013" height="93.961" viewBox="0 0 80.013 93.961"><defs><style>.a{fill:#fff;}</style></defs><g transform="translate(0 0)"><path class="a" d="M79.92,25.493l0-.073c-.041-.9-.068-1.858-.085-2.92a9.958,9.958,0,0,0-9.377-9.756c-10.8-.6-19.16-4.126-26.3-11.086L44.094,1.6a6.013,6.013,0,0,0-8.172,0l-.061.058c-7.141,6.96-15.5,10.483-26.3,11.086A9.958,9.958,0,0,0,.183,22.5C.167,23.556.139,24.511.1,25.42l0,.17C-.116,36.606-.377,50.316,4.21,62.76A47.317,47.317,0,0,0,15.561,80.441c5.706,5.569,13.18,9.99,22.214,13.139a6.879,6.879,0,0,0,.91.248,6.724,6.724,0,0,0,2.644,0,6.9,6.9,0,0,0,.914-.249C51.267,90.424,58.733,86,64.434,80.433A47.383,47.383,0,0,0,75.786,62.747C80.389,50.266,80.129,36.53,79.92,25.493ZM70.613,60.839C65.775,73.955,55.9,82.963,40.424,88.375a1.385,1.385,0,0,1-.175.047,1.237,1.237,0,0,1-.484,0,1.374,1.374,0,0,1-.174-.047C24.1,82.973,14.217,73.97,9.383,60.854,5.156,49.383,5.4,36.8,5.607,25.7v-.062c.043-.954.072-1.954.087-3.052A4.426,4.426,0,0,1,9.867,18.25a48.374,48.374,0,0,0,16.419-3.612,42.957,42.957,0,0,0,13.38-8.989.508.508,0,0,1,.682,0,42.973,42.973,0,0,0,13.38,8.989,48.376,48.376,0,0,0,16.42,3.612,4.425,4.425,0,0,1,4.171,4.333c.017,1.1.045,2.1.088,3.051C74.619,36.749,74.852,49.345,70.613,60.839Zm0,0" transform="translate(0 0.001)"/><path class="a" d="M113.815,128.41a23.417,23.417,0,1,0,23.416,23.416A23.443,23.443,0,0,0,113.815,128.41Zm0,41.319a17.9,17.9,0,1,1,17.9-17.9A17.923,17.923,0,0,1,113.815,169.729Zm0,0" transform="translate(-73.809 -104.844)"/><path class="a" d="M172.207,212.8l-10.876,10.876-2.952-2.952a2.757,2.757,0,0,0-3.9,3.9l4.9,4.9a2.757,2.757,0,0,0,3.9,0L176.106,216.7a2.757,2.757,0,1,0-3.9-3.9Zm0,0" transform="translate(-125.471 -173.087)"/></g></svg>