<svg xmlns="http://www.w3.org/2000/svg" width="73.296" height="91.573" viewBox="0 0 73.296 91.573"><defs><style>.a{fill:#fff;}</style></defs><g transform="translate(0 0)"><path class="a" d="M122.077,79.157l-5.243-59.045a2.524,2.524,0,0,0-2.509-2.3H103.538a18.092,18.092,0,0,0-36.18,0H56.572a2.51,2.51,0,0,0-2.509,2.3L48.819,79.157c0,.075-.019.15-.019.225,0,6.723,6.161,12.191,13.745,12.191h45.805c7.584,0,13.745-5.468,13.745-12.191A.912.912,0,0,0,122.077,79.157ZM85.448,5.056A13.047,13.047,0,0,1,98.482,17.809H72.414A13.047,13.047,0,0,1,85.448,5.056Zm22.9,81.461H62.545c-4.757,0-8.614-3.146-8.689-7.022l5.019-56.611h8.464v7.678a2.528,2.528,0,1,0,5.056,0V22.884H98.482v7.678a2.528,2.528,0,1,0,5.056,0V22.884H112l5.037,56.611C116.965,83.371,113.089,86.517,108.351,86.517Z" transform="translate(-48.8)"/></g></svg>