<svg xmlns="http://www.w3.org/2000/svg" width="132.391" height="90.256" viewBox="0 0 132.391 90.256"><defs><style>.a{fill:#fff;}</style></defs><path class="a" d="M108.237,684.5a12.225,12.225,0,0,0-8.627,3.558,11.978,11.978,0,0,0,0,17.145,12.272,12.272,0,0,0,8.627,3.558,12.132,12.132,0,0,0,0-24.262Zm0,18.871a6.74,6.74,0,1,1,0-13.479,6.74,6.74,0,0,1,0,13.479Zm3.127-59.281a2.618,2.618,0,0,0-1.806-.7H95.728a2.7,2.7,0,0,0-2.7,2.7v22.106a2.7,2.7,0,0,0,2.7,2.7h21.944a2.7,2.7,0,0,0,2.7-2.7v-14.8a2.7,2.7,0,0,0-.89-1.995Zm3.612,21.4H98.424V648.757h10.082l6.47,5.823ZM42.405,684.5a12.225,12.225,0,0,0-8.627,3.558,11.978,11.978,0,0,0,0,17.145,12.272,12.272,0,0,0,8.627,3.558,12.132,12.132,0,0,0,0-24.262Zm0,18.871a6.74,6.74,0,1,1,0-13.479,6.74,6.74,0,0,1,0,13.479ZM24.424,687.819H19.005v-7.171a2.7,2.7,0,1,0-5.392,0v9.867a2.7,2.7,0,0,0,2.7,2.7h8.114a2.7,2.7,0,0,0,0-5.392Zm13.668-14.692a2.7,2.7,0,0,0-2.7-2.7H2.7a2.7,2.7,0,0,0,0,5.392H35.4A2.686,2.686,0,0,0,38.092,673.127ZM8.168,663.4l32.7.189a2.721,2.721,0,0,0,2.723-2.669,2.67,2.67,0,0,0-2.669-2.723L8.222,658H8.2a2.7,2.7,0,0,0-.027,5.392Zm5.5-12.239h32.7a2.7,2.7,0,0,0,0-5.392h-32.7a2.7,2.7,0,0,0,0,5.392Zm117.726-3.639h0l-19.3-15.986a2.656,2.656,0,0,0-1.725-.62h-22.7v-9.7a2.7,2.7,0,0,0-2.7-2.7H16.31a2.7,2.7,0,0,0-2.7,2.7v19.733a2.7,2.7,0,1,0,5.392,0V623.9H82.3v63.918H60.2a2.7,2.7,0,0,0,0,5.392H93.113a2.7,2.7,0,0,0,0-5.392H87.695V636.3h21.728L127,650.86l-.189,36.906h-2.8a2.7,2.7,0,1,0,0,5.392h5.473a2.681,2.681,0,0,0,2.7-2.669l.216-40.868A2.847,2.847,0,0,0,131.394,647.517Z" transform="translate(0 -618.51)"/></svg>