<svg xmlns="http://www.w3.org/2000/svg" width="90.482" height="90.481" viewBox="0 0 90.482 90.481"><defs><style>.a{fill:#fff;}</style></defs><g transform="translate(0)"><path class="a" d="M77.231,13.251a45.241,45.241,0,1,0-63.98,63.98,45.241,45.241,0,1,0,63.98-63.98ZM73.481,73.481A39.939,39.939,0,1,1,17,17,39.939,39.939,0,1,1,73.481,73.481Zm0,0" transform="translate(0.001 0)"/><path class="a" d="M302.458,271.816a3.126,3.126,0,0,0-2.4-1.121H280.238a3.146,3.146,0,0,0-2.83,1.8,10.348,10.348,0,0,1-4.915,4.915,3.147,3.147,0,0,0-1.8,2.83v19.821a3.128,3.128,0,0,0,3.675,3.084,35.673,35.673,0,0,0,28.769-28.77,3.119,3.119,0,0,0-.682-2.555ZM282.2,274.758l0,0ZM276,297.351V281.543A15.682,15.682,0,0,0,281.544,276H297.35A30.391,30.391,0,0,1,276,297.351Zm0,0" transform="translate(-222.858 -222.858)"/><path class="a" d="M88.138,277.407a10.347,10.347,0,0,1-4.915-4.915,3.146,3.146,0,0,0-2.83-1.8H60.573a3.13,3.13,0,0,0-3.084,3.675,35.673,35.673,0,0,0,28.77,28.771,3.131,3.131,0,0,0,3.675-3.084V280.237a3.146,3.146,0,0,0-1.8-2.83Zm-3.505,19.945A30.394,30.394,0,0,1,63.28,276H79.086a15.682,15.682,0,0,0,5.546,5.546Zm0,0" transform="translate(-47.29 -222.858)"/><path class="a" d="M272.491,83.213a10.347,10.347,0,0,1,4.915,4.915,3.146,3.146,0,0,0,2.83,1.8h19.819a3.13,3.13,0,0,0,3.084-3.676,35.674,35.674,0,0,0-28.769-28.77,3.131,3.131,0,0,0-3.675,3.084V80.383a3.147,3.147,0,0,0,1.8,2.83ZM276,63.269a30.391,30.391,0,0,1,21.352,21.354H281.542A15.673,15.673,0,0,0,276,79.078V63.269Zm0,0" transform="translate(-222.857 -47.281)"/><path class="a" d="M88.812,58.161a3.12,3.12,0,0,0-2.555-.683,35.673,35.673,0,0,0-28.768,28.77,3.13,3.13,0,0,0,3.084,3.676H80.391a3.146,3.146,0,0,0,2.83-1.8,10.346,10.346,0,0,1,4.916-4.915,3.147,3.147,0,0,0,1.8-2.83V60.562a3.124,3.124,0,0,0-1.121-2.4ZM84.631,79.077a15.675,15.675,0,0,0-5.545,5.546H63.279A30.394,30.394,0,0,1,84.631,63.269Zm0,0" transform="translate(-47.289 -47.281)"/></g></svg>